<svg width="399" height="249" viewBox="0 0 399 249" fill="none" xmlns="http://www.w3.org/2000/svg">
<path d="M47.3294 239.941C47.3919 239.941 47.4492 239.998 47.3919 240.576C47.3294 240.347 47.3294 240.118 47.3294 239.941C47.2721 239.941 47.2148 239.998 47.1576 239.712C47.4492 242.019 47.793 244.675 48.0794 247.274C48.1992 247.618 48.3711 247.91 48.4857 248.196C47.8503 241.79 47.2721 235.326 46.293 230.128C46.5794 233.826 46.9857 236.363 47.3294 239.941Z" fill="white"/>
<path d="M36.4792 134.201C36.0156 130.222 35.3802 126.816 34.75 123.295C35.6719 130.743 36.5365 138.415 37.401 144.071C37.0573 140.785 36.7656 137.493 36.4792 134.201Z" fill="white"/>
<path d="M31.8652 105.92C32.1517 110.826 32.7298 114.868 33.4225 118.738C32.959 114.811 32.5527 110.883 32.0944 107.019C32.0371 106.613 31.9798 106.269 31.8652 105.92Z" fill="white"/>
<path d="M32.959 111.29C33.3652 115.79 34.0579 119.545 34.6934 123.295C34.1725 119.081 33.5944 114.982 32.959 111.29Z" fill="white"/>
<path d="M49.8138 199.483C50.3346 202.425 50.6211 204.217 50.7357 205.196C50.9076 205.66 51.1419 206.238 51.4284 206.988C51.4284 206.811 51.3711 206.639 51.3711 206.467C50.9076 203.41 50.5065 200.347 50.043 197.233C49.8138 195.962 49.5846 194.748 49.293 193.769C49.4648 195.675 49.6419 197.634 49.8138 199.483Z" fill="white"/>
<path d="M50.7354 205.254C51.2562 209.181 49.2926 201.504 50.7354 205.254Z" fill="white"/>
<path d="M43.0573 186.67C43.0573 186.498 43.0573 186.378 43 186.207C42.9427 185.806 42.8854 185.342 42.8281 184.878C42.8854 185.514 43 186.092 43.0573 186.67Z" fill="white"/>
<path d="M42.4219 149.847C42.7135 152.441 43 155.04 43.349 157.582C42.7708 152.326 42.1927 147.019 41.5 142.628C41.5573 143.264 41.5 143.957 41.5573 144.592C41.849 145.863 42.1927 147.826 42.4219 149.847Z" fill="white"/>
<path d="M45.8281 207.102C44.9635 200.003 43.9844 193.019 43.0573 186.206C41.7917 172.415 40.349 159.139 38.4427 147.248C36.7083 136.8 35.2083 118.389 32.7292 107.998C32.7865 109.154 32.8438 110.191 32.9583 111.29C32.6719 109.732 32.3802 108.347 32.0938 106.962C31.8021 104.535 31.5729 102.113 31.2865 99.6908L30.9948 98.071L29.5521 98.7637C27.5885 99.571 25.5729 100.383 23.5521 101.191C21.2396 102.113 18.9896 103.035 16.6823 103.962C12.5833 105.576 8.42708 107.248 4.27083 108.868C3.46354 104.305 2.65625 99.571 1.84896 94.8418C1.73437 94.0918 1.5625 93.4564 1.44271 92.7637C1.27083 91.8991 1.09896 91.0866 0.984375 90.2793C0.635416 88.6647 0.348959 87.0501 0 85.373C0.984375 84.9147 1.96354 84.5085 3.0625 83.9876C6.34896 82.5449 9.52604 81.1595 12.7552 79.7741C12.7552 79.7741 12.6979 79.7168 12.6406 79.7741C15.4687 78.5085 18.2396 77.2949 21.0677 76.0814C22.4531 75.446 23.8385 74.8678 25.224 74.2324C25.3385 74.1751 25.3958 74.1178 25.4531 74.0605C25.6302 75.7376 24.4167 68.5762 23.6667 64.248C22.8021 59.0553 22.1667 53.8053 21.4167 48.5501C21.125 46.5866 21.5313 46.5293 21.4167 45.2012C21.3021 42.5501 21.125 40.2376 21.0104 37.8158C20.9531 36.6022 20.8385 35.3887 20.7813 34.0658C20.724 33.3158 20.6667 32.5605 20.6094 31.8105C20.5469 31.2376 20.5469 30.6022 20.4896 29.9668C20.4896 29.6751 20.4323 29.3314 20.4323 29.0397C20.4896 28.7533 20.4896 28.4668 20.5469 28.1751C20.5469 28.1751 20.724 28.2324 20.8385 28.2324C20.9531 26.7897 21.7604 25.5814 22.5104 24.8262C22.224 25.347 21.9323 25.9251 21.7031 26.6178L21.5313 27.1387C21.5313 27.3105 21.5313 27.5397 21.474 27.7168V27.8314C21.3594 27.8314 21.474 27.8887 21.4167 27.946V28.8105C21.4167 28.9824 21.4167 29.1595 21.474 29.3314C21.5313 29.5033 21.5313 29.6751 21.5885 29.9095C21.6458 30.2533 21.7604 30.6022 21.8177 30.946C21.875 31.2949 21.9948 31.5814 22.0521 31.8678C22.1094 31.9876 22.1094 32.1595 22.1667 32.2741C22.224 32.3314 22.224 32.446 22.2813 32.5033C22.5104 33.0814 22.6875 33.373 22.8021 32.9668C22.8021 32.8522 22.8594 32.7376 22.8594 32.5605C22.8594 32.3887 22.9167 32.2168 22.9167 31.8105C22.9167 31.4668 22.9167 31.0033 22.9167 30.5449C22.9167 30.0241 22.8594 29.5033 22.974 28.8678C22.974 29.1595 22.974 29.3887 23.0313 29.6751C23.0885 29.9095 23.0885 30.196 23.1458 30.4251C23.1458 30.4824 23.1458 30.5449 23.1458 30.6022C23.2604 31.1751 23.3177 31.7533 23.4375 32.1595C23.5521 32.5033 23.6094 32.8522 23.724 33.1387C23.8958 33.7741 24.1302 34.2949 24.3021 34.8158L24.0677 33.0814C24.0104 32.5033 23.8958 31.9876 23.8385 31.2376C24.0104 31.5241 24.1302 31.6387 24.2448 31.5241C24.3021 31.6387 24.3021 31.7533 24.3594 31.8678C24.4167 32.3887 24.474 32.8522 24.474 32.8522C24.5885 33.0241 24.6458 33.1387 24.7604 33.196C25.5729 36.1439 26.4375 40.8158 26.6667 39.8939C26.7813 39.1439 26.3229 37.0085 25.8594 34.5241C25.8594 34.3522 25.8594 34.1803 25.8594 34.0033C26.3802 37.2376 26.4948 33.8887 26.8958 35.8522C27.2448 38.4512 27.7083 41.0449 28.0521 43.6439C28.8021 48.9564 29.5521 53.8626 30.3021 58.7064C30.7083 61.1335 31.1094 63.5553 31.5156 66.0397C31.9219 68.5762 32.3802 71.1751 32.8438 73.8314C32.9583 74.4095 33.0156 74.9876 33.1302 75.5605C33.3073 76.6022 33.4792 77.696 33.651 78.6803C31.2865 79.7168 28.974 80.7012 26.6667 81.7376C24.7604 82.5449 22.8594 83.3522 20.8958 84.1647C21.1823 83.9876 21.474 83.8158 21.7604 83.5866C19.9167 84.3366 18.0104 85.1439 16.1615 85.8939L13.3906 87.1074L12.0052 87.7428L10.7396 88.3158C9.8125 88.7793 8.83333 89.2428 7.91146 89.7012C8.60417 92.7064 9.23438 95.7637 9.92708 98.821C11.1406 98.3053 12.2969 97.7845 13.5052 97.2637C14.3177 96.9199 15.125 96.571 15.875 96.2845C16.8542 95.8783 17.8385 95.4772 18.8177 95.071C25.1094 92.5293 31.2865 89.9928 37.4583 87.5085C37.8646 91.3783 38.2708 95.2428 38.6719 99.1699C39.0208 101.883 39.3073 104.592 39.6563 107.363C39.3646 105.113 39.0208 102.805 38.7292 100.498L38.5 98.5918C38.3854 97.7845 38.3281 96.9199 38.2083 96.1074C38.0365 94.4928 37.8646 92.821 37.6927 91.1439C37.5781 89.9355 37.4583 88.722 37.3438 87.5658C35.6719 88.2585 34 88.8939 32.3802 89.5293C34.0573 88.8939 35.6719 88.2585 37.3438 87.623C37.4583 88.8366 37.5781 89.9928 37.6927 91.1439C37.9219 93.972 38.2083 96.8001 38.4427 99.6283C38.6146 101.649 38.7865 103.613 39.0208 105.576C39.4219 109.441 40 113.081 40.6927 116.139C40.6927 116.831 40.5781 116.831 40.6354 117.467C41.0417 122.081 41.3854 126.701 42.1354 130.566C42.25 130.566 42.4219 132.529 42.5417 131.837C43 135.764 43.4063 140.378 43.9844 144.305C44.2135 145.977 44.5573 147.712 44.9063 149.383C46.6979 163.467 48.4271 177.378 50.3333 192.498C50.7917 196.248 51.1979 200.639 51.5417 204.446C50.7344 198.847 49.9271 193.076 49.1198 187.191C48.6563 181.472 48.1979 175.993 47.2708 171.545C47.099 170.508 46.9271 169.467 46.7552 168.43C47.5625 174.722 48.3698 181.014 49.1198 187.191C49.4063 190.535 49.6406 193.998 49.9271 197.404C49.9271 197.347 49.9271 197.29 49.8698 197.232C49.526 194.576 49.1771 191.92 48.7708 189.206C48.3698 184.128 47.9063 179.222 47.2135 175.066C47.099 174.55 47.0417 174.029 46.9271 173.566C46.7552 172.529 46.5781 171.488 46.4063 170.451C46.9271 174.373 47.3906 178.243 47.849 182.05C48.1406 184.42 48.4844 186.842 48.7708 189.206C48.8906 190.712 49.0052 192.212 49.1198 193.712C49.0625 193.54 49.0625 193.363 49.0052 193.248C48.7708 191.92 47.3281 188.342 47.2135 190.363C47.6771 195.441 48.3698 201.503 48.8906 206.295C49.1771 208.717 49.4063 210.795 49.5833 212.295C49.6406 213.045 49.6979 213.623 49.7552 214.029C49.7552 214.258 49.8125 214.373 49.8125 214.488C49.8125 214.602 49.8125 214.66 49.8125 214.66C49.4635 215.352 47.3906 198.04 47.3906 198.732C47.4479 199.712 47.5052 200.696 47.5625 201.675C47.3906 200.753 47.2135 199.889 47.099 199.019C46.8125 197.061 46.6979 194.404 46.349 193.133C45.3698 188.571 45.0781 183.321 44.2135 178.071C43.5781 174.837 42.8854 170.91 42.1354 166.988C41.9635 166.988 41.849 165.024 41.7292 165.717C41.3854 162.024 40.9792 157.696 40.2865 156.196L40.2292 155.904C40.2292 155.618 40.1146 155.269 40.0573 154.868C39.5938 148.691 38.6719 144.42 37.8073 138.878C37.5781 136.972 37.3438 135.014 37.1719 132.993C37.2865 134.321 37.401 136.279 37.5781 137.607C37.6354 138.071 37.6927 138.472 37.75 138.878C38.3281 143.842 39.0208 148.576 39.6563 153.311C39.7708 153.712 39.8854 154.29 40 154.868C40 155.212 40.0573 155.561 40.0573 155.904C40.1146 155.962 40.1719 156.076 40.1719 156.139C40.8646 160.639 41.4427 165.774 42.0781 169.587C43.0573 176.857 43.6354 184.649 44.2708 192.092C43.75 188.399 43.2344 184.764 42.7708 181.186C43.349 185.628 43.9271 189.842 44.4427 193.941C44.5 194.576 44.5573 195.212 44.6198 195.847L44.9635 199.769C44.9063 198.561 44.7917 197.347 44.7344 196.076C45.0781 198.503 45.4271 200.925 45.7708 203.29C47.4479 216.451 48.8906 230.014 49.9844 243.347C49.8698 243.118 49.6979 242.826 49.5833 242.482C48.9479 236.076 48.3698 229.613 47.3906 224.415C47.7344 228.107 48.1406 230.649 48.4844 234.285C48.4271 234.285 48.3698 234.342 48.3125 234.055C48.599 236.363 48.9479 239.019 49.2344 241.618C48.8906 240.805 48.599 239.883 48.2552 238.962C47.9635 237.633 47.7917 235.67 47.5052 233.706C46.5781 225.165 45.8854 217.144 44.9063 208.774C44.2135 201.269 43.5781 193.826 42.9427 186.498C43.9844 193.941 44.849 200.576 45.8281 207.102ZM24.4167 43.7012C24.5313 44.3366 24.7031 45.0293 24.8229 45.722C24.8229 45.6074 24.8229 45.4928 24.8229 45.3783C24.7604 44.7428 24.5885 44.1647 24.4167 43.7012ZM26.4948 58.998C26.0313 54.498 24.9375 48.6074 24.0104 42.8939C23.9531 42.8939 23.9531 42.8366 23.9531 42.8366C24.474 47.6855 25.5729 53.5137 26.4948 58.998ZM34.5156 100.149C34.401 99.6283 34.2865 99.0553 34.2292 98.5345C34.1719 98.071 34.0573 97.5553 34 97.0345C33.8229 96.0501 33.7083 95.071 33.5365 94.0345C31.4583 94.9564 29.2083 95.8783 27.0156 96.8626C25.1667 97.6126 23.4948 98.6491 21.0104 99.6283C19.5104 100.264 18.2969 100.842 17.1458 101.363C16.8542 101.477 16.5677 101.592 16.3385 101.764L15.125 102.285C14.3177 102.633 13.4479 103.035 12.526 103.383L15.2969 102.519C11.6042 103.904 8.77604 105.227 5.59896 106.555C5.14063 104.305 4.61979 101.826 4.21354 98.7637C4.09896 98.821 3.75521 97.8991 3.57813 96.8626C3.40625 96.0501 3.29167 95.2428 3.11979 94.4355C2.94792 93.571 2.82812 92.7064 2.65625 91.8366C2.3125 89.9928 2.02083 88.1439 1.73438 86.4147C2.88542 85.8939 3.92708 85.4303 4.96354 84.972C6.98438 84.0449 9.00521 83.1803 10.9115 82.3158C12.3542 81.6803 13.6823 81.0449 14.8333 80.4095C15.4687 80.123 16.5677 79.373 17.7188 78.7376L22.1094 76.7741C22.0521 76.7741 21.9323 76.7741 21.875 76.7741C20.6667 77.2949 19.4531 77.8158 18.2396 78.3887C16.4531 79.2585 14.4896 80.1803 12.5833 81.1022C11.6042 81.5658 10.6198 82.0293 9.69792 82.4876C9.11979 82.7793 8.54167 83.0085 8.02604 83.2376C7.21875 83.5866 6.46875 83.9303 5.71354 84.2793C4.21354 84.9147 2.77083 85.6074 1.38542 86.1803C2.02083 89.7012 2.71354 93.1074 3.34896 96.5137C4.04167 100.035 4.67708 103.441 5.36979 106.904C8.36979 105.633 11.3125 104.363 14.2604 103.149L16.3958 102.227L17.7813 101.592L20.4896 100.383C22.2813 99.5137 24.0677 98.7064 25.8594 97.8418C28.1667 96.8001 30.7656 95.5918 33.0729 94.5501C33.3073 95.8783 33.5365 97.1491 33.9375 98.1283C34 98.3626 34.0573 98.7064 34.1146 99.0553C34.1719 99.2272 34.1719 99.3991 34.2292 99.571C34.401 99.8053 34.4583 100.035 34.5156 100.149ZM39.3073 107.133C38.901 104.535 38.5573 101.883 38.2083 99.1126C37.8073 95.4199 37.401 91.7793 37.0573 88.3158C34.8646 89.1855 32.7865 89.9928 30.7083 90.8001C29.901 91.1439 28.8594 91.5501 27.7083 92.0137C27.2448 92.2428 26.724 92.4147 26.1458 92.6491C25.6875 92.821 25.224 93.0501 24.7031 93.2793C22.7448 94.1491 20.6667 95.071 18.7604 95.9355C17.8385 96.3991 16.9688 96.8001 16.2188 97.2064C15.8177 97.4355 15.4687 97.6126 15.1823 97.7845C15.0104 97.8991 14.8906 97.9564 14.7188 98.0137C14.6042 98.071 14.4896 98.1283 14.4323 98.248C13.625 98.7637 13.2187 99.2272 13.8542 99.2845C14.1979 98.998 14.5469 98.7637 15.0677 98.4772C15.5833 98.1855 16.2187 97.8418 16.9115 97.4928C18.2969 96.8001 20.0313 95.9928 21.9323 95.1855C22.9167 94.7845 23.8958 94.3783 24.9375 93.9147C26.0313 93.4564 27.1875 92.9928 28.3438 92.5293C31.0521 91.4355 33.7656 90.3366 36.4792 89.3001C36.7656 92.3574 37.0573 95.3001 37.2865 97.9564C37.401 99.1126 37.5208 100.264 37.6354 101.248C37.75 102.17 37.8646 103.035 37.9792 103.842C38.4427 106.847 38.8438 108.347 39.3073 107.133ZM46.0625 161.795C45.6563 159.081 45.3125 156.425 45.0208 153.248L46.0625 161.795ZM39.6563 134.144C41.099 142.628 42.0208 151.805 43.1771 160.347C44.0417 166.873 44.2708 174.144 45.4271 180.029H45.7135L45.5417 179.394C45.3698 177.087 45.3698 175.186 45.25 173.279C45.25 173.394 45.3125 173.508 45.3125 173.623C45.3125 173.451 45.25 173.222 45.25 173.045C45.1927 171.779 45.0781 170.394 44.849 168.894C44.7344 168.201 44.6198 167.451 44.5 166.758C43.5781 158.561 42.6563 150.076 41.3854 142.686C40.6927 138.128 39.8281 134.201 39.1354 129.644C39.3073 130.857 39.4219 132.878 39.6563 134.144Z" fill="white"/>
<path d="M44.9076 194.92C45.2513 197.748 45.6576 200.576 46.0065 203.467C46.3503 205.66 46.6367 207.852 46.9857 210.102C48.4284 220.607 49.4076 232.956 50.6784 244.269C50.9701 244.561 51.2565 244.618 51.543 244.154C50.7357 231.805 49.1211 219.566 48.1419 207.274L48.0794 206.988C47.043 201.79 46.4648 193.191 45.3711 186.67C44.2148 180.149 43.4076 173.566 42.3086 167.045C43.2357 176.566 44.2148 185.571 44.9076 194.92Z" fill="white"/>
<path d="M33.4219 118.675C33.7083 121.217 34 123.816 34.2865 126.41C35.151 133.628 36.0156 140.092 37 146.613C36.5365 141.764 36.0729 136.915 35.6146 132.009C35.0365 127.16 34.1719 123.066 33.4219 118.675Z" fill="white"/>
<path d="M37.8086 151.983C37.5221 150.191 37.2878 148.405 37.0586 146.67C37.8086 153.826 38.5586 160.925 39.3086 168.024C40.7513 179.686 42.1367 191.285 43.7513 202.946C43.9284 204.274 44.1003 205.603 44.2148 206.868C42.3086 185.17 40.4648 163.467 37.5794 145.17C37.5221 144.821 37.4596 144.478 37.4023 144.134C38.2721 152.905 39.194 161.561 40.1159 170.217C39.3659 164.045 38.6159 157.983 37.8086 151.983Z" fill="white"/>
<path d="M44.5586 192.212C44.6211 192.847 44.6784 193.478 44.7357 194.113C44.8503 194.863 44.9076 195.556 45.0221 196.306C44.9648 195.847 44.9648 195.441 44.9076 194.983C44.793 193.998 44.6784 193.076 44.5586 192.212Z" fill="white"/>
<path d="M45.3138 173.222C45.3138 173.165 45.3138 173.045 45.3138 172.988C45.0794 170.91 44.8503 168.837 44.5586 166.696C44.1003 163.753 43.694 160.696 43.293 157.582C43.9284 163.238 44.5586 168.837 45.3138 173.222Z" fill="white"/>
<path d="M45.8867 154.811C45.8294 154.175 45.7148 152.847 45.6576 152.154C45.543 151.748 45.4857 151.347 45.3711 150.998C45.4284 151.633 45.4857 152.212 45.543 152.847L45.8867 154.811Z" fill="white"/>
<path d="M40.8086 116.139C42.2513 127.738 43.6367 138.649 45.0221 149.441L45.3711 150.998C44.793 143.727 43.9857 136.514 42.8294 129.931C42.6003 128.608 42.1367 126.701 42.0221 125.373C41.3867 119.139 40.5221 113.253 39.7148 107.363C40.0586 110.191 40.4076 113.019 40.7513 115.91L40.8086 116.139Z" fill="white"/>
<path d="M205.536 189.67C203.401 192.326 200.745 194.404 197.682 195.962C194.625 197.519 191.219 198.269 187.469 198.269C184.234 198.269 181.234 197.691 178.464 196.54C175.635 195.384 173.214 193.769 171.135 191.748C169.057 189.727 167.443 187.363 166.229 184.649C165.016 181.936 164.438 178.993 164.438 175.873C164.438 172.759 165.016 169.816 166.229 167.102C167.443 164.389 169.057 162.024 171.135 159.946C173.214 157.925 175.635 156.311 178.464 155.154C181.292 154.003 184.292 153.425 187.469 153.425C191.161 153.425 194.568 154.175 197.682 155.733C200.745 157.29 203.339 159.311 205.359 161.795L199.589 167.738C198.26 165.832 196.531 164.274 194.453 163.118C192.318 161.967 190.01 161.389 187.526 161.389C185.505 161.389 183.599 161.795 181.813 162.545C180.021 163.295 178.464 164.389 177.135 165.66C175.807 166.988 174.771 168.488 173.964 170.279C173.214 172.009 172.807 173.915 172.807 175.873C172.807 177.837 173.214 179.686 173.964 181.415C174.714 183.149 175.807 184.707 177.135 186.035C178.464 187.363 180.021 188.399 181.813 189.149C183.599 189.899 185.505 190.306 187.526 190.306C190.182 190.306 192.547 189.727 194.625 188.514C196.703 187.306 198.375 185.686 199.76 183.727L205.536 189.67Z" fill="white"/>
<path d="M237.104 197.462H229.313V178.764C229.313 177.665 229.141 176.686 228.797 175.816C228.448 174.951 227.984 174.259 227.411 173.681C226.833 173.108 226.198 172.701 225.448 172.415C224.698 172.123 223.948 172.009 223.141 172.009C221.927 172.009 220.828 172.181 219.734 172.53C218.635 172.873 217.599 173.394 216.557 174.03V197.405H208.766V152.556H216.557L216.615 167.91C217.771 166.988 219.099 166.353 220.599 165.889C222.099 165.488 223.599 165.254 224.984 165.254C226.599 165.254 228.161 165.545 229.604 166.066C231.047 166.582 232.318 167.389 233.469 168.431C234.568 169.467 235.49 170.853 236.125 172.415C236.76 174.03 237.104 175.936 237.104 178.129V197.462Z" fill="white"/>
<path d="M251.188 160.754H243.053V152.618H251.188V160.754ZM251.074 197.462H243.167V166.181H251.074V197.462Z" fill="white"/>
<path d="M286.396 192.728C284.782 194.519 282.876 195.905 280.683 196.826C278.433 197.748 276.126 198.212 273.641 198.212C271.391 198.212 269.199 197.811 267.235 196.941C265.214 196.134 263.485 194.983 261.985 193.54C260.48 192.092 259.329 190.363 258.464 188.342C257.594 186.321 257.193 184.129 257.193 181.821C257.193 179.514 257.594 177.379 258.464 175.358C259.329 173.337 260.48 171.603 261.923 170.16C263.37 168.66 265.157 167.509 267.178 166.696C269.199 165.832 271.334 165.431 273.641 165.431C276.006 165.431 278.261 165.832 280.454 166.696C282.589 167.566 284.433 168.894 286.053 170.623L280.798 175.993C279.99 174.951 279.068 174.087 277.912 173.394C276.756 172.701 275.376 172.358 273.756 172.358C272.548 172.358 271.449 172.587 270.35 173.108C269.313 173.623 268.334 174.259 267.521 175.123C266.714 175.993 266.079 176.972 265.62 178.129C265.157 179.28 264.928 180.493 264.928 181.821C264.928 183.092 265.157 184.363 265.62 185.514C266.079 186.67 266.714 187.649 267.521 188.514C268.334 189.384 269.256 190.019 270.35 190.535C271.449 191.056 272.548 191.285 273.756 191.285C275.313 191.285 276.699 190.941 277.969 190.191C279.24 189.441 280.219 188.514 280.969 187.363L286.396 192.728Z" fill="white"/>
<path d="M303.423 197.29C302.787 197.576 302.094 197.811 301.344 197.983C300.594 198.155 299.787 198.269 298.923 198.269C297.766 198.269 296.673 198.097 295.574 197.811C294.537 197.519 293.61 196.998 292.803 196.306C291.995 195.613 291.36 194.748 290.902 193.655C290.438 192.556 290.209 191.228 290.209 189.67V152.556H298.173V188.285C298.173 189.556 298.459 190.478 298.98 190.941C299.501 191.399 300.136 191.691 300.829 191.691C301.751 191.691 302.615 191.399 303.423 190.884V197.29Z" fill="white"/>
<path d="M332.574 197.462H324.782V195.79C323.396 196.712 321.954 197.347 320.449 197.748C318.891 198.097 317.334 198.269 315.719 198.269C314.219 198.269 312.834 198.04 311.62 197.576C310.407 197.118 309.313 196.483 308.443 195.613C307.521 194.748 306.829 193.769 306.365 192.613C305.907 191.462 305.615 190.191 305.615 188.748C305.615 186.957 306.021 185.457 306.771 184.128C307.521 182.8 308.62 181.707 309.949 180.842C311.271 179.972 312.834 179.279 314.62 178.878C316.412 178.415 318.313 178.243 320.391 178.243H324.896C324.896 176.394 324.318 174.951 323.105 173.858C321.891 172.759 320.219 172.238 317.969 172.238C316.87 172.238 315.777 172.415 314.62 172.816C313.464 173.222 312.313 173.915 311.157 174.951L306.542 170.279C308.214 168.717 310.12 167.451 312.313 166.582C314.506 165.717 316.756 165.316 319.063 165.316C321.199 165.316 323.162 165.66 324.839 166.352C326.511 167.045 327.896 167.91 328.933 169.009C330.318 170.394 331.245 171.894 331.818 173.623C332.396 175.3 332.631 177.493 332.631 180.087V197.462H332.574ZM324.782 189.67V183.899H321.199C320.105 183.899 319.126 183.957 318.141 184.128C317.162 184.3 316.355 184.535 315.662 184.878C314.969 185.227 314.391 185.686 313.985 186.207C313.584 186.727 313.35 187.42 313.35 188.17C313.35 189.264 313.756 190.134 314.62 190.826C315.485 191.519 316.584 191.863 317.912 191.863C319.063 191.863 320.219 191.691 321.376 191.342C322.469 190.884 323.626 190.363 324.782 189.67Z" fill="white"/>
<path d="M367.027 197.462H359.236V178.821C359.236 177.722 359.064 176.743 358.72 175.873C358.371 175.008 357.908 174.316 357.335 173.738C356.757 173.165 356.121 172.758 355.371 172.472C354.621 172.18 353.871 172.066 353.064 172.066C351.85 172.066 350.694 172.295 349.543 172.701C348.387 173.107 347.345 173.8 346.366 174.665V197.404H338.574V166.18H346.366L346.423 168.488C346.887 168.024 347.465 167.566 348.158 167.217C348.85 166.816 349.543 166.467 350.293 166.238C351.043 165.946 351.793 165.774 352.543 165.602C353.293 165.488 354.043 165.373 354.793 165.373C356.35 165.373 357.908 165.602 359.355 166.123C360.798 166.639 362.121 167.389 363.22 168.43C364.376 169.467 365.241 170.852 365.934 172.472C366.626 174.144 366.97 176.107 366.97 178.357V197.462H367.027Z" fill="white"/>
<path d="M398.313 197.462H390.521V195.79C389.135 196.712 387.693 197.347 386.193 197.748C384.63 198.097 383.073 198.269 381.458 198.269C379.958 198.269 378.573 198.04 377.359 197.576C376.146 197.118 375.052 196.483 374.188 195.613C373.26 194.748 372.568 193.769 372.109 192.613C371.646 191.462 371.359 190.191 371.359 188.748C371.359 186.957 371.76 185.457 372.51 184.128C373.26 182.8 374.359 181.707 375.688 180.842C377.016 179.972 378.573 179.279 380.359 178.878C382.151 178.415 384.057 178.243 386.13 178.243H390.635C390.635 176.394 390.057 174.951 388.844 173.858C387.635 172.759 385.958 172.238 383.708 172.238C382.609 172.238 381.516 172.415 380.359 172.816C379.208 173.222 378.052 173.915 376.896 174.951L372.281 170.279C373.953 168.717 375.859 167.451 378.052 166.582C380.245 165.717 382.495 165.316 384.807 165.316C386.943 165.316 388.901 165.66 390.578 166.352C392.25 167.045 393.635 167.91 394.677 169.009C396.063 170.394 396.984 171.894 397.563 173.623C398.135 175.3 398.37 177.493 398.37 180.087V197.462H398.313ZM390.521 189.67V183.899H386.943C385.844 183.899 384.865 183.957 383.88 184.128C382.901 184.3 382.094 184.535 381.401 184.878C380.708 185.227 380.13 185.686 379.724 186.207C379.323 186.727 379.089 187.42 379.089 188.17C379.089 189.264 379.495 190.134 380.359 190.826C381.229 191.519 382.323 191.863 383.651 191.863C384.807 191.863 385.958 191.691 387.057 191.342C388.208 190.884 389.365 190.363 390.521 189.67Z" fill="white"/>
<path d="M83.3438 161.795H85.1927V196.712H83.3438V161.795Z" fill="white"/>
<path d="M82.1934 160.696H86.2923V197.868H82.1934V160.696Z" fill="white"/>
<path d="M112.438 197.233C109.146 197.233 106.089 196.425 103.376 194.806C100.662 193.191 98.4694 190.998 96.8548 188.285C95.235 185.571 94.4277 182.571 94.4277 179.28C94.4277 175.993 95.235 172.931 96.8548 170.217C98.4694 167.509 100.662 165.316 103.376 163.696C106.089 162.082 109.146 161.274 112.438 161.274C115.902 161.274 119.074 162.139 121.902 163.931C124.73 165.717 126.923 168.082 128.48 171.03H126.287C124.844 168.66 122.943 166.696 120.516 165.316C118.094 163.868 115.438 163.181 112.495 163.181C109.553 163.181 106.839 163.931 104.412 165.373C101.99 166.816 100.027 168.774 98.584 171.201C97.1413 173.623 96.3913 176.337 96.3913 179.337C96.3913 182.285 97.1413 184.993 98.584 187.42C100.027 189.842 101.99 191.806 104.412 193.248C106.839 194.691 109.553 195.441 112.495 195.441C115.209 195.441 117.745 194.806 120.053 193.597C122.365 192.326 124.266 190.649 125.709 188.514H127.964C126.344 191.17 124.209 193.306 121.501 194.92C118.73 196.425 115.725 197.233 112.438 197.233Z" fill="white"/>
<path d="M112.439 198.326C108.918 198.326 105.684 197.462 102.798 195.732C99.9128 193.998 97.6055 191.691 95.8711 188.805C94.1419 185.92 93.2773 182.686 93.2773 179.222C93.2773 175.701 94.1419 172.472 95.8711 169.587C97.6055 166.696 99.9128 164.389 102.798 162.66C105.684 160.925 108.918 160.061 112.439 160.061C116.132 160.061 119.48 161.04 122.48 162.889C125.48 164.795 127.788 167.274 129.465 170.394L130.329 172.066H125.652L125.309 171.545C123.98 169.352 122.132 167.508 119.882 166.18C117.632 164.852 115.152 164.16 112.439 164.16C109.725 164.16 107.184 164.852 104.934 166.18C102.684 167.508 100.835 169.352 99.5065 171.602C98.1784 173.857 97.4857 176.394 97.4857 179.165C97.4857 181.878 98.1784 184.42 99.5065 186.67C100.835 188.92 102.684 190.769 104.934 192.092C107.184 193.42 109.725 194.113 112.439 194.113C114.975 194.113 117.345 193.54 119.423 192.383C121.559 191.227 123.345 189.613 124.673 187.649L125.017 187.191H129.866L128.829 188.92C127.158 191.748 124.845 194.055 121.96 195.732C119.132 197.462 115.902 198.326 112.439 198.326Z" fill="white"/>
<path d="M158.439 196.712H137.027V161.795H158.439V163.639H138.871V178.128H155.382V179.972H138.871V194.92H158.439V196.712Z" fill="white"/>
<path d="M159.589 197.811H135.928V160.696H159.589V164.738H140.027V176.972H156.475V181.071H140.027V193.769H159.589V197.811Z" fill="white"/>
<path d="M52.2923 68.1178C52.1777 66.7897 52.0632 65.4043 52.0059 64.0762H52.0632C52.1204 65.4043 52.1777 66.7897 52.2923 68.1178Z" fill="white"/>
<path d="M64.1251 85.5503C64.1251 85.2586 64.0678 85.2586 64.1251 85.5503Z" fill="white"/>
<path d="M223.6 15.5347L223.949 16.7482L223.829 15.769C223.829 15.4201 224.007 16.0555 224.236 16.6909C224.522 17.9618 224.522 18.3055 224.642 18.9982L225.392 21.5399C225.908 22.4618 224.121 14.6701 225.277 18.8263L225.507 20.1545C225.97 22.0607 226.543 24.6545 227.007 25.9253C227.064 27.9461 228.449 31.4097 228.043 31.8107C229.428 39.3159 231.855 49.0138 232.949 56.5711C233.527 57.7847 234.163 57.6701 235.262 60.8472C235.376 61.4774 235.491 62.519 235.376 62.1701L236.012 64.4253C235.72 63.0972 235.376 61.4774 235.376 60.8472C236.298 64.368 235.319 59.1701 235.548 59.4618L236.762 64.3055L236.704 63.7326C234.913 55.0138 233.413 46.243 231.684 37.467L231.626 37.2378L231.564 36.894C231.507 36.4878 231.392 36.0815 231.335 35.6805C230.699 34.3524 230.178 31.5243 229.491 27.8315C229.371 27.8315 229.371 28.1753 229.027 26.9045C227.986 21.019 228.392 23.9618 227.293 19.8055C227.585 21.1336 227.928 22.7534 227.986 23.3836L226.142 15.3055C226.199 16.4618 226.199 17.4409 225.736 16.1128C225.507 17.0347 224.465 14.4409 223.892 13.5138C224.178 14.9618 224.35 16.1701 224.408 16.6909C224.178 16.519 223.829 15.1909 223.428 13.4565C223.428 13.3993 223.428 13.342 223.371 13.2847C223.314 13.342 223.257 13.342 223.199 13.3993L223.715 15.8263C223.715 15.9982 223.658 15.8263 223.6 15.5347Z" fill="white"/>
<path d="M247.609 112.561C247.266 111.003 246.917 109.441 246.516 107.941C245.417 103.269 244.38 98.7636 243.396 94.3782C243.052 94.5501 241.896 91.2063 242.703 95.8209C243.51 98.9355 244.203 102.17 244.839 105.347C245.13 106.904 245.474 108.462 245.703 109.904C245.88 110.826 246.109 111.925 246.224 112.847C246.281 113.311 246.339 113.774 246.339 114.232C246.339 114.462 246.396 114.696 246.396 114.868L245.88 115.331C244.552 116.54 243.052 117.409 241.667 117.982C240.51 118.503 239.474 118.795 238.604 118.967C236.875 119.311 235.776 119.253 235.604 119.024C237.219 118.738 238.839 118.217 240.339 117.524C237.51 118.561 234.568 118.909 231.682 118.795C229.833 118.967 227.984 119.024 226.141 118.618C225.505 118.274 225.042 117.982 224.755 117.753C224.464 117.524 224.349 117.352 224.349 117.29C223.021 116.54 221.984 115.503 221.292 114.29C220.599 113.081 220.313 111.753 220.078 110.253C219.849 108.805 219.62 107.363 219.443 105.92C219.214 104.191 218.984 102.519 218.75 100.784C217.943 100.383 216.964 99.9199 216.099 99.5136C215.635 99.3418 215.172 99.1126 214.714 98.9355L213.557 98.4772C211.943 97.8991 210.266 97.3782 208.536 97.0345C203.109 96.4564 197.339 96.9772 190.297 97.3782L190.182 95.8209L189.719 95.8782L189.833 97.4355C187.755 97.6126 185.505 97.7272 183.141 98.0136L183.313 98.3626C171.536 100.206 159.589 103.842 147.354 107.883C135.12 111.868 122.536 116.368 109.318 119.545C102.682 121.102 95.9271 122.373 89.0625 122.831C82.1927 123.352 75.151 123.123 68.2813 121.909C67.4167 121.738 66.5521 121.566 65.6823 121.389C65.0521 121.274 64.5313 121.102 63.9531 120.988L63.5469 120.873L63.3177 120.811C63.2604 120.811 63.2604 120.696 63.2604 120.639L63.0885 119.774L62.7396 117.753C62.1042 114.232 61.4688 110.654 60.776 107.076C60.4323 105.284 60.1458 103.498 59.7969 101.706C59.5104 99.9199 59.2187 98.1282 58.9323 96.2845C58.7031 94.7272 58.4687 93.1647 58.2396 91.6647L58.1823 91.722L57.4896 87.2793L89.7552 74.8105C89.4635 73.1959 89.2344 71.6386 88.9427 70.0814C88.8281 69.2689 88.6563 68.4616 88.5417 67.597C88.4271 66.9043 88.3073 66.2116 88.1927 65.5189L87.9635 64.0189V64.597L86.9844 59.6907C86.75 59.3991 87.5 64.6543 86.75 61.0761C86.75 61.7689 87.0417 63.3834 87.2708 64.7116L86.6927 62.4616C86.8073 62.8053 86.6927 61.7689 86.6354 61.1334C86.4063 60.3261 86.1719 59.6907 85.9427 59.2272C85.599 57.2636 85.3073 55.3053 85.0208 53.3991C84.7292 53.5136 84.4427 53.6282 84.1563 53.7428C84.099 53.2845 84.0365 52.8209 83.9792 52.3574C80.2865 53.8626 76.1302 55.8782 72.6667 57.1491C70.3594 58.0189 65.974 59.6907 63.6667 60.5553C61.6458 61.3053 62.6823 60.1543 60.6615 60.9043L59.1615 61.7116L59.2188 61.4199L56.5052 62.4616C56.5677 62.8053 56.6823 63.1543 56.7396 63.5553C56.6823 63.1543 56.625 62.8053 56.5052 62.4616L56.276 62.5189L53.3333 63.6751C52.4115 58.6491 51.4844 53.6855 50.6198 48.722L52.4115 50.7428C50.3333 41.0449 48.1406 30.7741 45.9427 20.6178C47.2708 21.3105 48.7708 21.9407 50.6198 22.6907C53.9115 24.0188 57.3177 25.0605 60.7188 25.8678C67.3021 27.4824 73.9375 28.0032 80.1146 27.8886C80.0573 27.597 80.0573 27.3678 80 27.0813C80.6354 27.0813 81.2708 27.0241 81.9583 27.0241C84.849 26.9043 87.9635 26.6751 91.1354 26.2741C99.1615 25.2897 107.646 23.6178 114.052 22.2324L112.839 22.8678C95.1198 26.7324 114.109 22.7532 107.068 25.2324C106.031 25.5188 104.99 25.7532 104.01 25.9824L105.854 25.8678L108.917 25.0605C108.625 25.347 108.917 25.5813 106.031 26.2116L110.182 25.4043C114.745 24.9459 117.109 24.8886 118.151 25.1178C119.245 25.347 119.073 25.9251 118.667 26.6178C119.823 26.2741 119.708 25.9824 120.573 25.4616C121.438 25.0032 123.286 24.3678 128.25 23.1543L127.094 23.847C130.615 22.6334 134.135 21.3678 137.599 20.097L142.448 19.0553C146.141 17.6126 148.51 16.5761 152.375 15.3626L153.302 14.2688C157.573 12.8209 162.13 11.2063 166.75 9.41989C171.307 7.68551 175.984 6.01364 180.656 4.85739C185.333 3.70634 190.125 3.2428 194.682 3.52926C196.99 3.70634 199.245 4.05009 201.38 4.57093C201.839 4.68551 202.245 4.80009 202.589 4.97197C202.646 5.43551 202.766 5.89905 202.823 6.35739C203.224 7.28447 203.63 8.6126 203.974 10.1699C204.266 11.3209 204.552 12.5918 204.844 13.9199C205.016 14.6699 205.245 15.3626 205.417 16.1126C205.536 16.4616 205.651 16.8626 205.766 17.2688L205.938 17.847L205.995 18.0188C205.995 18.0761 206.109 18.0188 206.109 18.0188H206.401C208.073 18.0761 209.75 18.1334 211.594 18.0188C212.516 17.9616 213.443 17.847 214.365 17.6699C215.057 17.5553 215.75 17.3834 216.443 17.1543C218.75 16.4616 221.12 15.248 223.078 13.5761L223.021 13.2845C221.87 13.9199 220.656 14.4407 219.443 14.8418C218 15.4199 216.214 15.9407 214.25 16.2845C213.094 16.4616 211.766 16.6334 210.443 16.6334C209.807 16.6334 209.115 16.6334 208.479 16.6334C208.13 16.6334 207.786 16.6334 207.438 16.5761H207.094C207.036 16.5761 207.036 16.5761 207.036 16.5188L206.922 15.998C206.573 14.6699 206.229 13.2845 205.88 11.7845C205.594 10.5709 205.359 9.3626 205.073 8.09176C204.844 7.05009 204.609 6.01364 204.38 4.91468C204.266 4.51364 204.208 4.10739 204.094 3.70634C204.094 3.41468 203.802 3.47197 203.63 3.41468L202.995 3.2428C202.589 3.12822 202.188 3.01364 201.724 2.89384C201.146 2.77926 200.51 2.60738 199.938 2.4928C198.724 2.32093 197.51 2.08655 196.24 1.97197C193.76 1.68551 191.276 1.62822 188.854 1.80009C183.948 2.08655 179.214 3.12822 175 4.27926L175.521 3.64384C179.042 2.55009 181.583 1.50843 186.141 1.16468L187.24 0.300093C185.219 -0.220739 182.156 -0.0488649 178.698 0.701135C175.234 1.45114 171.422 2.77926 167.786 4.33655C160.573 7.45634 153.589 10.748 150.411 11.6126C143.776 13.5136 145.797 12.3626 148.682 11.0918C151.568 9.76364 155.26 8.26364 152.203 9.41989C159.13 6.41468 156.01 7.05009 150.354 8.55009C144.755 10.0553 136.563 12.248 133.385 12.7636C124.729 14.498 111.224 18.1334 96.9115 20.1543C96.0417 20.2688 95.1198 20.3834 94.1979 20.5553L91.4844 20.847C89.6927 21.0761 87.9063 21.1907 86.1146 21.3053C84.2708 21.4251 82.4219 21.4824 80.6354 21.4824C80.5781 21.4824 80.5781 21.4824 80.5156 21.4824C80.6927 22.347 80.8073 23.2116 80.8073 23.6178L80.401 21.4824C79.8229 21.4824 79.1927 21.4824 78.6146 21.4824C78.5 21.4824 78.4375 21.4824 78.3229 21.4824C78.3229 21.7688 78.3229 21.8834 78.2083 21.7116L78.151 21.4824C77.2865 21.4824 76.4792 21.4251 75.6719 21.3678C68.9167 20.9043 62.625 19.5761 57.4323 17.7272C56.3333 17.3834 55.2396 17.0345 54.1406 16.6334C53.5052 16.4043 53.276 16.4043 51.9479 15.7688C50.9063 15.248 49.8125 14.7272 48.7708 14.2063C46.6979 13.2845 44.4427 11.9563 42.3073 10.8053C40.2292 9.64905 38.0937 8.4928 36.0156 7.34176L36.0729 7.91989L36.1354 8.26364L36.4219 8.09176C36.4219 8.14905 36.4219 8.09176 36.4219 8.03447V8.14905L36.7083 9.59176C36.8854 10.5136 37.0573 11.498 37.2292 12.4199C37.401 13.3418 37.5781 14.3261 37.75 15.248L38.0365 16.6334C38.0937 16.8626 38.0937 17.097 38.151 17.3261L38.2083 17.498C38.3281 17.5553 38.0365 17.3834 38.3281 17.6126L39.1927 18.1907L40.8646 19.347L42.5417 20.498C42.8854 20.7324 43.1146 20.9043 43 20.847C42.9427 20.9043 42.9427 21.0188 42.8854 21.0761C42.25 22.2897 41.6146 23.5032 40.9792 24.7116L40.0573 26.5605C40 26.6178 39.9427 26.7324 39.9427 26.7897L40 26.9668L40.0573 27.3678L40.2292 28.1751C41.0417 32.5032 41.849 36.8938 42.6563 41.2793C43.4635 45.722 44.2135 50.1647 45.0208 54.6126C46.1198 60.7272 47.1563 66.9043 48.2552 73.0241C48.4844 72.9095 48.7135 72.8522 48.9479 72.7324C48.9479 72.7324 48.9479 72.7324 48.9479 72.7897C49.9844 72.3886 51.1406 71.9824 52.3542 71.5241C52.3542 71.5814 52.3542 71.5814 52.3542 71.6386C54.0833 71.0032 55.7552 70.4251 57.375 69.7897C55.6979 70.3678 54.026 71.0032 52.3542 71.5814V71.5241C58.3542 69.3314 65.8594 66.6751 71.1094 64.7116C72.0938 64.3678 73.0729 63.9616 74.0521 63.6126C74.8594 63.3261 75.6719 62.9824 76.4792 62.6907C77.6875 62.1699 78.901 61.7116 80.1146 61.248C80.6927 64.3678 81.2708 67.3678 81.8438 70.4251C80.8646 70.8886 79.9427 71.2897 78.9583 71.7532L77.6302 72.3314L74.6875 74.0032L72.4375 75.1595C70.1875 76.2532 68.6875 76.7168 66.8385 77.4095C67.3594 76.8886 68.4531 75.8522 68.6302 75.7376C66.6667 76.4876 61.9896 78.9095 60.0833 79.6595C58.9896 80.123 57.6615 80.6439 56.3906 81.2168V81.1022C54.4896 81.8522 52.6406 82.6022 50.7344 83.2949C51.3698 86.8157 52.0052 90.2793 52.5833 93.5709C52.9844 95.8782 53.3333 98.1282 53.6771 100.206C53.9688 102.284 54.1979 104.248 54.4271 105.977C54.6042 107.712 54.7187 109.326 54.6615 110.654L56.0469 118.738L57.2552 125.316L57.4323 126.238C57.6615 126.409 58.0104 126.409 58.2969 126.529L60.1458 126.988C61.3542 127.279 62.625 127.623 63.8385 127.915L66.0885 128.373C66.7813 128.545 67.5313 128.665 68.224 128.779C69.6667 129.066 71.0521 129.238 72.4948 129.415C75.3802 129.758 78.2083 129.93 81.0938 129.988L80.3438 130.394C88.7708 130.566 97.3125 129.415 105.568 127.623C113.88 125.779 121.958 123.295 129.807 120.696C145.51 115.389 160.458 109.618 174.542 106.383C182.448 104.597 186.833 103.67 190.469 103.269C192.203 103.149 193.76 103.149 195.547 103.383C199.068 103.212 202.589 103.149 205.938 103.498C207.615 103.67 209.229 103.962 210.844 104.363C211.25 104.477 211.651 104.597 212.057 104.712L212.922 104.998C213.271 105.113 213.385 105.17 213.557 105.227L213.672 105.576L213.729 105.805L213.901 106.555C214.193 107.769 214.479 109.04 214.771 110.253L215.229 112.154C215.406 112.79 215.578 113.482 215.922 114.404C216.557 116.081 217.599 117.696 218.927 118.967C220.25 120.295 221.87 121.217 223.484 121.852C225.099 122.43 226.719 122.717 228.276 122.831C231.333 123.008 234.161 122.659 236.932 121.909C238.318 121.566 239.703 121.045 241.031 120.409C241.375 120.238 241.667 120.123 242.01 119.946L242.589 119.602C242.818 119.488 243.052 119.311 243.224 119.196C244.089 118.675 244.896 118.102 245.646 117.467C246.396 116.831 247.089 116.196 247.667 115.503C247.844 114.462 247.724 113.482 247.609 112.561ZM84.849 53.6855C85.0781 55.1282 85.3646 56.6907 85.599 58.4199C85.1927 57.7272 84.849 57.4407 84.5573 56.748C84.4427 55.8209 84.3281 54.8991 84.2135 53.9772C84.4427 53.8626 84.6719 53.8053 84.849 53.6855Z" fill="white"/>
</svg>
