<svg width="341" height="227" viewBox="0 0 341 227" fill="none" xmlns="http://www.w3.org/2000/svg">
<path d="M64.838 0.824218C51.2026 3.74609 39.0255 15.3138 34.7651 29.3138C32.7547 35.8867 32.0828 43.3138 32.8745 50.194C34.213 62.2513 37.687 69.918 45.2963 77.5898C53.2703 85.569 60.2078 88.6732 71.2911 89.2201C83.2859 89.8294 92.4786 86.543 100.208 78.8086C103.677 75.2773 108.364 68.7044 108.364 67.3659C108.364 67.1784 107.27 66.3294 105.989 65.4753L103.557 63.8346L101.609 67.3659C98.9318 72.0534 93.0255 77.8346 88.7651 79.9023C81.5776 83.4336 71.9578 83.4336 65.0203 79.9023C53.5724 74.1211 47.5463 57.1367 49.8588 37.0482C51.5672 22.4336 57.4109 12.3294 66.9057 7.64193C70.6193 5.8138 71.2911 5.69401 77.3172 5.69401C82.5516 5.69401 84.3797 5.99609 87.1818 7.09505C91.3172 8.79818 95.8849 12.694 98.9318 17.2617C100.145 19.0846 101.302 20.6107 101.546 20.6107C101.791 20.6107 102.947 19.819 104.104 18.9023L106.114 17.1992L104.223 14.3971C99.5984 7.70442 91.8068 2.52734 83.7078 0.824218C78.5359 -0.274739 69.7703 -0.274739 64.838 0.824218Z" fill="white"/>
<path d="M121.76 44.6572V87.5739L148.426 87.4541L175.031 87.2718L175.213 84.0426L175.395 80.876H137.588L137.708 63.3447L137.89 45.8708L155.119 45.6885L172.291 45.5687V39.4801H137.588L137.708 23.7718L137.89 8.12598L156.645 7.94369L175.333 7.82389V1.73535H121.76V44.6572Z" fill="white"/>
<path d="M192.562 18.7197C179.838 23.1051 172.838 37.5322 176.245 52.1416C176.734 54.2145 177.708 57.0739 178.437 58.4749C180.385 62.3083 185.562 67.4229 189.641 69.4958C192.864 71.1364 194.021 71.3812 199.38 71.626C206.323 71.8708 210.521 70.7093 215.026 67.3031C217.521 65.3551 221.599 60.0583 221.599 58.7197C221.599 57.6833 218.984 56.1624 218.677 57.0739C218.13 58.6572 214.417 62.9801 211.984 64.8083C207.172 68.5218 199.078 68.8239 194.146 65.4749C191.224 63.527 188.302 59.3864 187.203 55.7354C185.682 50.8656 185.38 42.402 186.536 37.1051C188.729 26.8187 193.599 21.4593 201.51 20.7926C206.989 20.3031 210.521 21.7666 214.542 26.1468C217.583 29.4958 217.948 29.7406 219.104 29.0114C219.833 28.5843 220.385 27.9749 220.385 27.6676C220.385 27.3656 218.802 25.5374 216.911 23.652C212.224 19.027 208.328 17.5635 201.026 17.5635C197.552 17.626 194.63 17.9906 192.562 18.7197Z" fill="white"/>
<path d="M333.438 23.5322C331.975 25.1155 332.157 28.2197 333.74 29.7405C337.579 33.2717 342.995 28.1572 339.949 23.7717C338.735 22.0686 334.897 21.8863 333.438 23.5322Z" fill="white"/>
<path d="M231.344 36.8604C229.089 37.652 228.906 38.751 228.906 53.4854C228.906 65.4749 229.089 68.0322 229.88 69.1885C230.792 70.4697 231.161 70.527 241.448 70.527C251.495 70.527 252.042 70.4697 252.042 69.3708C252.042 68.277 251.432 68.1572 244.734 67.9697C239.01 67.8499 237.245 67.6051 236.823 66.876C236.516 66.3916 236.214 63.2822 236.214 59.9958V54.0895H242.604C248.995 54.0895 248.995 54.0895 248.995 52.5687C248.995 51.1104 248.937 51.1104 242.786 50.9281L236.516 50.7458L236.333 46.3604C236.089 39.5426 236.151 39.4801 244.432 39.4801H251.432V36.4385L241.875 36.4958C236.578 36.4958 231.828 36.6781 231.344 36.8604Z" fill="white"/>
<path d="M260.562 53.4229V70.527H267.87V55.0635C267.87 45.2041 268.115 39.4176 268.479 39.1781C268.844 38.9333 270.609 38.9958 272.495 39.2354C277 39.7874 278.828 41.3656 279.255 45.0791C279.865 50.3187 278.281 52.6312 273.594 53.4229L271.464 53.7874L275.542 62.126L279.682 70.527H288.63L284.307 62.3083C280.474 55.0635 280.104 54.0322 281.078 53.7249C284.063 52.8135 285.036 52.1416 286.193 50.3187C287.901 47.5166 287.531 42.5843 285.464 40.3343C282.542 37.1676 281.078 36.8031 270.49 36.5583L260.562 36.3135V53.4229Z" fill="white"/>
<path d="M296.484 53.4229V70.527H304.396V38.8708H305.797C309.146 38.9958 312.557 40.027 314.016 41.5531C315.354 42.8291 315.599 43.6833 315.599 46.4229C315.599 50.501 313.953 52.6937 310.365 53.2406C309.083 53.4854 308.052 53.7874 308.052 54.0322C307.99 54.2145 309.755 57.9854 311.823 62.4333L315.661 70.4697H320.104C322.479 70.527 324.49 70.3447 324.49 70.0426C324.49 69.7979 322.599 66.1468 320.349 61.9437L316.208 54.2718L318.641 53.1156C322.052 51.5322 323.51 49.2822 323.51 45.6885C323.51 42.0999 321.87 39.5426 318.583 37.8968C316.693 36.9229 314.505 36.6781 306.406 36.5583L296.484 36.3135V53.4229Z" fill="white"/>
<path d="M333.01 53.4854V70.527H340.317V36.4385H333.01V53.4854Z" fill="white"/>
<path d="M132.719 90.069C91.8073 93.418 49.4375 112.595 12.3594 144.439C3.41146 152.168 0 155.882 0 158.012C0 162.882 31.0521 187.6 52.1771 199.533C75.6146 212.741 101.792 221.512 128.151 224.918C139.047 226.382 160.297 226.382 170.156 224.918C209.609 219.257 245.589 201.361 280.411 169.944L286.01 164.954L291.734 171.465C302.995 184.251 314.016 198.439 325.401 214.814C328.932 219.986 332.583 224.616 333.438 225.043C335.26 226.017 337.453 225.59 339.099 223.944C340.318 222.725 340.318 221.632 340.318 158.012C340.318 87.0273 340.557 91.168 336.724 90.3138C335.63 90.069 334.286 90.2565 333.375 90.7409C332.583 91.168 328.932 95.793 325.401 100.97C314.135 117.163 303.12 131.408 292.036 144.012C288.995 147.48 286.318 150.283 286.01 150.283C285.708 150.283 282.542 147.663 278.948 144.496C233.776 104.559 183.672 85.9336 132.719 90.069ZM171.255 101.272C201.083 105.96 229.089 118.382 256.182 138.96C264.766 145.413 278.219 156.975 278.219 157.829C278.219 158.986 261.781 172.746 252.104 179.746C220.26 202.699 187.51 214.507 151.896 215.788C130.708 216.579 110.677 212.923 91.9271 204.892L86.1458 202.392V154.236L91.2604 153.751C101.302 152.84 108.307 150.34 108.365 147.543C108.365 146.871 109.156 145.897 110.193 145.288C111.411 144.621 111.896 143.949 111.656 143.34C111.167 142.121 106.724 142.064 98.0156 143.277C94.4844 143.767 90.3438 144.194 88.7656 144.194H85.8385V135.121C85.8385 127.574 85.6563 125.928 84.8646 125.262C84.0156 124.59 83.7708 124.59 83.099 125.501C82.3125 126.658 80.0573 126.902 79.4479 125.928C78.2292 123.918 77.8646 126.053 77.9896 134.939C78.1094 140.236 77.9271 144.861 77.6823 145.288C77.4375 145.715 76.526 146.017 75.6719 146.017C73.6042 146.017 57.6563 149.611 57.0469 150.22C56.8021 150.465 57.2865 151.314 58.1406 152.105C58.9948 152.897 59.6615 153.996 59.6615 154.605C59.6615 156.309 61.7917 156.553 69.8281 155.699C75.8542 155.09 77.5 155.09 77.8646 155.699C78.4115 156.553 79.3854 197.704 78.901 198.194C78.4115 198.678 72.5677 195.272 63.9219 189.548C55.1563 183.704 42.25 173.475 32.026 164.283L24.901 157.892L27.8229 155.272C48.0365 137.251 61 127.449 76.0417 118.928C92.6615 109.553 112.203 103.1 130.281 101.027C133.448 100.663 136.917 100.241 137.891 100.116C141.911 99.569 165.594 100.361 171.255 101.272ZM327.531 158.012C327.531 203.001 327.469 203.548 326.313 202.027C325.703 201.178 321.807 195.21 317.667 188.694C308.839 174.694 302.63 165.803 298.615 161.361C296.542 159.048 295.813 157.829 296.24 157.283C296.542 156.855 298.37 154.663 300.318 152.35C303.786 148.272 309.573 139.751 321.323 121.423C324.49 116.491 327.167 112.538 327.286 112.538C327.411 112.538 327.531 132.991 327.531 158.012Z" fill="white"/>
</svg>
