<svg width="462" height="221" viewBox="0 0 462 221" fill="none" xmlns="http://www.w3.org/2000/svg">
<mask id="mask0_23_2347" style="mask-type:luminance" maskUnits="userSpaceOnUse" x="0" y="0" width="115" height="221">
<path d="M0 0H114.563V220.891H0V0Z" fill="white"/>
</mask>
<g mask="url(#mask0_23_2347)">
<path d="M60.1297 220.859H53.2443V94.6042C53.2443 87.9896 51.7182 78.5885 47.3693 70.5156C37.364 74.7656 28.114 78.0833 20.6765 78.0833C13.2338 78.0833 7.6505 76.2083 4.00988 72.5156C1.43175 69.9063 0.0411246 66.4844 0.0932086 62.8854C0.192166 55.7188 5.6505 47.3542 20.6661 47.3542C32.838 47.3542 42.9318 52.3594 50.0203 61.8698C51.3536 61.2865 52.6765 60.6927 54.0099 60.1094C55.5047 59.4531 57.0047 58.7865 58.5099 58.125C58.3015 57.6667 58.1036 57.2031 57.9109 56.724C53.2547 45.2917 53.2547 32.0208 53.2547 24.0885V0H60.1349V24.0781C60.1349 31.5104 60.1349 43.9375 64.2859 54.125C64.463 54.5573 64.6453 54.9948 64.838 55.4115C74.8745 51.2083 84.6245 47.8125 92.5307 47.8125C102.421 47.8125 107.598 51.0625 110.197 53.7865C112.687 56.401 113.979 59.7188 113.822 63.125C113.499 70.2396 107.567 78.5469 91.9474 78.5469C83.0151 78.5469 75.4838 76.3802 69.5515 72.1146C66.5932 69.9896 64.0255 67.3333 61.8693 64.1771C60.1765 64.9167 58.489 65.6667 56.7963 66.4063C55.7599 66.8646 54.739 67.3177 53.7182 67.7656C57.8224 75.5729 60.1297 85.125 60.1297 94.6042V220.859ZM68.3432 61.401C73.5672 68.2917 81.3588 71.6667 91.9474 71.6667C105.489 71.6667 106.859 64.8854 106.947 62.8073C107.015 61.3021 106.406 59.7865 105.223 58.5417C102.859 56.0677 98.3484 54.7031 92.5307 54.7031C85.9995 54.7031 77.4005 57.651 68.3536 61.4115L68.3432 61.401ZM20.6765 54.2448C17.489 54.2448 7.09321 54.875 6.97342 62.9896C6.95779 64 7.19217 65.9583 8.91092 67.6979C11.1765 70 15.239 71.2188 20.6765 71.2188C26.5984 71.2188 34.7963 68.3333 43.489 64.6979C38.463 58.599 31.1297 54.25 20.6765 54.25V54.2448Z" fill="white"/>
</g>
<path d="M107.615 152.005L89.3438 104.448H97.901L111.792 141.849L125.141 104.448H133.531L115.729 152.005H107.615Z" fill="white"/>
<path d="M142.844 112.37C141.51 112.37 140.354 111.938 139.38 111.078C138.401 110.219 137.922 109.094 137.922 107.714C137.922 106.328 138.401 105.172 139.38 104.297C140.354 103.422 141.505 102.99 142.844 102.99C144.187 102.99 145.339 103.422 146.313 104.297C147.286 105.172 147.771 106.302 147.771 107.714C147.771 109.12 147.286 110.214 146.313 111.078C145.339 111.938 144.177 112.37 142.844 112.37ZM139.109 152.016V118.386H146.589V152.016H139.109Z" fill="white"/>
<path d="M170.943 153.031C167.656 153.031 164.745 152.255 162.193 150.708C159.641 149.156 157.661 147.042 156.234 144.359C154.813 141.677 154.094 138.625 154.094 135.203C154.094 132.734 154.5 130.417 155.318 128.25C156.135 126.083 157.292 124.193 158.802 122.563C160.307 120.927 162.094 119.651 164.167 118.734C166.245 117.818 168.531 117.359 171.052 117.359C174.109 117.359 176.755 117.969 179 119.193C181.24 120.422 183.109 122.12 184.609 124.292L183.042 125.958V103.094H190.516V152.016H183.792V143.932L184.875 145.635C183.651 147.766 181.901 149.526 179.625 150.932C177.349 152.333 174.458 153.042 170.943 153.042V153.031ZM172.302 146.406C174.385 146.406 176.234 145.948 177.859 145.031C179.474 144.115 180.75 142.818 181.682 141.141C182.609 139.469 183.073 137.484 183.073 135.203C183.073 132.917 182.609 130.927 181.682 129.245C180.755 127.563 179.484 126.26 177.859 125.354C176.24 124.443 174.385 123.995 172.302 123.995C170.219 123.995 168.365 124.443 166.76 125.354C165.151 126.26 163.885 127.552 162.953 129.245C162.026 130.938 161.557 132.917 161.557 135.203C161.557 137.484 162.026 139.469 162.953 141.141C163.875 142.818 165.151 144.115 166.776 145.031C168.391 145.948 170.234 146.406 172.292 146.406H172.302Z" fill="white"/>
<path d="M210.246 153.031C207.913 153.031 205.866 152.599 204.1 151.724C202.329 150.849 200.954 149.615 199.975 148.026C198.991 146.427 198.496 144.542 198.496 142.365C198.496 140.536 198.965 138.875 199.892 137.391C200.814 135.911 202.267 134.682 204.225 133.708C206.178 132.734 208.699 132.083 211.783 131.76C214.866 131.432 218.553 131.484 222.855 131.911L223.022 137.078C219.939 136.641 217.288 136.469 215.074 136.536C212.855 136.599 211.033 136.875 209.621 137.37C208.204 137.849 207.163 138.5 206.496 139.302C205.829 140.099 205.496 141.026 205.496 142.068C205.496 143.698 206.079 144.958 207.246 145.844C208.413 146.724 210.012 147.167 212.053 147.167C213.798 147.167 215.361 146.849 216.746 146.219C218.132 145.583 219.22 144.693 220.022 143.531C220.819 142.375 221.23 141.016 221.23 139.458V130.526C221.23 129.036 220.902 127.734 220.262 126.635C219.621 125.536 218.652 124.688 217.371 124.068C216.09 123.458 214.491 123.151 212.564 123.151C210.798 123.151 209.053 123.417 207.329 123.953C205.605 124.484 203.965 125.318 202.408 126.453L200.298 120.953C202.408 119.526 204.6 118.521 206.887 117.927C209.173 117.339 211.371 117.047 213.48 117.047C216.605 117.047 219.277 117.536 221.512 118.521C223.746 119.505 225.46 120.984 226.663 122.969C227.861 124.953 228.46 127.443 228.46 130.458V152.031H221.736V148.057C220.605 149.667 219.027 150.901 217.012 151.755C214.996 152.615 212.746 153.047 210.257 153.047L210.246 153.031Z" fill="white"/>
<path d="M256.031 152.005V104.448H286.781V111.172H263.651V124.01H283.62V130.359H263.651V145.208H286.99V152H256.042L256.031 152.005Z" fill="white"/>
<path d="M292.59 124.563V118.38H300.944V124.563H292.59ZM310.793 153.026C307.512 153.026 304.887 152.073 302.913 150.177C300.944 148.276 299.954 145.359 299.954 141.443V108.562H307.428V118.38H316.767V124.563H307.428V139.818C307.428 142.177 307.876 143.833 308.772 144.792C309.663 145.76 310.928 146.234 312.559 146.234C313.35 146.234 314.1 146.141 314.803 145.958C315.501 145.776 316.137 145.542 316.704 145.24L318.027 151.292C317.053 151.792 315.934 152.198 314.678 152.531C313.418 152.859 312.126 153.026 310.788 153.026H310.793Z" fill="white"/>
<path d="M340.859 153.031C337.234 153.031 334.047 152.292 331.307 150.807C328.568 149.323 326.432 147.25 324.901 144.573C323.375 141.901 322.609 138.802 322.609 135.265C322.609 132.682 323.052 130.302 323.932 128.12C324.818 125.937 326.057 124.036 327.667 122.427C329.276 120.818 331.156 119.578 333.323 118.693C335.49 117.812 337.849 117.37 340.406 117.37C343.188 117.37 345.672 117.859 347.849 118.844C350.021 119.828 351.828 121.203 353.266 122.969C354.703 124.734 355.724 126.802 356.323 129.167C356.922 131.536 357.021 134.109 356.615 136.89H329.776C329.734 138.885 330.167 140.635 331.099 142.14C332.026 143.651 333.359 144.818 335.089 145.656C336.823 146.5 338.865 146.917 341.224 146.917C343.125 146.917 344.964 146.625 346.74 146.052C348.516 145.474 350.13 144.614 351.578 143.484L354.474 148.849C353.391 149.734 352.073 150.484 350.531 151.109C348.99 151.734 347.38 152.208 345.708 152.531C344.031 152.859 342.417 153.026 340.849 153.026L340.859 153.031ZM330.224 131.359H349.281C349.214 128.828 348.406 126.833 346.849 125.401C345.297 123.958 343.089 123.245 340.24 123.245C337.391 123.245 335.182 123.958 333.359 125.401C331.531 126.844 330.49 128.828 330.219 131.359H330.224Z" fill="white"/>
<path d="M364.396 152.005V118.38H371.87V123.036C373.136 120.927 374.678 119.453 376.485 118.604C378.298 117.755 380.245 117.328 382.329 117.328C383.011 117.328 383.652 117.359 384.261 117.427C384.87 117.495 385.459 117.594 386.027 117.734L385.042 125.443C384.36 125.245 383.667 125.083 382.969 124.969C382.271 124.854 381.563 124.802 380.86 124.802C378.256 124.802 376.105 125.604 374.402 127.193C372.704 128.792 371.855 130.969 371.855 133.734V152.005H364.381H364.396Z" fill="white"/>
<path d="M392.286 152.005V118.38H399.76V122.661C401.156 120.776 402.792 119.427 404.651 118.604C406.51 117.776 408.432 117.359 410.422 117.359C413.505 117.359 416.047 117.969 418.068 119.193C420.083 120.422 421.583 121.995 422.563 123.917C423.547 125.844 424.042 127.828 424.042 129.859V152.005H416.568V132.203C416.568 129.776 415.849 127.854 414.406 126.411C412.964 124.969 410.974 124.25 408.406 124.25C406.734 124.25 405.24 124.62 403.943 125.354C402.641 126.083 401.615 127.125 400.865 128.458C400.115 129.792 399.74 131.333 399.74 133.078V152H392.266L392.286 152.005Z" fill="white"/>
<mask id="mask1_23_2347" style="mask-type:luminance" maskUnits="userSpaceOnUse" x="430" y="115" width="32" height="39">
<path d="M430.562 115.792H461.776V153.125H430.562V115.792Z" fill="white"/>
</mask>
<g mask="url(#mask1_23_2347)">
<path d="M443.447 153.031C441.114 153.031 439.062 152.599 437.296 151.724C435.531 150.849 434.156 149.615 433.171 148.026C432.187 146.427 431.697 144.542 431.697 142.365C431.697 140.536 432.161 138.875 433.088 137.391C434.015 135.911 435.463 134.682 437.421 133.708C439.38 132.734 441.895 132.083 444.979 131.76C448.062 131.432 451.755 131.484 456.051 131.911L456.218 137.078C453.135 136.641 450.484 136.469 448.27 136.536C446.051 136.599 444.229 136.875 442.822 137.37C441.406 137.849 440.364 138.5 439.697 139.302C439.031 140.099 438.697 141.026 438.697 142.068C438.697 143.698 439.281 144.958 440.447 145.844C441.614 146.724 443.213 147.167 445.255 147.167C446.994 147.167 448.562 146.849 449.942 146.219C451.327 145.583 452.421 144.693 453.218 143.531C454.02 142.375 454.426 141.016 454.426 139.458V130.526C454.426 129.036 454.104 127.734 453.463 126.635C452.817 125.536 451.854 124.688 450.567 124.068C449.286 123.458 447.687 123.151 445.76 123.151C443.994 123.151 442.255 123.417 440.531 123.953C438.807 124.484 437.161 125.318 435.604 126.453L433.494 120.953C435.604 119.526 437.796 118.521 440.088 117.927C442.369 117.339 444.572 117.047 446.676 117.047C449.801 117.047 452.479 117.536 454.713 118.521C456.942 119.505 458.661 120.984 459.859 122.969C461.062 124.953 461.661 127.443 461.661 130.458V152.031H454.937V148.057C453.801 149.667 452.229 150.901 450.213 151.755C448.197 152.615 445.947 153.047 443.452 153.047L443.447 153.031Z" fill="white"/>
</g>
</svg>
