<svg width="1014" height="176" viewBox="0 0 1014 176" fill="none" xmlns="http://www.w3.org/2000/svg">
<mask id="mask0_44_2708" style="mask-type:luminance" maskUnits="userSpaceOnUse" x="0" y="0" width="1014" height="176">
<path d="M1013.33 0H0V176H1013.33V0Z" fill="white"/>
</mask>
<g mask="url(#mask0_44_2708)">
<mask id="mask1_44_2708" style="mask-type:luminance" maskUnits="userSpaceOnUse" x="0" y="0" width="1013" height="176">
<path d="M0.796875 0.421875H1012.54V175.214H0.796875V0.421875Z" fill="white"/>
</mask>
<g mask="url(#mask1_44_2708)">
<mask id="mask2_44_2708" style="mask-type:luminance" maskUnits="userSpaceOnUse" x="0" y="0" width="1014" height="176">
<path d="M1013.33 0H0V176H1013.33V0Z" fill="white"/>
</mask>
<g mask="url(#mask2_44_2708)">
<mask id="mask3_44_2708" style="mask-type:luminance" maskUnits="userSpaceOnUse" x="0" y="0" width="1013" height="176">
<path d="M0.796875 0.421875H1012.54V175.214H0.796875V0.421875Z" fill="white"/>
</mask>
<g mask="url(#mask3_44_2708)">
<path d="M0.796875 0.421875H1012.66V175.214H0.796875V0.421875Z" fill="#ADFF00"/>
</g>
</g>
</g>
<mask id="mask4_44_2708" style="mask-type:luminance" maskUnits="userSpaceOnUse" x="78" y="34" width="374" height="137">
<path d="M451.999 34.6665H78.666V170.667H451.999V34.6665Z" fill="white"/>
</mask>
<g mask="url(#mask4_44_2708)">
<path d="M108.72 138.287L83.6367 136.891V117.266L108.72 118.662C114.23 118.954 118.225 118.006 120.699 115.808C123.168 113.615 124.73 110.412 125.387 106.204C126.038 101.995 126.366 97.0891 126.366 91.4745V56.3078L96.6576 57.7037V38.0787L136.887 36.6828C140.72 36.5058 143.663 37.4901 145.72 39.6412C147.772 41.7818 148.803 44.7662 148.803 48.5995V99.0578C148.803 108.308 147.658 115.948 145.366 121.975C143.074 127.99 139.033 132.36 133.241 135.079C127.449 137.787 119.272 138.855 108.72 138.287Z" fill="#8F00FF"/>
<path d="M161.402 100.183V38.0786H183.819V90.2244C183.819 94.6151 184.027 98.5682 184.444 102.079C184.871 105.579 185.788 108.568 187.194 111.037C188.595 113.511 190.788 115.402 193.777 116.704C196.762 118.011 200.824 118.662 205.965 118.662C212.882 118.662 217.902 117.527 221.027 115.245C224.163 112.954 226.152 109.683 226.986 105.433C227.829 101.183 228.257 96.1151 228.257 90.2244V38.0786H250.673V100.183C250.673 112.506 246.887 121.933 239.319 128.474C231.746 135.016 220.632 138.287 205.965 138.287C191.298 138.287 180.199 135.016 172.673 128.474C165.158 121.933 161.402 112.506 161.402 100.183Z" fill="#8F00FF"/>
<path d="M292.444 136.891L259.09 38.0786H281.777L307.861 117.266H313.465L339.673 38.0786H362.361L328.882 136.891H292.444Z" fill="#8F00FF"/>
<path d="M444.061 136.891H373.582V38.0786H444.061V57.7036H395.999V77.5994H437.061V97.2244H395.999V117.266H444.061V136.891Z" fill="#8F00FF"/>
</g>
<mask id="mask5_44_2708" style="mask-type:luminance" maskUnits="userSpaceOnUse" x="450" y="32" width="513" height="144">
<path d="M450.666 32H962.666V175.521H450.666V32Z" fill="white"/>
</mask>
<g mask="url(#mask5_44_2708)">
<mask id="mask6_44_2708" style="mask-type:luminance" maskUnits="userSpaceOnUse" x="450" y="32" width="513" height="144">
<path d="M962.666 32H450.666V176H962.666V32Z" fill="white"/>
</mask>
<g mask="url(#mask6_44_2708)">
<path d="M461.01 88.8073C461.01 78.6979 462.947 69.651 466.822 61.6615C470.708 53.6615 476.281 47.3073 483.531 42.599C490.791 37.8802 499.479 35.5156 509.593 35.5156C518.426 35.5156 526.176 37.1927 532.843 40.5365C539.52 43.8698 544.895 48.6563 548.968 54.8906C553.051 61.1146 555.583 68.4948 556.572 77.0365H544.489C543.307 67.1198 539.744 59.4427 533.801 53.9948C527.869 48.5521 519.801 45.8281 509.593 45.8281C501.551 45.8281 494.827 47.6719 489.426 51.349C484.02 55.0313 479.947 60.1146 477.197 66.599C474.458 73.0729 473.093 80.474 473.093 88.8073C473.093 97.1563 474.458 104.594 477.197 111.12C479.947 117.651 484.02 122.755 489.426 126.432C494.827 130.115 501.551 131.953 509.593 131.953C519.801 131.953 527.869 129.203 533.801 123.703C539.744 118.203 543.307 110.505 544.489 100.599H556.572C554.999 113.448 550.093 123.609 541.843 131.078C533.593 138.536 522.843 142.266 509.593 142.266C499.479 142.266 490.791 139.911 483.531 135.203C476.281 130.484 470.708 124.099 466.822 116.057C462.947 108.005 461.01 98.9219 461.01 88.8073Z" fill="#8F00FF"/>
<path d="M575.109 88.8073C575.109 78.6979 577.016 69.651 580.839 61.6615C584.672 53.6615 590.219 47.3073 597.484 42.599C604.745 37.8802 613.484 35.5156 623.693 35.5156C633.802 35.5156 642.464 37.8802 649.672 42.599C656.891 47.3073 662.411 53.6615 666.234 61.6615C670.068 69.651 671.984 78.6979 671.984 88.8073C671.984 98.9219 670.068 108.005 666.234 116.057C662.411 124.099 656.891 130.484 649.672 135.203C642.464 139.911 633.802 142.266 623.693 142.266C613.484 142.266 604.745 139.911 597.484 135.203C590.219 130.484 584.672 124.099 580.839 116.057C577.016 108.005 575.109 98.9219 575.109 88.8073ZM587.193 88.8073C587.193 97.0573 588.51 104.448 591.151 110.974C593.802 117.505 597.849 122.635 603.297 126.37C608.755 130.094 615.552 131.953 623.693 131.953C631.844 131.953 638.594 130.094 643.943 126.37C649.286 122.635 653.286 117.505 655.943 110.974C658.594 104.448 659.922 97.0573 659.922 88.8073C659.922 80.5729 658.594 73.2188 655.943 66.7448C653.286 60.2604 649.286 55.1563 643.943 51.4323C638.594 47.6979 631.844 45.8281 623.693 45.8281C615.552 45.8281 608.755 47.6979 603.297 51.4323C597.849 55.1563 593.802 60.2604 591.151 66.7448C588.51 73.2188 587.193 80.5729 587.193 88.8073Z" fill="#8F00FF"/>
<path d="M704.074 140.786H692.012V36.9946H716.303L767.241 134.89H771.512L769.595 128.724V36.9946H781.533V140.786H757.241L706.428 42.8696H702.178L704.074 49.0571V140.786Z" fill="#8F00FF"/>
<path d="M815.229 140.786H803.166V36.9946H871.187V47.2863H815.229V88.6613L864.27 85.7238V96.1821L815.229 99.1196V140.786Z" fill="#8F00FF"/>
<path d="M954.068 140.786H889.734V36.9946H954.068V47.2863H901.797V83.6613H946.714V93.9738H901.797V130.474H954.068V140.786Z" fill="#8F00FF"/>
</g>
</g>
</g>
</svg>
