<svg width="310" height="310" viewBox="0 0 310 310" fill="none" xmlns="http://www.w3.org/2000/svg">
<mask id="mask0_43_2707" style="mask-type:luminance" maskUnits="userSpaceOnUse" x="0" y="0" width="310" height="310">
<path d="M0 0H309.958V309.958H0V0Z" fill="white"/>
</mask>
<g mask="url(#mask0_43_2707)">
<mask id="mask1_43_2707" style="mask-type:luminance" maskUnits="userSpaceOnUse" x="0" y="0" width="310" height="310">
<path d="M154.979 0C69.3854 0 0 69.3854 0 154.979C0 240.568 69.3854 309.958 154.979 309.958C240.573 309.958 309.958 240.568 309.958 154.979C309.958 69.3854 240.573 0 154.979 0Z" fill="white"/>
</mask>
<g mask="url(#mask1_43_2707)">
<mask id="mask2_43_2707" style="mask-type:luminance" maskUnits="userSpaceOnUse" x="-2" y="-1" width="313" height="312">
<path d="M310.979 -0.0102539H-1.02148V310.656H310.979V-0.0102539Z" fill="white"/>
</mask>
<g mask="url(#mask2_43_2707)">
<mask id="mask3_43_2707" style="mask-type:luminance" maskUnits="userSpaceOnUse" x="0" y="0" width="310" height="310">
<path d="M0 0H309.958V309.958H0V0Z" fill="white"/>
</mask>
<g mask="url(#mask3_43_2707)">
<mask id="mask4_43_2707" style="mask-type:luminance" maskUnits="userSpaceOnUse" x="0" y="0" width="310" height="310">
<path d="M154.979 0C69.3854 0 0 69.3854 0 154.979C0 240.568 69.3854 309.958 154.979 309.958C240.573 309.958 309.958 240.568 309.958 154.979C309.958 69.3854 240.573 0 154.979 0Z" fill="white"/>
</mask>
<g mask="url(#mask4_43_2707)">
<path d="M0 0H309.958V309.958H0V0Z" fill="#8F00FF"/>
</g>
</g>
</g>
</g>
</g>
<mask id="mask5_43_2707" style="mask-type:luminance" maskUnits="userSpaceOnUse" x="44" y="55" width="223" height="188">
<path d="M44.1914 55.9893H266.191V242.656H44.1914V55.9893Z" fill="white"/>
</mask>
<g mask="url(#mask5_43_2707)">
<path d="M157.926 68.0203C155.665 70.2808 154.452 73.4058 154.452 76.7078C154.452 80.0099 155.665 83.1401 157.926 85.3953L204.671 132.317H55.9154C49.1393 132.317 43.7539 137.531 43.7539 144.307V154.562C43.7539 161.338 49.1393 167.072 55.9154 167.072H205.191L157.749 214.343C155.493 216.598 154.275 219.557 154.275 222.859C154.275 226.156 155.493 229.114 157.749 231.369L165.051 238.671C169.743 243.364 177.561 243.364 182.254 238.671L262.712 158.385C264.973 156.125 266.191 153 266.191 149.697C266.191 146.395 264.973 143.437 262.712 141.182L182.426 60.7183C177.738 56.0308 169.915 56.0308 165.223 60.7183L157.926 68.0203Z" fill="white"/>
</g>
</svg>
