<svg width="965" height="1008" viewBox="0 0 965 1008" fill="none" xmlns="http://www.w3.org/2000/svg">
<path d="M603.553 1000.2C598.946 1002.54 603.843 1001.37 599.238 1003.72C593.844 1006.46 588.088 1006.69 582.145 1006.82C573.9 1007.01 595.792 1006.02 587.553 1006.6C604.691 1004.75 575.223 1007.93 572.568 1007.36C579.932 1006.23 564.264 1005.88 572.568 1004.61C570.524 1002.48 568.999 1000.85 567.423 999.263C542.049 973.754 516.669 948.251 491.29 922.747C482.635 914.049 482.599 907.594 491.226 898.966C519.376 870.813 547.529 842.662 575.709 814.54C583.637 806.628 590.585 806.683 598.53 814.562C600.186 816.204 601.853 817.837 603.483 819.505C610.049 826.226 610.2 834.02 603.587 840.655C589.475 854.816 575.269 868.884 561.022 882.909C558.457 885.434 555.511 887.57 552.741 889.886C553.108 890.49 553.475 891.095 553.842 891.7C555.572 891.7 557.301 891.699 559.031 891.7C610.521 891.702 662.012 891.701 713.502 891.708C725.509 891.71 729.978 896.621 730.449 908.696C731.088 925.056 727.89 930.26 709.226 930.057C659.074 929.511 608.913 929.873 558.755 929.887C557.173 929.887 555.591 930.018 554.009 930.088C553.607 930.643 553.205 931.199 552.803 931.754C561.228 939.71 569.748 947.567 578.049 955.649C586.284 963.667 594.159 972.056 602.459 980.003C607.342 984.678 609.262 989.929 607.393 996.933C609.143 996.674 601.696 999.393 603.553 999.263C594.699 1003.13 603.553 1000.2 603.553 1000.2Z" fill="#FDFDFD"/>
<path d="M580.887 449.214C572.812 441.484 564.913 434.129 557.267 426.519C535.192 404.548 513.239 382.456 491.196 360.453C482.859 352.131 482.661 345.249 490.941 336.968C519.559 308.345 548.214 279.758 576.887 251.19C583.385 244.716 590.364 244.646 597.108 250.879C599.431 253.026 601.678 255.262 603.859 257.552C610.028 264.028 610.13 271.474 603.782 277.895C590.197 291.639 576.476 305.249 562.746 318.849C559.565 321.999 556.124 324.887 552.803 327.896C553.058 328.364 553.313 328.832 553.568 329.299C554.931 329.383 556.294 329.54 557.657 329.54C609.648 329.539 661.639 329.531 713.629 329.506C725.812 329.5 730.348 334.057 730.353 346.426C730.354 347.925 730.355 349.425 730.354 350.925C730.345 363.348 725.898 367.831 713.59 367.831C662.266 367.831 610.941 367.833 559.617 367.833C557.967 367.833 556.316 367.833 553.471 367.833C555.159 369.714 556.22 371.005 557.393 372.185C571.837 386.72 586.292 401.244 600.757 415.758C610.859 425.895 610.928 432.297 600.994 442.346C599.707 443.648 598.4 444.931 597.089 446.208C592.484 450.694 587.235 452.056 580.887 449.214Z" fill="#FEFEFE"/>
<path d="M11.1261 334.911C28.0439 317.923 44.9438 300.916 61.8858 283.952C72.948 272.876 84.0214 261.809 95.1871 250.837C101.289 244.842 108.253 244.813 114.629 250.582C117.097 252.815 119.46 255.174 121.762 257.581C127.989 264.092 128.048 271.421 121.672 277.844C105.831 293.803 89.8766 309.649 73.9783 325.551C72.9671 326.562 72.0472 327.665 70.3527 329.532C74.3903 329.532 77.4663 329.532 80.5423 329.532C131.362 329.532 182.182 329.528 233.002 329.536C242.957 329.537 248.11 334.629 248.149 344.452C248.161 347.451 248.162 350.45 248.148 353.449C248.109 362.359 242.928 367.671 233.9 367.808C225.904 367.928 217.904 367.829 209.906 367.828C164.1 367.828 118.294 367.828 71.6122 367.828C72.7075 369.249 73.3287 370.262 74.1437 371.082C89.1694 386.205 104.218 401.306 119.262 416.41C128.703 425.888 128.722 432.445 119.344 441.749C117.806 443.275 116.319 444.852 114.756 446.35C108.523 452.321 101.046 452.42 94.9298 446.319C66.9836 418.437 39.1067 390.486 11.0625 361.888C10.1761 360.744 9.43219 360.272 8.68822 359.8C6.84907 357.002 5.00994 354.204 3.39754 350.816C3.95096 347.576 4.27766 344.927 4.64154 341.976C3.13644 342.72 2.16197 343.202 1.1875 343.684C1.55468 342.434 1.92186 341.185 2.85468 339.802C4.1025 339.711 4.78468 339.753 5.46687 339.796C6.27928 339.167 7.09168 338.539 8.59737 337.732C9.90247 336.673 10.5143 335.792 11.1261 334.911Z" fill="#FEFEFE"/>
<path d="M617.88 744.793C617.88 744.793 617.831 745.23 617.518 745.38C617.205 745.531 616.941 745.625 616.589 745.612C614.486 746.941 612.733 748.282 610.672 749.649C609.601 749.987 608.84 750.3 607.611 750.616C602.464 750.617 597.785 750.613 593.02 750.277C590.341 748.518 587.746 747.091 585.12 745.41C585.062 744.986 585.036 744.817 585.011 744.312C584.074 741.832 583.136 739.687 582.192 737.15C582.177 735.453 582.169 734.147 582.531 732.689C583.262 731.337 583.939 730.139 583.94 728.94C583.994 682.847 584.001 636.755 583.908 590.662C583.905 589.297 582.763 587.934 582.157 586.146C582.162 583.761 582.163 581.801 582.451 579.748C582.35 577.962 581.96 576.268 581.571 574.574C580.105 574.94 578.287 574.878 577.236 575.746C572.68 579.506 568.15 583.34 563.978 587.514C555.783 595.713 547.856 604.18 539.771 612.489C535.971 616.396 532.21 620.365 528.124 623.957C526.51 625.376 524.142 626.228 521.979 626.682C514.077 628.339 509.872 622.718 505.473 617.766C499.28 610.795 499.407 605.713 505.992 599.231C514.018 591.331 522.292 583.681 530.244 575.708C540.756 565.167 551.014 554.372 561.469 543.773C571.119 533.989 580.927 524.36 590.585 514.585C596.89 508.203 603.166 507.972 609.594 514.187C616.486 520.851 623.418 527.478 630.151 534.3C640.273 544.556 650.116 555.089 660.298 565.283C672.219 577.218 684.454 588.841 696.339 600.81C697.906 602.388 698.548 605.141 699.049 607.472C700.542 614.413 695.329 617.978 691.272 622.059C684.494 628.878 677.686 628.894 670.943 622.153C655.349 606.564 639.775 590.955 624.113 575.435C622.922 574.255 621.098 573.714 619.569 572.877C619.072 574.472 618.575 576.067 618.047 577.923C618.01 578.358 618.003 578.533 617.844 578.801C617.637 578.998 617.509 579.15 617.541 579.199C617.662 579.39 617.835 579.547 617.986 580.185C617.974 634.367 617.965 688.082 617.933 741.965C617.911 742.134 617.917 742.474 617.712 742.652C617.596 743.394 617.686 743.957 617.769 744.601C617.762 744.682 617.88 744.793 617.88 744.793Z" fill="#ADFE02"/>
<path d="M581.169 14.5312C581.169 14.5312 581.021 14.1371 581.286 13.7196C579.182 11.3252 579.108 11.2502 576.475 13.8462C569.686 20.5401 563.027 27.3666 556.208 34.0296C547.463 42.5743 538.634 51.0329 529.779 59.4642C528.756 60.4389 527.341 61.0026 526.088 61.3662C525.216 58.7426 524.365 56.5097 523.118 53.2421C525.581 53.4851 527.651 53.6894 530.145 53.9355C529.828 52.4883 529.08 51.098 529.409 50.0433C529.787 48.833 530.926 47.4025 532.072 46.9766C535.32 45.7692 538.74 45.0256 542.607 43.957C540.991 41.3514 540.076 39.8758 538.605 37.5042C541.463 37.3648 543.52 37.2644 545.334 37.1759C545.704 35.055 546.042 33.1173 546.38 31.1797C548.031 31.8712 549.682 32.5627 551.76 33.433C552.781 31.1914 554.276 28.9764 554.798 26.5518C556.132 20.3605 555.959 20.3231 561.475 22.073C561.475 18.8871 561.475 15.6827 561.475 12.185C559.526 11.8394 557.38 11.4589 554.972 11.032C555.635 9.06771 556.115 7.64535 556.65 6.06109C554.292 6.06109 552.395 6.06109 550.498 6.06109C550.844 6.42254 551.191 6.78396 551.537 7.14541C550.232 9.19765 548.884 13.0146 547.631 12.9839C543.192 12.875 545.517 9.44152 545.622 7.05071C545.653 6.35647 544.576 4.99758 544.07 5.02685C543.093 5.08321 541.969 5.72155 541.242 6.45257C537.814 9.90109 535.027 14.3448 531.004 16.7483C526.531 19.421 523.538 21.4419 527.052 26.7049C520.934 28.6067 520.934 28.6067 519.146 34.4571C518.546 34.4889 517.875 34.6442 517.247 34.5388C512.057 33.667 511.831 34.0518 513.057 39.0213C513.383 40.3399 512.517 43.0962 511.715 43.3014C510.233 43.6805 508.393 42.6614 506.703 42.2248C506.36 42.5271 506.018 42.8293 505.676 43.1316C506.849 44.3231 507.937 45.6154 509.211 46.6856C512.053 49.0721 517.01 51.0103 517.466 53.7387C518.416 59.4351 521.981 60.4719 526.055 62.1465C522.824 65.5726 516.782 65.792 513.634 62.8107C510.251 59.6068 506.937 56.3196 503.748 52.9229C499.96 48.8885 499.768 43.5711 503.367 39.4253C505.41 37.0722 507.974 35.1801 510.159 32.9394C518.944 23.9282 527.468 14.6471 536.572 5.97387C538.731 3.91711 542.861 2.76827 545.923 3.03725C555.122 3.84527 564.236 5.59518 573.399 6.86141C574.241 6.97775 575.198 6.2644 576.497 6.0393C577.974 6.25561 579.054 6.36895 580.143 6.85C581.133 7.15353 582.115 7.08935 583.48 7.06805C584.622 7.2423 585.381 7.37368 586.13 7.82006C586.505 8.50671 586.891 8.87832 587.277 9.24996C587.541 8.74529 587.805 8.24062 588.391 7.72655C589.128 7.81115 589.544 7.90517 590.013 8.27343C590.735 8.58413 591.405 8.6206 592.396 8.66741C593.126 8.79385 593.536 8.90996 594.027 9.37136C598.178 12.2365 602.38 14.1236 607.608 12.4372C608.276 12.5269 608.653 12.6145 609.17 12.9582C609.843 13.4143 610.376 13.6142 611.009 14.1494C613.396 16.59 615.682 18.6951 617.965 21.2625C617.973 32.3849 618 43.0449 617.991 53.705C617.957 95.3452 617.912 136.985 617.555 178.709C614.819 181.701 612.4 184.609 609.561 187.556C607.446 187.624 605.75 187.653 603.778 187.413C601.017 187.323 598.533 187.502 595.623 187.672C593.497 187.609 591.796 187.556 590.038 187.167C588.709 186.077 587.436 185.321 586.131 184.347C586.097 184.128 586.021 183.691 586.016 183.339C585.122 182.183 584.234 181.378 583.279 180.216C583.159 179.137 583.106 178.413 583.061 177.256C583.377 167.048 583.921 157.274 583.948 147.499C584.051 109.415 584.003 71.3312 583.972 33.2473C583.968 28.8274 583.929 24.3851 583.472 19.9984C583.276 18.1165 581.971 16.3501 581.169 14.5312Z" fill="#ADFE03"/>
<path d="M797.052 628.29C825.877 628.277 854.202 628.286 882.527 628.189C884.184 628.183 885.839 627.32 887.495 626.857C886.671 625.343 886.135 623.547 884.978 622.357C870.946 607.928 857.069 593.332 842.604 579.347C836.517 573.461 836.036 563.055 842.478 556.635C844.721 554.4 846.901 552.097 849.237 549.964C855.417 544.321 863.828 543.998 869.853 549.771C880.039 559.532 889.837 569.699 899.868 579.623C912.358 591.979 924.993 604.189 937.424 616.604C944.841 624.012 952.031 631.65 959.24 639.263C963.913 644.197 964.13 652.922 959.477 657.864C953.313 664.412 946.884 670.712 940.523 677.074C927.481 690.12 914.404 703.132 901.35 716.166C891.11 726.39 880.907 736.65 870.642 746.849C864.352 753.098 855.132 753.141 848.835 747.03C846.564 744.825 844.338 742.573 842.09 740.344C835.683 733.987 835.506 725.521 841.827 719.158C856.621 704.267 871.496 689.454 886.31 674.581C887.521 673.365 888.517 671.933 890.416 669.625C887.124 669.334 885.092 668.998 883.06 668.997C833.407 668.966 783.754 668.978 734.102 668.961C728.502 668.959 722.938 668.438 719.205 663.572C717.657 661.553 716.023 658.998 715.894 656.608C715.559 650.379 715.303 643.976 716.394 637.89C717.467 631.905 723.683 628.323 730.57 628.31C752.564 628.268 774.558 628.292 797.052 628.29ZM922.074 607.145C918.688 603.766 915.349 600.338 911.907 597.017C905.149 590.497 898.214 584.156 891.57 577.522C882.805 568.768 874.272 559.783 865.564 550.972C864.839 550.238 863.412 549.532 862.528 549.739C859.109 550.539 855.272 551.001 852.54 552.931C849.094 555.366 846.386 558.961 843.707 562.332C840.173 566.781 841.23 572.44 846.965 578.141C862.267 593.353 877.739 608.392 893.162 623.482C895.668 625.933 895.951 628.666 893.217 630.727C891.566 631.973 889.02 632.545 886.875 632.549C835.718 632.642 784.562 632.616 733.405 632.614C732.072 632.614 730.692 632.41 729.415 632.682C725.254 633.568 720.721 634.899 720.174 639.681C719.486 645.685 719.546 651.889 720.296 657.88C720.563 660.02 723.463 662.453 725.74 663.55C728.138 664.705 731.228 664.718 734.016 664.721C785.672 664.776 837.329 664.73 888.985 664.846C890.951 664.851 894.259 665.921 894.576 667.121C895.105 669.117 894.435 672.318 893.01 673.793C886.112 680.93 878.659 687.527 871.658 694.569C862.423 703.859 853.459 713.418 844.31 722.795C840.832 726.359 840.898 730.586 843.187 734.168C845.717 738.126 849.233 741.536 852.677 744.807C857.335 749.231 862.113 749.06 866.77 744.538C872.592 738.884 878.213 733.022 884.026 727.358C892.449 719.151 901.088 711.161 909.41 702.853C917.024 695.252 924.217 687.229 931.823 679.619C938.957 672.479 946.482 665.731 953.662 658.635C960.544 651.832 960.501 645.715 953.73 638.833C952.112 637.188 950.023 636.006 948.412 634.357C939.755 625.5 931.181 616.563 922.074 607.145Z" fill="#7010C2"/>
<path d="M381.2 687.846C389.099 679.931 396.8 672.318 404.339 664.546C405.485 663.363 405.874 661.446 406.613 659.869C405.009 659.322 403.408 658.309 401.801 658.3C384.673 658.206 367.544 658.286 350.416 658.29C316.925 658.298 283.434 658.305 249.944 658.274C238.665 658.264 234.473 654.051 234.447 642.893C234.439 639.56 234.411 636.227 234.471 632.896C234.637 623.746 240.348 618.16 249.617 618.159C299.937 618.157 350.257 618.187 400.576 618.176C402.783 618.176 404.989 617.889 408.475 617.647C406.637 615.432 405.724 614.148 404.63 613.042C395.374 603.684 386.053 594.391 376.819 585.012C371.682 579.794 367.095 573.943 361.5 569.291C354.559 563.519 354.638 551.327 361.752 545.496C366.032 541.989 370.337 538.155 375.288 535.927C380.022 533.796 384.85 535.512 388.839 539.532C415.476 566.379 442.24 593.101 468.966 619.86C470.379 621.275 471.744 622.748 473.252 624.054C483.779 633.172 484.326 641.736 474.675 651.492C459.293 667.042 443.822 682.505 428.312 697.927C415.155 711.011 402.064 724.168 388.602 736.933C381.739 743.441 374.309 743.031 367.298 736.633C364.226 733.829 361.355 730.792 358.531 727.732C355.015 723.923 355.707 713.487 359.783 709.337C366.786 702.205 373.889 695.171 381.2 687.846ZM411.575 708.784C417.965 702.398 424.355 696.012 430.743 689.624C435.366 685.003 439.985 680.378 444.607 675.757C451.148 669.215 457.748 662.73 464.208 656.109C466.953 653.296 469.081 649.811 472.061 647.313C478.326 642.059 479.033 635.537 473.309 629.412C470.04 625.915 466.57 622.605 463.183 619.217C447.122 603.153 431.062 587.087 414.993 571.031C405.62 561.666 396.228 552.322 386.849 542.964C381.803 537.93 373.851 538.415 369.36 544.022C368.436 545.176 367.58 546.456 366.438 547.356C358.28 553.788 357.838 560.026 365.127 567.339C371.878 574.112 378.637 580.878 385.385 587.653C388.29 590.57 391.166 593.517 394.079 596.426C399.939 602.278 405.938 607.999 411.578 614.056C412.678 615.237 412.969 617.834 412.553 619.51C412.312 620.482 409.975 621.136 408.476 621.533C407.229 621.864 405.828 621.616 404.496 621.616C353.187 621.621 301.878 621.696 250.57 621.517C245.426 621.499 241.516 623.296 239.232 627.289C237.615 630.116 237.063 633.938 237.156 637.285C237.437 647.384 239.776 655.201 253.262 654.893C275.573 654.384 297.904 654.755 320.227 654.755C342.549 654.754 364.872 654.753 387.194 654.755C394.637 654.756 402.088 654.572 409.516 654.909C411.32 654.991 413.493 656.471 414.603 657.97C415.094 658.633 413.7 661.266 412.578 662.451C407.8 667.496 402.802 672.331 397.887 677.246C386.189 688.945 374.478 700.631 362.803 712.352C358.87 716.3 358.737 721.505 362.467 725.668C364.908 728.393 367.431 731.053 370.034 733.625C373.685 737.231 380.911 738.1 384.105 735.195C389.835 729.985 395.449 724.648 401.042 719.292C404.45 716.027 407.728 712.627 411.575 708.784Z" fill="#6F10BE"/>
<path d="M246.431 56.4425C296.549 56.4698 346.666 56.4974 396.784 56.5244C400.814 56.5266 404.844 56.5247 408.874 56.5247C409.048 55.9859 409.221 55.4471 409.394 54.9084C408.301 53.5962 407.298 52.1942 406.1 50.9858C394.845 39.6364 383.531 28.3455 372.307 16.9659C370.699 15.3355 369.478 13.323 368.335 10.886C383.661 7.45621 398.73 4.62778 413.799 1.79932C426.095 14.121 438.432 26.4024 450.674 38.7781C459.305 47.503 467.876 56.2893 476.343 65.1724C483.509 72.6897 483.247 80.2755 475.66 87.8827C458.25 105.337 440.786 122.738 423.348 140.163C412.39 151.113 401.458 162.089 390.475 173.014C381.911 181.533 372.308 181.028 364.754 171.774C363.391 170.103 361.9 168.533 360.427 166.955C354.729 160.851 354.644 152.351 360.512 146.435C374.91 131.918 389.42 117.512 403.864 103.04C405.219 101.682 406.424 100.174 408.774 97.5204C404.835 96.9648 402.216 96.2774 399.597 96.2733C350.957 96.197 302.317 96.2181 253.677 96.1524C250.548 96.1482 247.315 96.0103 244.314 95.2283C238.485 93.7092 234.785 88.8819 234.608 82.8164C234.429 76.6616 234.6 70.4967 234.333 63.9789C234.049 63.6216 233.958 63.6579 234.369 63.7207C234.898 63.2754 235.016 62.7673 235.324 61.9892C238.363 60.0158 241.21 58.3125 244.057 56.6093C244.057 56.6093 244.045 56.6823 244.308 56.7898C245.191 56.7456 245.811 56.5941 246.431 56.4425ZM312.553 92.7392C338.882 92.7411 365.21 92.7624 391.539 92.7277C396.613 92.721 401.708 92.7276 406.752 92.2732C409.31 92.0428 411.651 91.0817 413.18 94.1094C414.695 97.1088 413.945 99.3984 411.565 101.649C407.242 105.738 403.166 110.088 398.893 114.231C390.571 122.301 382.151 130.272 373.837 138.351C370.046 142.035 366.176 145.682 362.778 149.713C360.127 152.858 358.218 157.08 361.159 160.7C365.182 165.653 369.634 170.561 374.846 174.098C376.958 175.531 382.202 174.284 384.876 172.52C389.368 169.556 393.029 165.29 396.887 161.42C406.676 151.599 416.344 141.658 426.128 131.831C438.833 119.07 451.594 106.365 464.351 93.6555C467.388 90.6295 470.704 87.859 473.536 84.6566C478.113 79.481 478.437 72.7302 473.617 67.7059C470.305 64.2544 466.91 60.8801 463.473 57.5525C455.026 49.373 446.411 41.3631 438.095 33.053C430.333 25.2968 422.71 17.3863 415.354 9.24744C412.389 5.96671 409.076 5.04196 405.128 5.71964C395.682 7.34106 386.261 9.1102 376.851 10.9294C375.87 11.119 375.031 12.044 372.421 13.7291C377.209 17.7754 381.589 21.0681 385.49 24.8555C394.482 33.5874 403.324 42.4788 411.996 51.5271C413.199 52.7823 414.096 56.3099 413.384 57.0119C411.873 58.5031 409.211 59.5211 407.018 59.5267C354.861 59.659 302.703 59.6176 250.545 59.6823C248.479 59.6848 246.152 59.9398 244.394 60.8984C237.198 64.8223 234.128 78.9955 238.804 85.8499C239.258 86.5157 240.039 86.9496 240.614 87.5434C245.164 92.2415 251.021 92.7488 257.063 92.7442C275.226 92.7303 293.39 92.7393 312.553 92.7392Z" fill="#7010C2"/>
<path d="M774.567 367.511C773.407 350.959 772.257 334.872 771.137 318.782C770.387 307.999 769.689 297.211 768.944 286.427C768.784 284.108 768.61 281.784 768.294 279.483C767.162 271.25 773.252 264.186 781.625 263.562C805.32 261.796 828.996 259.792 852.688 257.991C870.265 256.655 887.848 255.366 905.444 254.305C914.166 253.779 919.843 259.309 920.377 268.071C920.559 271.059 921.105 274.028 921.215 277.016C921.56 286.376 916.374 292.115 907.038 292.782C883.844 294.439 860.648 296.064 836.222 297.789C837.874 299.568 838.788 300.763 839.903 301.725C879.727 336.091 919.573 370.432 959.409 404.785C965.218 409.794 966.269 417.412 961.723 423.59C959.166 427.066 956.224 430.285 953.249 433.423C947.969 438.991 940.664 439.549 934.876 434.598C916.536 418.914 898.307 403.101 880.044 387.328C858.512 368.731 836.995 350.118 815.443 331.543C814.269 330.531 812.842 329.81 810.727 328.425C811.35 338.612 811.853 347.698 812.475 356.775C813.326 369.205 814.328 381.625 815.132 394.057C815.363 397.638 815.785 401.401 814.979 404.811C813.405 411.477 807.825 414.601 799.644 415.027C790.913 415.482 781.623 417.237 778.043 406.154C776.645 401.827 776.764 396.984 776.381 392.36C775.707 384.238 775.178 376.104 774.567 367.511ZM775.067 343.359C775.085 343.798 775.103 344.237 775.069 345.521C775.13 346.93 775.191 348.339 775.268 350.511C775.852 353.908 776.596 357.288 776.978 360.708C777.419 364.653 777.545 368.633 777.797 372.599C778.321 380.817 778.426 389.09 779.492 397.236C780.28 403.25 780.577 410.277 788.308 412.281C791.054 412.993 794.081 412.735 796.979 412.723C808.679 412.675 813.347 408.092 812.995 396.343C812.813 390.241 811.575 384.177 811.149 378.072C810.053 362.363 809.091 346.644 808.243 330.919C808.158 329.326 808.825 327.269 809.91 326.216C810.45 325.691 813.044 326.558 814.167 327.467C824.728 336.012 835.298 344.556 845.615 353.393C855.881 362.185 865.796 371.384 875.978 380.275C888.582 391.282 901.306 402.152 913.971 413.09C921.239 419.367 928.5 425.652 935.75 431.951C939.827 435.493 945.165 435.783 949.343 432.363C952.167 430.051 954.8 427.486 957.375 424.89C963.528 418.687 963.676 413.301 957.245 407.434C949.551 400.416 941.362 393.945 933.558 387.043C926.994 381.237 920.811 374.998 914.218 369.225C902.007 358.533 889.639 348.018 877.3 337.472C864.321 326.38 851.324 315.308 838.274 304.299C835.75 302.169 833.981 300.053 836.741 296.376C840.843 295.804 844.945 295.233 849.936 294.683C852.309 294.643 854.682 294.603 857.64 294.593C858.112 294.299 858.584 294.005 859.993 293.712C872.664 292.979 885.336 292.246 898.875 291.622C901.934 291.308 904.993 290.993 908.768 290.626C914.138 288.992 917.864 285.59 918.357 279.909C918.696 275.989 918.34 271.894 917.582 268.016C915.872 259.276 912.455 256.702 903.56 256.714C900.741 256.718 897.923 256.836 894.369 256.784C893.265 257.1 892.161 257.416 890.15 257.715C887.134 257.769 884.118 257.824 880.262 257.771C878.196 258.08 876.129 258.39 873.182 258.701C865.49 259.093 857.797 259.485 849.503 259.813C849.019 260.113 848.534 260.412 847.134 260.701C843.777 260.764 840.419 260.827 836.619 260.993C836.339 261.152 836.157 261.387 835.154 261.713C831.803 261.765 828.453 261.818 824.423 261.78C823.632 262.09 822.841 262.4 821.13 262.698C810.909 263.413 800.68 264.029 790.472 264.892C786.539 265.225 782.633 266.015 778.751 266.781C772.72 267.972 769.885 273.319 770.09 283.506C770.401 285.574 770.711 287.642 771.059 290.371C771.094 290.811 771.129 291.251 771.168 292.33C771.77 292.825 772.371 293.321 772.86 294.616C772.627 298.3 772.393 301.984 772.086 306.564C772.416 309.608 772.746 312.652 773.066 316.567C773.14 318.591 773.215 320.615 773.194 323.239C773.487 323.726 773.78 324.214 774.06 325.633C774.118 330.305 774.176 334.976 774.13 340.328C774.444 341.119 774.757 341.909 775.067 343.359Z" fill="#A7DD3D"/>
<path d="M760.788 76.9656C772.081 85.0278 783.394 93.0619 794.637 101.194C795.791 102.029 796.521 103.451 797.703 104.909C797.959 105.218 797.851 105.205 797.851 105.205C793.07 105.498 788.289 106.016 783.506 106.041C766.734 106.13 749.961 106.076 733.188 106.023C721.374 105.985 715.832 100.386 715.787 88.5685C715.78 86.5757 715.774 84.5828 715.788 82.5901C715.861 71.7557 722.073 66.0581 732.784 66.8252C734.889 66.9759 737.034 66.5753 739.326 66.059C739.492 65.6891 739.547 65.6005 739.623 66.0149C740.236 66.5453 740.773 66.6613 741.655 66.7517C746.617 69.4574 751.205 72.2416 755.87 74.8899C757.407 75.7624 759.143 76.2837 760.788 76.9656Z" fill="#8807EC"/>
<path d="M226.531 890.699C236.332 892.028 241.834 896.516 242.053 903.529C242.181 907.661 242.23 911.8 242.038 915.929C241.715 922.896 234.568 927.949 224.933 928.025C214.903 928.104 204.503 926.818 194.937 928.344C183.669 930.141 179.139 924.758 173.754 920.435C166.097 914.289 156.6 909.766 156.053 900.699C153.554 900.699 148.565 896.699 153.053 896.699C149.747 895.249 151.458 893.461 148.166 891.467C158.679 891.131 168.707 891.185 178.734 891.122C194.667 891.022 210.598 890.844 226.531 890.699Z" fill="#FEFEFE"/>
<path d="M86.0583 575.456C69.8779 591.729 53.6921 607.997 37.5194 624.277C29.4526 632.398 22.1223 632.04 13.7732 624.263C-0.818047 610.671 2.61751 603.983 14.1673 592.746C41.2649 566.383 67.8174 539.46 94.6026 512.775C102.923 504.485 110.043 504.587 118.269 512.832C146.386 541.01 174.539 569.153 202.706 597.281C210.863 605.427 210.942 612.127 202.819 620.498C202.471 620.856 202.088 621.185 201.768 621.566C192.33 632.842 183.699 633.681 172.35 621.537C158.141 606.331 143.117 591.888 128.433 577.127C127.889 576.581 127.221 576.158 125.375 574.705C125.375 630.593 125.375 685.269 125.194 739.847C125.009 687.622 125.016 635.493 124.958 583.365C124.956 581.477 124.318 579.59 123.753 577.498C124.56 575.692 125.59 574.091 126.853 572.128C131.02 575.986 134.519 578.993 137.754 582.261C151.605 596.255 165.242 610.466 179.332 624.214C181.389 626.22 185.442 626.295 188.63 627.001C194.383 628.275 196.01 622.446 199.647 620.123C207.332 615.216 207.532 605.145 200.835 598.918C194.416 592.95 188.033 586.932 181.857 580.714C169.222 567.994 156.839 555.024 144.16 542.35C134.001 532.195 123.635 522.244 113.16 512.416C111.548 510.904 108.926 510.156 106.645 509.732C102.129 508.894 99.2439 512.002 96.4136 514.826C76.2619 534.932 56.1348 555.063 36.0019 575.189C27.9902 583.197 19.9673 591.195 11.9801 599.228C5.6806 605.564 5.44409 610.731 11.2578 617.369C13.4487 619.871 15.8719 622.178 18.2827 624.476C22.2751 628.281 31.2232 627.275 34.925 623.216C40.9096 616.653 47.2358 610.397 53.4944 604.088C60.0137 597.516 66.5072 590.911 73.2378 584.559C77.3031 580.723 81.7982 577.342 86.088 574.039C86.07 574.701 86.0641 575.078 86.0583 575.456Z" fill="#A8DF3B"/>
<path d="M433.94 820.754C439.099 826.182 440.979 842.18 437.088 848.305C434.533 852.326 431 854.537 426.017 854.874C403.47 856.399 380.937 858.132 358.402 859.825C357.295 859.908 356.212 860.314 354.008 860.828C361.5 867.335 368.325 873.29 375.181 879.21C408.933 908.352 442.727 937.445 476.424 966.65C484.016 973.231 484.362 980.267 477.943 987.963C475.811 990.519 473.612 993.023 471.38 995.493C466.024 1001.42 459.036 1002.18 452.845 996.956C437.215 983.758 421.768 970.344 406.266 956.995C386.863 940.287 367.483 923.552 348.084 906.84C342.668 902.174 337.225 897.538 331.774 892.913C331.079 892.323 330.258 891.881 328.647 890.802C329.168 899.113 329.629 906.476 329.77 914.526C329.279 916.106 329.108 916.999 328.574 917.724C327.837 915.858 327.276 914.176 327.124 912.458C326.54 905.865 326.001 899.265 325.654 892.657C325.581 891.268 326.05 888.937 326.877 888.619C328.262 888.085 330.645 888.211 331.726 889.115C341.64 897.402 351.393 905.882 361.134 914.374C372.494 924.277 383.742 934.308 395.134 944.174C408.783 955.995 422.521 967.712 436.242 979.45C442.408 984.725 448.407 990.229 454.882 995.096C460.366 999.219 463.688 998.588 468.479 993.852C470.374 991.979 472.27 990.105 474.102 988.171C481.603 980.252 481.048 974.733 473.56 967.806C463.59 958.582 453.075 949.945 442.776 941.077C431.411 931.29 420.017 921.537 408.652 911.75C399.11 903.532 389.636 895.236 380.052 887.067C371.73 879.973 363.221 873.098 354.989 865.904C353.588 864.68 351.978 861.352 352.52 860.696C354.009 858.898 356.466 857.342 358.769 856.91C362.152 856.275 365.746 856.886 369.227 856.642C387.01 855.394 404.771 853.79 422.567 852.821C433.118 852.246 438.618 845.699 436.207 835.382C435.793 833.609 435.229 831.823 435.159 830.027C434.964 825.018 432.605 821.625 427.871 819.42C427.095 819.037 426.504 818.901 425.468 818.763C421.752 818.765 418.482 818.769 414.921 818.746C414.437 818.711 414.243 818.703 414.334 818.407C416.284 817.956 417.948 817.792 419.612 817.629C419.688 817.314 419.882 817.197 420.577 817.433C421.29 817.602 421.598 817.519 421.879 817.339C423.747 817.259 425.615 817.178 428.027 817.357C428.822 817.684 429.072 817.758 429.319 817.838C429.689 817.926 430.059 818.014 430.911 818.341C431.393 818.579 431.261 818.601 431.261 818.601C431.261 818.601 431.685 818.842 431.888 819.27C432.707 820.05 433.324 820.402 433.94 820.754Z" fill="#A6DD3A"/>
<path d="M618.079 577.662C618.575 576.067 619.072 574.471 619.568 572.876C621.098 573.714 622.922 574.255 624.112 575.435C639.775 590.955 655.349 606.564 670.943 622.153C677.686 628.894 684.493 628.878 691.272 622.059C695.329 617.977 700.542 614.412 699.049 607.472C698.547 605.141 697.906 602.387 696.339 600.81C684.453 588.84 672.219 577.218 660.298 565.283C650.115 555.089 640.272 544.556 630.151 534.3C623.418 527.477 616.486 520.851 609.594 514.187C603.166 507.971 596.89 508.203 590.585 514.584C580.926 524.36 571.119 533.989 561.468 543.773C551.014 554.372 540.756 565.167 530.243 575.708C522.292 583.68 514.018 591.331 505.991 599.231C499.406 605.713 499.28 610.795 505.473 617.766C509.871 622.717 514.076 628.339 521.979 626.682C524.141 626.228 526.51 625.376 528.124 623.957C532.21 620.365 535.97 616.395 539.771 612.489C547.856 604.18 555.783 595.713 563.977 587.514C568.149 583.34 572.68 579.506 577.236 575.746C578.287 574.878 580.105 574.94 581.57 574.574C581.96 576.268 582.35 577.962 582.403 579.444C581.771 578.733 581.475 578.234 581.179 577.735C580.016 578.012 578.48 577.908 577.745 578.625C568.687 587.457 559.75 596.414 550.772 605.328C543.921 612.131 537.127 618.993 530.176 625.693C523.514 632.115 515.617 631.936 508.953 625.396C506.578 623.065 504.148 620.772 501.959 618.272C496.521 612.06 496.544 604.883 502.311 599.081C519.091 582.198 536.014 565.457 552.864 548.643C565.118 536.414 577.357 524.169 589.579 511.907C596.433 505.03 604.282 504.721 611.093 511.515C640.091 540.441 669.038 569.42 697.921 598.462C704.429 605.006 704.204 612.919 697.715 619.662C695.752 621.701 693.744 623.698 691.709 625.665C684.971 632.179 677.239 632.159 670.579 625.516C654.665 609.644 638.812 593.711 622.823 577.916C622.325 577.423 621.438 573.536 619.159 577.48C618.477 577.701 618.278 577.681 618.079 577.662Z" fill="#A2D936"/>
<path d="M701.091 51.2787C698.21 59.3378 685.004 71.2865 677.968 67.4547C675.68 66.2089 673.109 65.1702 671.312 63.3873C657.42 49.6038 643.686 35.661 629.885 21.0557C631.227 20.0245 632.823 19.0727 633.912 19.4795C654.814 27.2926 675.662 35.2507 696.506 43.2183C700.174 44.6203 702.193 47.0966 701.091 51.2787Z" fill="#ADF613"/>
<path d="M395.223 334.34C418.446 354.297 441.67 374.255 464.894 394.212C468.934 397.684 473.006 401.119 477.012 404.629C483.233 410.078 484.142 417.675 479.156 424.211C476.639 427.51 473.862 430.649 470.93 433.589C465.442 439.093 458.027 439.277 452.102 434.167C426.272 411.888 400.47 389.576 374.657 367.277C360.684 355.207 346.715 343.131 332.715 331.092C331.779 330.287 330.589 329.777 328.654 328.609C329.29 338.537 329.799 347.562 330.462 356.575C331.533 371.161 332.954 385.726 333.715 400.327C334.021 406.198 330.968 410.847 324.792 413.546C323.564 413.775 322.933 413.899 322.301 414.023C322.067 414.178 321.833 414.334 320.769 414.574C316.332 414.914 312.725 415.169 309.119 415.424C308.94 415.481 308.761 415.538 308.265 415.229C306.724 414.78 305.501 414.695 304.277 414.611C304.277 414.611 304.16 414.679 304.118 414.312C304.069 413.539 304.062 413.132 304.521 412.717C307.985 412.717 310.982 412.752 313.978 412.727C326.509 412.626 332.41 405.648 331.039 393.291C329.781 381.951 329.067 370.551 328.097 359.179C327.365 350.607 326.46 342.047 325.96 333.462C325.822 331.099 326.858 328.667 327.355 326.266C329.747 327.094 332.662 327.313 334.447 328.847C346.588 339.281 358.119 350.456 370.606 360.444C378.561 366.807 386.088 373.505 393.498 380.457C401.29 387.768 409.771 394.341 417.933 401.258C427.87 409.68 437.777 418.136 447.722 426.549C450.502 428.901 453.218 431.376 456.234 433.39C459.52 435.585 463.177 435.797 466.291 432.99C469.832 429.799 473.427 426.579 476.443 422.915C480.986 417.394 479.748 410.601 474.097 406.022C470.622 403.207 467.414 400.064 464.037 397.126C457.164 391.145 450.252 385.209 443.365 379.243C435.157 372.131 427.003 364.955 418.739 357.908C414.089 353.944 409.093 350.374 404.57 346.276C399.836 341.987 395.483 337.278 391.065 332.542C391.348 332.069 391.586 331.874 391.879 331.746C392.453 332.096 393.027 332.447 393.818 333.315C394.23 334.227 394.425 334.622 394.62 335.016C394.821 334.791 395.022 334.565 395.223 334.34Z" fill="#A8DF3B"/>
<path d="M303.388 263.582C306.697 263.265 310.006 262.948 314.132 262.68C315.447 262.683 315.944 262.637 316.442 262.59C319.717 262.598 322.991 262.606 327.024 262.651C328.525 262.363 329.267 262.038 330.01 261.713C337.388 261.352 344.767 260.99 352.835 260.689C354.024 260.511 354.524 260.271 355.023 260.031C356.098 259.664 357.174 259.296 358.844 259.154C359.958 259.245 360.477 259.112 360.996 258.978C362.526 258.902 364.057 258.826 366.458 258.784C370.528 258.577 373.727 258.334 376.926 258.092C377.42 258.009 377.915 257.926 378.957 258.102C380.319 258.158 381.134 257.954 381.949 257.75C394.7 256.683 407.466 255.777 420.196 254.5C431.378 253.377 437.305 257.974 438.214 268.984C438.446 271.796 439.011 274.593 439.071 277.404C439.257 286.083 434.554 291.925 425.971 292.619C402.631 294.504 379.26 296.014 355.289 297.382C354.166 296.96 353.655 296.829 353.182 296.343C355.475 291.908 358.927 294.899 361.762 294.677C380.247 293.228 398.763 292.177 417.237 290.615C422.201 290.195 427.806 289.619 431.786 287.052C438.052 283.01 438.535 276.515 434.42 265.336C431.594 257.659 428.065 255.898 420.411 256.733C409.398 257.935 398.343 258.786 387.294 259.62C376.557 260.429 365.792 260.871 355.062 261.754C336.6 263.272 318.159 265.052 299.701 266.627C293.439 267.162 288.849 271.569 289.099 277.9C289.587 290.317 290.253 302.733 291.167 315.125C292.64 335.085 294.425 355.022 295.932 374.98C296.125 377.531 295.442 380.148 294.948 382.723C294.445 382.691 294.158 382.672 293.87 382.655C293.64 379.609 293.411 376.563 293.449 372.883C293.456 371.396 293.196 370.543 292.937 369.69C292.746 368.919 292.556 368.148 292.587 366.828C292.7 365.783 292.592 365.289 292.483 364.794C292.395 363.343 292.307 361.891 292.494 359.793C292.466 357.995 292.162 356.842 291.859 355.69C291.665 352.621 291.471 349.552 291.534 345.806C291.499 343.983 291.206 342.838 290.913 341.692C290.71 338.956 290.507 336.22 290.574 332.726C290.214 325.771 289.586 319.574 288.957 313.377C288.863 311.592 288.769 309.808 288.827 307.187C288.272 297.908 287.565 289.465 286.858 281.022C286.684 280.484 286.51 279.946 286.587 278.686C286.827 276.984 286.815 276.004 286.802 275.025C286.584 274.803 286.54 274.551 286.926 273.822C287.527 272.417 287.872 271.459 288.217 270.5C288.286 270.306 288.356 270.113 288.663 269.683C288.901 269.448 288.972 269.314 288.972 269.314C291.536 263.949 297.002 265.168 302.066 263.771C302.982 263.65 303.185 263.616 303.388 263.582Z" fill="#ACE33C"/>
<path d="M873.85 178.879C869.267 189.275 857.622 192.033 849.427 184.478C846.161 181.468 842.932 178.251 840.428 174.617C835.205 167.036 837.943 159.677 848.967 151.744C851.437 152.946 853.283 154.298 855.129 155.65C855.129 155.65 855.062 155.689 854.96 156.012C855.284 156.447 855.711 156.559 856.137 156.672C856.137 156.672 856.066 156.685 855.997 157.006C856.332 157.441 856.735 157.556 857.138 157.67C857.138 157.67 857.067 157.686 856.955 158.042C857.272 158.484 857.702 158.568 858.132 158.653C858.132 158.653 858.054 158.696 857.806 158.953C860.416 162.025 863.274 164.841 866.132 167.657C866.132 167.657 866.064 167.686 865.977 168.013C866.306 168.449 866.721 168.556 867.136 168.664C867.136 168.664 867.066 168.685 866.988 169.02C867.318 169.457 867.727 169.558 868.136 169.659C868.136 169.659 868.057 169.696 867.822 169.964C869.102 171.708 870.618 173.185 872.134 174.663C872.134 174.663 872.065 174.685 871.984 175.023C872.314 175.461 872.725 175.56 873.136 175.659C873.136 175.659 873.052 175.697 872.806 175.847C872.989 176.958 873.419 177.919 873.85 178.879Z" fill="#8709E7"/>
<path d="M576.101 5.93658C575.198 6.26465 574.241 6.978 573.4 6.86166C564.236 5.59543 555.122 3.84552 545.923 3.03751C542.861 2.76852 538.731 3.91736 536.572 5.97412C527.468 14.6473 518.944 23.9284 510.159 32.9396C507.974 35.1804 505.411 37.0725 503.368 39.4256C499.768 43.5714 499.961 48.8887 503.748 52.9232C506.937 56.3199 510.251 59.607 513.634 62.8109C516.783 65.7923 522.824 65.5729 526.027 62.1173C526.052 61.6994 526.108 61.7571 526.108 61.7571C527.341 61.0029 528.756 60.4391 529.78 59.4644C538.634 51.0331 547.463 42.5745 556.208 34.0298C563.027 27.3668 569.686 20.5404 576.475 13.8465C579.108 11.2504 579.182 11.3254 581.321 13.5122C579.658 14.7194 578.042 15.5319 576.821 16.7422C561.449 31.9699 546.126 47.2466 530.808 62.5291C523.588 69.7331 515.826 69.6992 508.639 62.3752C506.657 60.3555 504.669 58.3417 502.705 56.305C496.339 49.7039 496.402 42.3559 503.017 35.7003C514.748 23.8961 526.545 12.1568 538.738 0C544.249 0.278046 549.367 0.769409 554.415 1.65677C561.67 2.93216 568.875 4.49594 576.101 5.93658Z" fill="#ACE33C"/>
<path d="M86.3927 575.757C86.0644 575.078 86.0703 574.7 86.4585 574.067C90.423 575.023 90.0147 578.019 90.0145 580.855C90.0099 630.018 90.13 679.181 89.8992 728.342C89.8591 736.884 89.7217 744.912 97.9978 750.113C98.1016 750.178 98.0927 750.423 97.96 750.657C97.5571 751.027 97.3305 751.323 97.1039 751.619C90.0942 749.767 87.1572 745.901 87.1549 738.273C87.1398 687.846 87.1575 637.419 87.1316 586.991C87.1298 583.347 86.8679 579.702 86.3927 575.757Z" fill="#9EDA26"/>
<path d="M581.1 15.0127C581.971 16.3499 583.277 18.1164 583.472 19.9982C583.929 24.385 583.968 28.8272 583.972 33.2472C584.004 71.331 584.051 109.415 583.948 147.499C583.921 157.274 583.377 167.048 582.809 177.449C582.447 178.888 582.345 179.701 582.213 180.542C582.183 180.571 582.122 180.629 582.122 180.629C581.747 178.353 581.048 176.078 581.046 173.802C580.995 121.033 581.02 68.2636 581.1 15.0127Z" fill="#ACE33C"/>
<path d="M116.97 855.788C110.498 851.866 110.172 847.618 115.894 843.311C117.74 841.922 119.331 840.193 121.626 838.077C115.261 831.273 109.167 824.758 103.072 818.245C102.845 818.003 101.767 816.951 101.553 816.699C100.193 815.102 99.6612 814.334 98.3067 812.732C96.2393 814.626 93.9362 816.325 92.172 818.468C90.4668 820.54 89.2775 822.953 86.2812 819.946C86.3396 819.469 86.6745 819.188 86.6745 819.188C87.7585 818.81 89.0572 818.69 89.8832 818.002C91.7908 816.414 93.4123 814.488 95.2511 812.81C101.384 807.213 108.776 807.317 114.822 813.08C117.226 815.371 119.568 817.729 121.887 820.106C127.571 825.929 127.925 833.536 122.398 839.574C119.394 842.856 115.775 845.574 112.192 848.762C114.5 851.311 116.038 853.01 117.51 855.116C117.286 855.612 117.128 855.7 116.97 855.788Z" fill="#F6F6F6"/>
<path d="M126.018 174.457C125.688 176.236 125.755 178.228 124.94 179.748C123.497 182.44 121.986 185.45 119.667 187.248C114.233 191.463 97.0478 190.633 91.4414 185.807C93.357 182.656 94.9557 179.926 97.0111 177.6C104.716 168.882 112.521 160.249 120.431 151.717C121.395 150.677 123.223 150.437 124.65 149.827C125.236 151.218 126.312 152.605 126.323 154C126.377 160.818 126.147 167.638 126.018 174.457ZM109.014 167.182C105.735 170.908 102.298 174.509 99.2422 178.409C97.6367 180.458 96.6978 183.03 95.4579 185.365C98.1292 185.827 100.787 186.576 103.474 186.704C118.207 187.406 124.265 185.323 123.129 167.034C122.86 162.709 123.089 158.353 123.089 154.01C122.562 153.88 122.035 153.75 121.508 153.619C117.51 157.973 113.513 162.326 109.014 167.182Z" fill="#B1E743"/>
<path d="M876.075 819.213C877.509 819.068 878.943 818.924 880.838 819.266C880.625 821.214 880.24 822.924 879.231 824.097C872.011 832.498 864.604 840.737 857.389 849.143C854.77 852.194 852.515 855.558 850.094 858.779C850.094 858.779 850.065 858.706 849.786 858.627C848.735 858.941 847.963 859.333 846.738 859.686C842.897 859.969 839.51 860.292 835.845 860.423C835.26 855.147 839.236 855.405 841.945 856.097C845.533 857.014 847.743 855.718 849.846 853.449C857.59 845.093 865.406 836.796 872.886 828.207C874.572 826.272 875.009 823.25 876.03 820.476C876.051 819.886 876.063 819.549 876.075 819.213Z" fill="#ACE33C"/>
<path d="M123.976 577.703C124.318 579.59 124.956 581.477 124.958 583.365C125.016 635.493 125.009 687.622 125.032 740.217C125.073 740.858 125.094 741.032 124.764 741.467C124.226 741.731 124.04 741.734 123.889 741.266C123.947 687.446 123.97 634.098 123.999 580.467C123.991 579.997 123.977 579.809 123.959 579.301C123.962 578.556 123.969 578.129 123.976 577.703Z" fill="#B1E743"/>
<path d="M618.047 577.923C618.278 577.682 618.477 577.702 618.975 577.754C619.339 589.755 619.458 601.723 619.46 613.692C619.467 653.932 619.433 694.173 619.243 735.287C618.7 738.04 618.327 739.918 617.955 741.797C617.964 688.082 617.974 634.367 617.998 579.933C618.007 579.045 618.001 578.877 617.996 578.709C618.002 578.534 618.009 578.359 618.047 577.923Z" fill="#AEE540"/>
<path d="M236.483 892.043C225.167 892.443 213.54 892.621 201.912 892.722C194.594 892.785 187.276 892.731 179.487 892.72C171.961 892.701 164.906 892.741 157.853 892.639C156.574 892.621 155.303 892.021 154.17 891.031C154.424 890.218 154.536 890.061 154.648 889.904C157 890.479 159.348 891.537 161.703 891.553C186.526 891.728 211.349 891.736 236.483 892.043Z" fill="#E7E7E7"/>
<path d="M875.644 819.085C876.063 819.549 876.051 819.886 875.605 820.482C873.18 820.752 871.189 820.763 868.883 820.767C868.059 821.068 867.551 821.376 866.724 821.705C865.977 821.729 865.55 821.732 864.649 821.719C861.055 821.703 857.919 821.499 854.818 821.745C848.217 822.269 841.634 823.028 834.679 823.707C833.583 823.726 832.853 823.728 831.654 823.717C827.134 824.043 823.081 824.383 818.724 824.739C818.013 824.762 817.607 824.768 816.774 824.748C813.914 825.048 811.48 825.376 808.589 825.717C804.498 825.752 800.864 825.774 796.845 825.763C795.317 826.058 794.173 826.387 792.603 826.74C787.854 827.094 783.532 827.425 778.851 827.758C777.363 828.098 776.236 828.435 775.022 828.677C774.936 828.582 774.762 828.395 774.762 828.395C777.179 827.473 779.548 825.918 782.022 825.729C805.643 823.927 829.283 822.372 852.915 820.708C860.352 820.184 867.781 819.544 875.644 819.085Z" fill="#A7DD3D"/>
<path d="M617.873 178.626C617.914 136.986 617.959 95.3453 617.993 53.705C618.001 43.045 617.974 32.385 617.994 20.878C618.122 18.9504 618.221 17.8697 618.319 16.7891C618.513 16.8067 618.707 16.8244 618.901 16.842C618.985 18.2514 619.069 19.6608 619.152 21.0702C619.257 22.0566 619.452 23.0429 619.452 24.0293C619.45 73.5002 619.432 122.971 619.247 173.346C619.107 175.199 619.135 176.147 619.163 177.094C619.244 177.454 619.325 177.814 618.957 178.422C618.296 178.655 618.085 178.641 617.873 178.626Z" fill="#B1E743"/>
<path d="M581.1 578.195C581.474 578.234 581.77 578.734 582.113 579.537C582.161 581.801 582.161 583.762 582.124 586.627C582.111 635.969 582.136 684.405 582.16 732.841C582.168 734.147 582.176 735.453 582.072 737.383C581.705 738.231 581.451 738.455 581.196 738.68C581.13 730.375 581.009 722.07 581.007 713.766C580.996 668.729 581.014 623.693 581.1 578.195Z" fill="#AEE540"/>
<path d="M286.319 840.586C285.908 831.741 291.875 826.145 301.521 825.539C321.522 824.282 341.503 822.709 361.478 821.781C359.655 822.431 357.841 822.52 356.037 822.708C349.693 823.368 343.354 824.061 336.713 824.751C336.014 824.761 335.614 824.761 334.896 824.753C334.062 825.051 333.547 825.357 332.585 825.686C329.46 825.71 326.78 825.712 323.708 825.703C322.527 825.707 321.739 825.721 320.545 825.749C318.512 825.771 316.885 825.781 314.913 825.773C313.717 826.071 312.868 826.386 311.671 826.716C310.627 826.746 309.931 826.761 308.915 826.761C308.073 827.049 307.552 827.353 306.707 827.677C305.949 827.7 305.516 827.702 304.696 827.697C303.535 827.699 302.761 827.708 301.601 827.729C295.238 828.927 290.377 831.592 287.838 837.825C287.169 838.859 286.744 839.722 286.319 840.586Z" fill="#A2D936"/>
<path d="M850.457 858.743C852.514 855.558 854.768 852.194 857.388 849.143C864.602 840.737 872.01 832.498 879.23 824.097C880.239 822.924 880.624 821.214 881.253 819.388C881.979 818.843 882.748 818.662 883.785 818.783C884.078 819.32 884.102 819.555 884.126 819.79C883.715 824.089 881.536 827.121 878.462 830.257C870.618 838.261 863.473 846.946 855.908 855.229C854.56 856.705 852.534 857.563 850.457 858.743Z" fill="#EEFBC3"/>
<path d="M847.123 861.772C840.338 868.784 833.662 875.906 826.716 882.755C823.729 885.7 820.182 888.077 816.487 890.722C816.083 890.732 816.042 890.688 816.01 890.339C821.504 884.843 827.151 879.819 832.506 874.499C835.375 871.65 837.738 868.292 840.687 865.268C842.865 863.973 844.686 862.572 846.661 861.321C846.816 861.471 847.123 861.772 847.123 861.772Z" fill="#EEFBC3"/>
<path d="M391.701 331.483C391.585 331.874 391.347 332.069 390.725 332.486C382.216 325.639 374.147 318.638 366.27 311.383C366.834 310.935 367.206 310.74 367.579 310.545C375.561 317.437 383.542 324.328 391.701 331.483Z" fill="#A2D936"/>
<path d="M771.262 879.66C770.202 866.443 768.756 853.238 768.344 840.002C768.237 836.559 771.36 833.016 773.409 829.481C773.819 829.443 774.078 829.719 774.04 830.035C773.675 831.133 773.348 831.914 772.795 832.881C772.352 833.605 772.135 834.143 771.604 834.737C770.893 835.478 770.498 836.162 770.109 837.285C770.119 840.653 770.123 843.582 770.098 846.963C770.719 850.845 771.37 854.275 772.042 858.171C772.073 863.621 772.083 868.605 772.078 873.991C771.796 876.149 771.529 877.904 771.262 879.66Z" fill="#A7DD3D"/>
<path d="M293.851 944.918C293.604 941.802 293.357 938.686 293.377 934.929C293.377 933.424 293.108 932.559 292.84 931.693C292.687 931.224 292.534 930.755 292.637 929.573C292.96 924.784 293.025 920.709 293.359 916.908C294.422 924.999 295.282 932.811 295.975 940.638C296.211 943.315 296.029 946.029 295.806 948.557C294.999 947.231 294.425 946.075 293.851 944.918Z" fill="#A6DD3A"/>
<path d="M337.014 824.741C343.355 824.061 349.694 823.368 356.038 822.708C357.842 822.52 359.656 822.431 361.758 822.008C364.385 821.692 366.719 821.665 369.913 821.662C371.902 821.706 373.032 821.726 374.026 822.126C372.209 822.886 370.545 823.473 368.844 823.611C363.09 824.077 357.327 824.504 351.559 824.715C346.717 824.892 341.863 824.745 337.014 824.741Z" fill="#ACE33C"/>
<path d="M332.784 956.811C336.852 967.283 329.026 978.405 317.464 976.85C317.072 976.255 317.087 975.959 317.403 975.651C318.111 975.632 318.515 975.626 319.323 975.649C321.166 975.079 322.607 974.479 324.402 973.826C325.838 973.428 326.92 973.083 328.303 972.586C329.06 971.474 329.515 970.515 330.008 969.25C330.385 968.201 330.725 967.459 331.314 966.532C331.706 965.76 331.85 965.171 331.988 964.202C331.988 962.813 331.993 961.805 332.013 960.443C332.281 958.997 332.532 957.904 332.784 956.811Z" fill="#A2D936"/>
<path d="M586.166 184.566C587.438 185.321 588.71 186.077 590.242 187.488C592.351 187.99 594.201 187.836 596.05 187.682C598.535 187.502 601.019 187.323 604.034 187.698C606.359 188.365 608.154 188.478 610.023 188.673C610.099 188.754 610.248 188.92 610.248 188.92C601.829 189.475 593.182 192.193 585.525 185.851C585.792 185.125 585.979 184.845 586.166 184.566Z" fill="#ACE33C"/>
<path d="M293.77 945.31C294.425 946.075 294.999 947.232 295.826 949.009C296.088 952.947 296.097 956.264 296.087 960.021C296.793 964.479 297.517 968.495 298.216 972.536C298.19 972.562 298.136 972.611 298.136 972.611C293.13 967.45 295.477 960.63 294.174 954.637C293.548 951.76 293.823 948.686 293.77 945.31Z" fill="#A2D936"/>
<path d="M773.341 906.587C772.732 898.585 772.123 890.583 771.824 882.133C772.45 881.715 772.765 881.734 773.092 882.046C773.101 882.755 773.099 883.161 773.078 884.018C773.376 887.212 773.693 889.953 774.035 893.135C774.073 895.907 774.088 898.238 774.083 900.967C773.823 903.105 773.582 904.846 773.341 906.587Z" fill="#A7DD3D"/>
<path d="M288.714 869.278C288.027 860.719 287.341 852.16 286.939 843.152C287.502 842.718 287.78 842.729 288.071 843.189C288.102 846.946 288.119 850.253 288.113 853.914C288.409 855.086 288.728 855.904 289.065 857.173C289.108 860.586 289.133 863.548 289.108 866.975C288.943 868.053 288.828 868.665 288.714 869.278Z" fill="#A2D936"/>
<path d="M367.378 310.234C367.207 310.74 366.835 310.935 365.923 311.357C361.279 307.615 357.174 303.646 353.385 299.687C354.121 299.707 354.542 299.716 354.962 299.726C355.948 300.508 356.934 301.29 358.146 302.341C358.372 302.611 358.324 302.689 358.324 302.689C358.324 302.689 358.77 302.839 358.996 303.142C359.367 303.577 359.53 303.68 359.712 303.755C360.722 304.522 361.732 305.289 363.013 306.283C363.284 306.509 363.148 306.475 363.148 306.475C363.347 306.663 363.545 306.852 364.018 307.302C364.294 307.563 364.154 307.551 364.154 307.551C364.371 307.703 364.587 307.855 365.061 308.308C365.319 308.611 365.364 308.692 365.364 308.692C365.968 309.102 366.572 309.513 367.378 310.234Z" fill="#ACE33C"/>
<path d="M304.054 412.725C304.061 413.132 304.068 413.539 304.09 414.25C297.967 412.58 295.378 408.057 295.03 401.923C294.927 400.113 294.823 398.303 294.999 396.09C295.532 395.693 295.787 395.697 296.057 396.129C295.732 403.429 298.174 408.926 304.054 412.725Z" fill="#A6DD3A"/>
<path d="M97.4994 751.877C97.3301 751.323 97.5567 751.027 98.417 750.68C103.721 750.609 108.391 750.591 113.263 750.504C113.721 750.28 113.891 750.059 114.252 749.744C114.709 749.694 114.892 749.672 115.454 749.646C117.774 749.035 119.713 748.427 121.652 747.82C119.807 749.059 117.962 750.299 115.749 751.576C115.381 751.615 115.412 751.573 115.412 751.573C109.573 751.761 103.734 751.948 97.4994 751.877Z" fill="#B1E743"/>
<path d="M306.577 979.134C304.968 979.106 303.45 978.597 301.74 977.912C300.52 976.267 299.492 974.798 298.299 972.97C298.135 972.611 298.188 972.561 298.554 972.601C299.614 972.658 300.308 972.675 301.024 972.7C301.046 972.707 301.065 972.748 301.103 973.071C302.17 974.132 303.198 974.871 304.525 975.614C305.221 975.635 305.618 975.652 306.376 975.833C309.479 976.498 312.223 976.998 314.966 977.498C312.2 977.883 309.434 978.268 306.577 979.134Z" fill="#A2D936"/>
<path d="M617.556 178.709C618.084 178.64 618.296 178.655 618.826 178.673C618.609 183.836 615.541 186.956 610.6 188.885C610.248 188.92 610.099 188.754 610.051 188.405C609.996 187.876 609.989 187.697 609.982 187.517C612.401 184.609 614.821 181.701 617.556 178.709Z" fill="#ACE33C"/>
<path d="M290.358 894.569C289.752 886.835 289.146 879.102 288.98 871.021C289.634 870.693 289.847 870.713 290.075 871.167C290.098 873.923 290.105 876.244 290.093 879.036C290.42 883.256 290.767 887.005 291.122 891.051C291.133 891.743 291.136 892.137 291.112 892.815C290.842 893.588 290.6 894.079 290.358 894.569Z" fill="#A2D936"/>
<path d="M330.773 922.767C331.359 930.806 331.945 938.846 332.213 947.292C331.597 947.689 331.298 947.679 330.993 947.323C330.977 946.284 330.967 945.591 330.99 944.449C330.697 941.558 330.373 939.116 330.034 936.236C329.999 933.491 329.979 931.183 329.986 928.473C330.266 926.302 330.519 924.534 330.773 922.767Z" fill="#A2D936"/>
<path d="M585.152 745.665C587.746 747.091 590.34 748.517 592.825 750.373C592.503 751.161 592.29 751.52 592.077 751.879C589.161 750.003 586.245 748.127 583.294 745.907C583.26 745.563 583.284 745.547 583.473 745.682C584.159 745.766 584.655 745.715 585.152 745.665Z" fill="#A2D936"/>
<path d="M331 947.669C331.299 947.679 331.597 947.689 332.119 947.697C332.546 950.431 332.749 953.167 332.868 956.357C332.532 957.904 332.281 958.997 331.694 960.213C331.239 956.114 331.12 951.891 331 947.669Z" fill="#A6DD3A"/>
<path d="M286.766 281.449C287.564 289.465 288.271 297.908 288.935 306.818C288.152 298.816 287.413 290.346 286.766 281.449Z" fill="#A6DD3A"/>
<path d="M374.161 821.747C373.031 821.726 371.901 821.706 370.348 821.664C375.929 820.858 381.934 820.074 388.119 819.492C387.909 820.053 387.519 820.414 387.116 820.761C387.104 820.747 387.093 820.751 386.721 820.736C385.232 821.053 384.116 821.385 382.555 821.73C379.46 821.744 376.81 821.745 374.161 821.747Z" fill="#A2D936"/>
<path d="M592.494 752.103C592.291 751.52 592.504 751.161 592.911 750.706C597.785 750.613 602.464 750.617 607.597 750.837C608.021 751.346 608 751.638 607.989 751.931C602.963 752.063 597.936 752.195 592.494 752.103Z" fill="#AEE540"/>
<path d="M619.283 20.701C619.068 19.661 618.984 18.2516 618.9 16.8422C618.706 16.8245 618.513 16.8069 618.319 16.7892C618.22 17.8699 618.122 18.9506 617.997 20.4158C615.683 18.6953 613.397 16.5902 611.393 14.0797C611.928 13.6276 612.182 13.5809 612.435 13.5342C614.687 13.945 616.939 14.3559 619.549 14.8741C619.742 16.7649 619.578 18.5482 619.283 20.701Z" fill="#ACE33C"/>
<path d="M288.828 313.757C289.585 319.575 290.214 325.772 290.628 332.265C289.842 326.42 289.271 320.279 288.828 313.757Z" fill="#A6DD3A"/>
<path d="M1.10426 344.003C2.16203 343.202 3.1365 342.72 4.64159 341.976C4.27771 344.927 3.95102 347.576 3.32062 350.469C2.61061 350.725 2.2043 350.737 1.23515 350.613C0.448212 350.166 0.224106 349.854 0 349.542C0.007626 349.124 0.0152465 348.706 0.394814 347.959C0.814499 346.964 0.86224 346.298 0.909981 345.632C0.94698 345.195 0.983975 344.758 1.10426 344.003Z" fill="#E7E7E7"/>
<path d="M293.09 916.634C293.025 920.709 292.959 924.784 292.704 929.203C292.121 924.55 291.727 919.554 291.699 914.129C292.402 913.712 292.738 913.724 293.083 914.098C293.092 915.185 293.091 915.909 293.09 916.634Z" fill="#A2D936"/>
<path d="M866.109 167.302C863.275 164.841 860.417 162.025 857.84 158.922C860.776 161.406 863.431 164.176 866.109 167.302Z" fill="#E7E7E7"/>
<path d="M315.334 977.522C312.222 976.997 309.479 976.497 306.652 975.571C310.08 975.317 313.59 975.49 317.101 975.663C317.087 975.959 317.072 976.255 317.055 976.774C316.603 977.18 316.153 977.363 315.334 977.522Z" fill="#A6DD3A"/>
<path d="M291.427 908.541C291.078 905.215 290.73 901.889 290.751 898.133C291.433 897.716 291.745 897.729 292.071 898.173C292.086 900.628 292.087 902.651 291.917 904.766C291.862 905.133 291.978 905.408 292.083 905.687C292.071 905.69 292.088 905.658 292.08 905.966C291.857 907.03 291.642 907.786 291.427 908.541Z" fill="#A2D936"/>
<path d="M291.342 908.967C291.643 907.786 291.858 907.03 292.449 906.067C292.907 908.485 292.991 911.11 293.074 913.736C292.738 913.724 292.402 913.712 291.814 913.699C291.46 912.264 291.357 910.828 291.342 908.967Z" fill="#A6DD3A"/>
<path d="M296.042 395.699C295.787 395.697 295.532 395.693 295.087 395.694C294.719 395.242 294.542 394.783 294.591 393.747C294.652 392.37 294.487 391.569 294.321 390.768C294.249 389.667 294.176 388.566 294.403 386.853C294.855 385.667 295.008 385.094 295.499 384.653C295.906 388.424 295.974 392.061 296.042 395.699Z" fill="#ACE33C"/>
<path d="M401.259 818.599C403.666 818.415 406.074 818.232 409.164 818.311C410.919 818.619 411.99 818.664 413.055 818.944C413.048 819.18 413.039 819.65 412.582 819.676C408.468 819.716 404.811 819.73 400.88 819.729C400.422 819.709 400.239 819.704 400.195 819.458C400.643 819.01 400.951 818.805 401.259 818.599Z" fill="#A6DD3A"/>
<path d="M330.824 922.414C330.521 924.534 330.268 926.302 329.636 928.325C329.177 925.938 329.097 923.298 329.252 920.667C329.802 920.699 330.116 920.716 330.43 920.73C330.579 921.173 330.727 921.617 330.824 922.414Z" fill="#A6DD3A"/>
<path d="M581.125 739.055C581.452 738.455 581.707 738.231 582.08 737.774C583.136 739.687 584.074 741.832 584.776 744.232C584.123 744.84 583.704 745.193 583.285 745.547C583.285 745.547 583.261 745.563 583.249 745.572C582.509 743.53 581.781 741.48 581.125 739.055Z" fill="#A2D936"/>
<path d="M775.054 908.732C774.757 908.725 774.46 908.708 773.941 908.678C773.559 908.222 773.399 907.768 773.291 906.951C773.583 904.846 773.824 903.106 774.442 901.102C774.898 903.47 774.976 906.101 775.054 908.732Z" fill="#B1E743"/>
<path d="M773.082 881.742C772.766 881.734 772.451 881.715 771.899 881.683C771.496 881.242 771.33 880.805 771.213 880.014C771.528 877.904 771.795 876.149 772.436 874.12C772.901 876.478 772.991 879.11 773.082 881.742Z" fill="#B1E743"/>
<path d="M387.129 820.774C387.519 820.414 387.909 820.053 388.492 819.605C391.181 819.319 393.678 819.121 396.609 819.157C397.043 819.391 397.025 819.696 396.818 819.804C396.345 820.096 396.16 820.342 395.606 820.671C392.481 820.721 389.805 820.748 387.129 820.774Z" fill="#A6DD3A"/>
<path d="M121.804 747.801C119.714 748.427 117.775 749.035 115.512 749.315C117.435 747.562 119.681 746.136 121.963 745.134C122.058 746.122 122.118 746.687 122.177 747.251C122.228 747.48 122.153 747.657 121.804 747.801Z" fill="#9EDA26"/>
<path d="M816.104 890.755C814.353 892.425 812.581 894.072 810.445 895.724C810.08 895.728 810.042 895.692 810.006 895.318C810.632 891.585 813.063 890.747 816.041 890.688C816.041 890.688 816.083 890.732 816.104 890.755Z" fill="#EEFBC3"/>
<path d="M413.06 818.709C411.989 818.664 410.918 818.619 409.568 818.42C412.478 817.905 415.666 817.544 419.233 817.406C417.947 817.792 416.283 817.956 414.086 818.41C413.554 818.701 413.06 818.709 413.06 818.709Z" fill="#A2D936"/>
<path d="M610.98 749.622C612.733 748.281 614.486 746.941 616.602 745.823C616.967 746.046 616.982 746.464 616.982 746.464C615.267 747.923 613.552 749.382 611.449 750.568C611.035 750.072 611.008 749.847 610.98 749.622Z" fill="#AEE540"/>
<path d="M309.562 415.485C312.724 415.169 316.33 414.914 320.35 414.637C317.178 414.924 313.593 415.235 309.562 415.485Z" fill="#A6DD3A"/>
<path d="M292.058 897.741C291.746 897.729 291.433 897.716 290.887 897.703C290.512 896.922 290.372 896.141 290.295 894.964C290.6 894.079 290.842 893.589 291.445 892.938C291.89 894.433 291.974 896.087 292.058 897.741Z" fill="#A6DD3A"/>
<path d="M288.059 842.738C287.781 842.729 287.503 842.718 287.017 842.7C286.619 842.242 286.429 841.787 286.279 840.958C286.745 839.722 287.17 838.859 288.088 838.075C288.408 839.682 288.233 841.21 288.059 842.738Z" fill="#A6DD3A"/>
<path d="M617.933 741.965C618.327 739.918 618.7 738.04 619.126 735.716C618.918 738.265 618.656 741.258 618.137 744.522C617.879 744.793 617.762 744.682 617.844 744.268C617.923 743.394 617.92 742.934 617.916 742.474C617.916 742.474 617.911 742.134 617.933 741.965Z" fill="#A2D936"/>
<path d="M122.481 747.058C122.117 746.686 122.057 746.122 122.027 744.829C122.656 743.313 123.255 742.525 123.854 741.737C124.04 741.734 124.226 741.731 124.692 741.719C124.243 743.428 123.514 745.147 122.481 747.058Z" fill="#A8DF3B"/>
<path d="M872.114 174.317C870.619 173.185 869.103 171.708 867.854 169.933C869.444 171.08 870.769 172.525 872.114 174.317Z" fill="#E7E7E7"/>
<path d="M583.345 180.572C584.234 181.377 585.122 182.183 585.749 183.352C585.039 183.962 584.59 184.207 584.141 184.452C583.456 183.394 582.77 182.336 582.104 180.953C582.122 180.629 582.183 180.571 582.486 180.59C582.975 180.596 583.16 180.584 583.345 180.572Z" fill="#ACE33C"/>
<path d="M376.503 257.979C373.727 258.335 370.528 258.577 366.916 258.838C369.696 258.526 372.888 258.195 376.503 257.979Z" fill="#9EDA26"/>
<path d="M330.501 920.359C330.116 920.716 329.801 920.699 329.242 920.321C328.977 919.273 328.957 918.582 328.938 917.892C329.108 916.999 329.279 916.106 329.697 914.979C330.154 916.493 330.363 918.24 330.501 920.359Z" fill="#A2D936"/>
<path d="M610.67 749.649C611.006 749.847 611.034 750.072 611.103 750.634C610.28 751.358 609.415 751.745 608.269 752.032C607.999 751.639 608.02 751.346 608.063 750.833C608.838 750.3 609.6 749.988 610.67 749.649Z" fill="#A2D936"/>
<path d="M290.059 870.732C289.846 870.713 289.633 870.693 289.102 870.637C288.58 870.337 288.497 870.04 288.625 869.494C288.829 868.665 288.944 868.052 289.424 867.099C289.88 868.083 289.969 869.407 290.059 870.732Z" fill="#A6DD3A"/>
<path d="M290.793 342.013C291.205 342.838 291.497 343.983 291.6 345.343C291.164 344.483 290.919 343.408 290.793 342.013Z" fill="#A6DD3A"/>
<path d="M291.75 356.013C292.161 356.842 292.464 357.995 292.57 359.362C292.129 358.497 291.886 357.416 291.75 356.013Z" fill="#A6DD3A"/>
<path d="M151.343 887.333C152.393 887.941 153.329 888.692 154.457 889.673C154.536 890.061 154.424 890.218 154.125 890.595C152.962 890.031 151.985 889.247 151.002 888.109C150.995 887.756 151.229 887.475 151.343 887.333Z" fill="#E7E7E7"/>
<path d="M847.191 859.725C847.963 859.333 848.735 858.941 849.819 858.648C849.367 859.744 848.603 860.741 847.481 861.755C847.124 861.772 846.817 861.471 846.795 861.082C846.912 860.371 847.052 860.048 847.191 859.725Z" fill="#EEFBC3"/>
<path d="M295.161 384.52C295.008 385.094 294.856 385.668 294.486 386.446C294.071 385.535 293.874 384.421 293.773 382.981C294.157 382.673 294.445 382.691 294.94 383.022C295.152 383.728 295.156 384.124 295.161 384.52Z" fill="#A6DD3A"/>
<path d="M397.025 819.696C397.025 819.696 397.043 819.391 397.066 819.24C398.277 818.87 399.464 818.651 400.955 818.516C400.95 818.805 400.642 819.01 399.816 819.46C398.54 819.702 397.783 819.699 397.025 819.696Z" fill="#A2D936"/>
<path d="M292.734 931.982C293.108 932.559 293.376 933.424 293.435 934.464C293.027 933.849 292.828 933.06 292.734 931.982Z" fill="#A2D936"/>
<path d="M292.842 369.982C293.195 370.544 293.454 371.396 293.52 372.424C293.134 371.824 292.941 371.049 292.842 369.982Z" fill="#A6DD3A"/>
<path d="M286.573 275.209C286.813 276.005 286.826 276.984 286.627 278.261C286.392 277.503 286.368 276.448 286.573 275.209Z" fill="#A6DD3A"/>
<path d="M354.879 299.345C354.541 299.716 354.12 299.707 353.364 299.315C353.067 298.187 353.105 297.442 353.143 296.697C353.654 296.829 354.164 296.96 354.835 297.307C354.929 298.003 354.863 298.484 354.879 299.345Z" fill="#A2D936"/>
<path d="M381.771 257.561C381.133 257.954 380.318 258.158 379.328 258.169C379.966 257.774 380.78 257.572 381.771 257.561Z" fill="#9EDA26"/>
<path d="M304.557 414.777C305.5 414.695 306.724 414.779 308.001 415.131C306.982 415.246 305.909 415.094 304.557 414.777Z" fill="#A6DD3A"/>
<path d="M433.93 820.532C433.324 820.402 432.707 820.049 432.01 819.48C432.592 819.613 433.256 819.962 433.93 820.532Z" fill="#A2D936"/>
<path d="M10.824 335.003C10.5134 335.792 9.90156 336.673 8.92383 337.519C9.21288 336.689 9.86783 335.892 10.824 335.003Z" fill="#E7E7E7"/>
<path d="M287.983 270.569C287.87 271.459 287.525 272.418 287.051 273.664C287.198 272.847 287.474 271.742 287.983 270.569Z" fill="#A6DD3A"/>
<path d="M329.832 261.541C329.267 262.038 328.525 262.363 327.479 262.707C328.002 262.274 328.829 261.821 329.832 261.541Z" fill="#A6DD3A"/>
<path d="M0.622966 345.757C0.861198 346.298 0.813457 346.964 0.476886 347.657C0.237697 347.083 0.287342 346.483 0.622966 345.757Z" fill="#FEFEFE"/>
<path d="M584.225 184.719C584.59 184.207 585.039 183.962 585.754 183.704C586.021 183.691 586.098 184.129 586.131 184.347C585.978 184.845 585.791 185.125 585.387 185.533C584.883 185.436 584.595 185.211 584.225 184.719Z" fill="#B1E743"/>
<path d="M8.79883 360.107C9.43243 360.272 10.1764 360.744 10.9281 361.589C10.2603 361.446 9.58473 360.93 8.79883 360.107Z" fill="#E7E7E7"/>
<path d="M354.845 259.864C354.523 260.271 354.023 260.511 353.299 260.734C353.605 260.377 354.136 260.036 354.845 259.864Z" fill="#9EDA26"/>
<path d="M395.165 334.129C395.02 334.566 394.819 334.791 394.618 335.017C394.423 334.622 394.228 334.227 394.02 333.585C394.374 333.53 394.741 333.724 395.165 334.129Z" fill="#A2D936"/>
<path d="M619.299 176.797C619.133 176.147 619.105 175.199 619.118 173.775C619.251 174.366 619.344 175.432 619.299 176.797Z" fill="#ACE33C"/>
<path d="M322.543 414.104C322.932 413.899 323.563 413.775 324.44 413.629C324.052 413.8 323.419 413.993 322.543 414.104Z" fill="#A6DD3A"/>
<path d="M294.236 391.119C294.488 391.569 294.653 392.37 294.648 393.376C294.369 392.878 294.259 392.174 294.236 391.119Z" fill="#A6DD3A"/>
<path d="M292.377 365.089C292.59 365.289 292.698 365.784 292.663 366.431C292.437 366.184 292.354 365.784 292.377 365.089Z" fill="#A6DD3A"/>
<path d="M429.279 817.676C429.071 817.758 428.822 817.684 428.451 817.564C428.634 817.513 428.937 817.514 429.279 817.676Z" fill="#A2D936"/>
<path d="M316.218 262.499C315.943 262.637 315.445 262.684 314.576 262.739C314.802 262.634 315.399 262.52 316.218 262.499Z" fill="#A6DD3A"/>
<path d="M87.9118 188.06C87.4261 188.552 86.9404 189.043 86.4548 189.535C86.4061 188.978 86.3575 188.421 86.8573 187.868C87.5745 187.934 87.7431 187.997 87.9118 188.06Z" fill="#EEFBC3"/>
<path d="M360.688 258.886C360.476 259.112 359.957 259.245 359.287 259.208C359.551 258.957 359.965 258.875 360.688 258.886Z" fill="#9EDA26"/>
<path d="M311.088 981.811C311.061 981.786 311.173 981.836 311.173 981.836C311.173 981.836 311.035 981.727 311.103 981.807C311.171 981.886 311.116 981.837 311.088 981.811Z" fill="#E7E7E7"/>
<path d="M857.071 157.403C856.736 157.555 856.333 157.441 856.004 156.97C856.386 156.788 856.695 156.962 857.071 157.403Z" fill="#E7E7E7"/>
<path d="M873.073 175.391C872.726 175.56 872.315 175.46 871.992 174.987C872.39 174.783 872.7 174.953 873.073 175.391Z" fill="#E7E7E7"/>
<path d="M856.078 156.401C855.711 156.559 855.284 156.447 854.973 155.975C855.397 155.787 855.708 155.958 856.078 156.401Z" fill="#E7E7E7"/>
<path d="M868.064 169.397C867.727 169.558 867.318 169.456 866.996 168.984C867.386 168.788 867.69 168.962 868.064 169.397Z" fill="#E7E7E7"/>
<path d="M867.074 168.396C866.721 168.557 866.306 168.449 865.986 167.978C866.392 167.785 866.701 167.956 867.074 168.396Z" fill="#E7E7E7"/>
<path d="M858.078 158.382C857.703 158.568 857.273 158.484 856.965 158.007C857.399 157.781 857.711 157.946 858.078 158.382Z" fill="#E7E7E7"/>
<path d="M421.638 817.226C421.597 817.518 421.289 817.602 420.711 817.567C420.777 817.4 421.088 817.257 421.638 817.226Z" fill="#A2D936"/>
<path d="M118.121 856.561C117.687 856.61 117.397 856.448 117.039 856.037C117.128 855.7 117.286 855.612 117.702 855.444C118.128 855.421 118.264 855.52 118.429 855.774C118.414 856.04 118.34 856.195 118.121 856.561Z" fill="#F6F6F6"/>
<path d="M363.189 306.521C363.148 306.474 363.284 306.509 363.298 306.542C363.313 306.576 363.231 306.568 363.189 306.521Z" fill="#A2D936"/>
<path d="M364.208 307.589C364.153 307.552 364.293 307.563 364.302 307.598C364.312 307.632 364.262 307.627 364.208 307.589Z" fill="#A2D936"/>
<path d="M365.398 308.611C365.364 308.692 365.319 308.61 365.3 308.624C365.282 308.637 365.433 308.531 365.398 308.611Z" fill="#A2D936"/>
<path d="M773.695 829.299C773.717 828.837 773.95 828.613 774.517 828.438C774.76 828.395 774.935 828.582 774.888 828.874C774.633 829.414 774.379 829.599 774.077 829.719C774.077 829.719 773.818 829.443 773.695 829.299Z" fill="#A7DD3D"/>
<path d="M431.316 818.627C431.261 818.601 431.393 818.579 431.417 818.604C431.441 818.628 431.371 818.652 431.316 818.627Z" fill="#A2D936"/>
<path d="M617.163 746.371C616.982 746.465 616.967 746.046 616.954 745.836C616.94 745.625 617.205 745.531 617.346 745.518C617.598 745.792 617.55 746.049 617.163 746.371Z" fill="#A2D936"/>
<path d="M115.421 751.686C115.414 751.573 115.382 751.614 115.363 751.596C115.344 751.578 115.5 751.883 115.5 751.883C115.5 751.883 115.428 751.8 115.421 751.686Z" fill="#9EDA26"/>
<path d="M810.098 895.748C809.95 896.056 809.784 896.346 809.366 896.696C809.115 896.756 809.078 896.723 809.093 896.431C809.419 895.99 809.731 895.841 810.043 895.691C810.043 895.691 810.08 895.728 810.098 895.748Z" fill="#EEFBC3"/>
<path d="M303.236 263.497C303.185 263.617 302.981 263.651 302.471 263.708C302.47 263.625 302.777 263.518 303.236 263.497Z" fill="#A6DD3A"/>
<path d="M288.877 269.293C288.971 269.314 288.901 269.448 288.9 269.486C288.899 269.524 288.782 269.272 288.877 269.293Z" fill="#A6DD3A"/>
<path d="M358.388 302.616C358.324 302.689 358.372 302.61 358.385 302.638C358.398 302.667 358.452 302.543 358.388 302.616Z" fill="#A2D936"/>
<path d="M359.677 303.582C359.529 303.68 359.365 303.577 359.119 303.341C359.272 303.129 359.481 303.187 359.677 303.582Z" fill="#A2D936"/>
<path d="M582.53 732.689C582.137 684.405 582.113 635.969 582.12 587.051C582.763 587.933 583.905 589.297 583.908 590.662C584.001 636.755 583.993 682.847 583.94 728.94C583.939 730.139 583.262 731.337 582.53 732.689Z" fill="#A2D936"/>
<path d="M583.475 745.682C583.704 745.193 584.123 744.84 584.776 744.567C585.037 744.817 585.063 744.986 585.121 745.41C584.656 745.716 584.16 745.766 583.475 745.682Z" fill="#AEE540"/>
<path d="M617.71 742.652C617.919 742.934 617.922 743.394 617.85 744.187C617.684 743.957 617.595 743.394 617.71 742.652Z" fill="#AEE540"/>
<path d="M617.843 578.801C618.001 578.877 618.007 579.045 618 579.465C617.834 579.547 617.661 579.39 617.54 579.199C617.508 579.15 617.636 578.998 617.843 578.801Z" fill="#A2D936"/>
<path d="M526.081 61.7286C521.981 60.4718 518.416 59.4351 517.466 53.7387C517.01 51.0103 512.054 49.0721 509.211 46.6856C507.937 45.6154 506.849 44.3231 505.676 43.1316C506.018 42.8293 506.36 42.527 506.703 42.2248C508.393 42.6614 510.233 43.6805 511.715 43.3014C512.517 43.0962 513.383 40.3399 513.058 39.0213C511.831 34.0518 512.057 33.667 517.247 34.5388C517.875 34.6442 518.546 34.4889 519.146 34.4571C520.934 28.6067 520.934 28.6067 527.052 26.7049C523.538 21.4418 526.531 19.4209 531.004 16.7482C535.027 14.3448 537.814 9.90107 541.242 6.45255C541.969 5.72153 543.093 5.0832 544.07 5.02683C544.576 4.99757 545.653 6.35645 545.622 7.0507C545.517 9.44151 543.192 12.875 547.631 12.9839C548.884 13.0146 550.232 9.19764 551.537 7.14539C551.191 6.78394 550.844 6.42252 550.498 6.06107C552.395 6.06107 554.292 6.06107 556.65 6.06107C556.115 7.64533 555.635 9.0677 554.972 11.032C557.38 11.4589 559.526 11.8394 561.476 12.1849C561.476 15.6827 561.476 18.8871 561.476 22.073C555.959 20.3231 556.132 20.3605 554.798 26.5517C554.276 28.9764 552.781 31.1914 551.76 33.433C549.682 32.5627 548.031 31.8712 546.38 31.1797C546.042 33.1173 545.704 35.0549 545.334 37.1759C543.52 37.2644 541.463 37.3648 538.605 37.5042C540.076 39.8758 540.991 41.3514 542.608 43.957C538.74 45.0256 535.32 45.7692 532.072 46.9765C530.926 47.4025 529.787 48.833 529.409 50.0433C529.08 51.098 529.828 52.4883 530.145 53.9355C527.651 53.6894 525.581 53.4851 523.118 53.242C524.365 56.5097 525.217 58.7426 526.088 61.3662C526.108 61.7569 526.052 61.6992 526.081 61.7286ZM521.058 42.9108C518.327 42.4422 516.73 43.5707 517.31 46.3295C517.493 47.1995 519.598 48.517 520.353 48.2581C522.785 47.424 523.548 45.5895 521.058 42.9108Z" fill="#ADFE02"/>
<path d="M594.027 9.37158C598.218 9.99533 602.489 10.9644 607.039 12.1843C602.38 14.1238 598.179 12.2367 594.027 9.37158Z" fill="#ACE33C"/>
<path d="M580.143 6.85003C580.958 6.54129 581.782 6.60025 582.851 6.84219C582.115 7.08938 581.133 7.15356 580.143 6.85003Z" fill="#ACE33C"/>
<path d="M595.624 187.672C594.201 187.836 592.351 187.99 590.299 187.823C591.797 187.556 593.498 187.609 595.624 187.672Z" fill="#B1E743"/>
<path d="M609.562 187.556C609.989 187.697 609.996 187.876 609.975 188.323C608.153 188.478 606.359 188.365 604.311 187.967C605.752 187.653 607.447 187.624 609.562 187.556Z" fill="#B1E743"/>
<path d="M590.014 8.27357C590.555 8.0435 591.148 8.08763 591.909 8.39448C591.406 8.62074 590.736 8.58427 590.014 8.27357Z" fill="#ACE33C"/>
<path d="M586.131 7.81993C586.579 7.50078 587.017 7.49662 587.763 7.61415C587.807 8.24049 587.542 8.74516 587.278 9.24983C586.892 8.87819 586.506 8.50657 586.131 7.81993Z" fill="#ACE33C"/>
<path d="M612.157 13.2918C612.182 13.5809 611.928 13.6276 611.292 13.7442C610.377 13.6144 609.845 13.4145 609.172 12.9585C609.981 12.818 610.93 12.9337 612.157 13.2918Z" fill="#B1E743"/>
<path d="M583.279 180.216C583.161 180.584 582.975 180.596 582.517 180.56C582.345 179.701 582.447 178.888 582.801 177.883C583.106 178.413 583.16 179.137 583.279 180.216Z" fill="#B1E743"/>
<path d="M922.327 607.399C931.182 616.563 939.756 625.5 948.413 634.357C950.025 636.006 952.114 637.188 953.731 638.833C960.502 645.715 960.546 651.832 953.664 658.635C946.484 665.731 938.959 672.479 931.824 679.619C924.219 687.229 917.025 695.252 909.411 702.853C901.089 711.161 892.451 719.151 884.027 727.358C878.214 733.022 872.594 738.884 866.771 744.538C862.114 749.06 857.337 749.231 852.679 744.807C849.234 741.536 845.718 738.126 843.189 734.168C840.9 730.586 840.834 726.359 844.311 722.795C853.46 713.418 862.424 703.859 871.659 694.569C878.66 687.527 886.113 680.93 893.011 673.793C894.437 672.318 895.106 669.117 894.578 667.121C894.26 665.921 890.953 664.851 888.986 664.846C837.33 664.73 785.674 664.776 734.017 664.721C731.229 664.718 728.139 664.705 725.742 663.55C723.464 662.453 720.565 660.02 720.297 657.88C719.548 651.889 719.488 645.685 720.175 639.681C720.723 634.899 725.255 633.568 729.416 632.682C730.693 632.41 732.074 632.614 733.407 632.614C784.563 632.616 835.72 632.642 886.876 632.549C889.022 632.545 891.567 631.973 893.219 630.727C895.952 628.666 895.67 625.933 893.164 623.482C877.741 608.392 862.268 593.353 846.967 578.141C841.232 572.44 840.174 566.781 843.709 562.332C846.387 558.961 849.096 555.366 852.541 552.931C855.273 551.001 859.11 550.539 862.53 549.739C863.414 549.532 864.84 550.238 865.565 550.972C874.274 559.783 882.807 568.768 891.572 577.522C898.215 584.156 905.15 590.497 911.908 597.017C915.351 600.338 918.69 603.766 922.327 607.399Z" fill="#8F01FD"/>
<path d="M411.32 709.036C407.728 712.627 404.45 716.028 401.042 719.292C395.449 724.648 389.835 729.986 384.106 735.195C380.911 738.1 373.685 737.231 370.034 733.625C367.431 731.054 364.908 728.394 362.467 725.668C358.737 721.506 358.87 716.3 362.803 712.352C374.478 700.631 386.189 688.945 397.887 677.246C402.802 672.332 407.8 667.496 412.578 662.452C413.7 661.266 415.094 658.633 414.603 657.97C413.493 656.471 411.32 654.991 409.516 654.909C402.088 654.572 394.637 654.756 387.194 654.755C364.872 654.753 342.549 654.755 320.227 654.755C297.904 654.755 275.573 654.385 253.262 654.893C239.776 655.201 237.437 647.385 237.156 637.285C237.063 633.938 237.615 630.116 239.232 627.289C241.516 623.296 245.426 621.499 250.57 621.517C301.878 621.696 353.187 621.621 404.496 621.617C405.828 621.616 407.229 621.864 408.476 621.534C409.975 621.136 412.312 620.483 412.553 619.51C412.969 617.834 412.678 615.237 411.578 614.056C405.938 607.999 399.939 602.279 394.079 596.426C391.166 593.517 388.29 590.57 385.385 587.653C378.637 580.878 371.878 574.112 365.127 567.339C357.838 560.027 358.28 553.788 366.438 547.356C367.58 546.456 368.436 545.176 369.361 544.022C373.852 538.416 381.803 537.93 386.849 542.964C396.228 552.322 405.62 561.666 414.993 571.031C431.063 587.087 447.122 603.153 463.183 619.218C466.57 622.605 470.04 625.915 473.309 629.413C479.033 635.537 478.326 642.059 472.061 647.313C469.081 649.811 466.953 653.297 464.208 656.109C457.748 662.73 451.148 669.215 444.607 675.757C439.985 680.378 435.366 685.003 430.743 689.624C424.355 696.012 417.965 702.398 411.32 709.036Z" fill="#8F01FD"/>
<path d="M312.052 92.7397C293.389 92.7397 275.225 92.7307 257.062 92.7446C251.021 92.7492 245.163 92.2418 240.613 87.5438C240.038 86.9499 239.257 86.5161 238.803 85.8503C234.127 78.9959 237.197 64.8227 244.393 60.8988C246.151 59.9401 248.478 59.6852 250.545 59.6827C302.702 59.6179 354.86 59.6594 407.017 59.5271C409.21 59.5215 411.872 58.5035 413.384 57.0123C414.095 56.3103 413.199 52.7827 411.996 51.5275C403.324 42.4792 394.481 33.5878 385.489 24.8559C381.589 21.0685 377.208 17.7758 372.42 13.7295C375.031 12.0444 375.869 11.1194 376.85 10.9298C386.26 9.11059 395.682 7.34145 405.128 5.72002C409.076 5.04235 412.388 5.96709 415.353 9.24782C422.709 17.3867 430.332 25.2972 438.094 33.0534C446.41 41.3635 455.025 49.3733 463.472 57.5529C466.909 60.8805 470.304 64.2548 473.616 67.7063C478.436 72.7306 478.112 79.4813 473.535 84.657C470.703 87.8594 467.387 90.6299 464.35 93.6559C451.594 106.365 438.832 119.07 426.127 131.831C416.344 141.658 406.675 151.6 396.886 161.421C393.028 165.291 389.367 169.557 384.875 172.52C382.202 174.284 376.957 175.532 374.845 174.098C369.633 170.561 365.182 165.653 361.158 160.7C358.218 157.081 360.126 152.858 362.777 149.714C366.175 145.682 370.045 142.035 373.837 138.351C382.15 130.272 390.57 122.302 398.892 114.232C403.165 110.088 407.241 105.739 411.564 101.65C413.944 99.3988 414.694 97.1092 413.18 94.1098C411.65 91.0821 409.309 92.0431 406.751 92.2736C401.707 92.728 396.612 92.7214 391.538 92.7281C365.21 92.7627 338.881 92.7414 312.052 92.7397Z" fill="#8F00FD"/>
<path d="M234.37 63.7206C234.192 63.3378 234.426 63.0178 234.897 62.4785C235.016 62.7673 234.899 63.2754 234.37 63.7206Z" fill="black"/>
<path d="M825.102 261.87C828.453 261.818 831.803 261.765 835.816 261.623C836.738 261.377 836.932 261.163 837.061 260.89C840.419 260.827 843.776 260.764 847.757 260.929C848.955 260.731 849.53 260.304 850.105 259.877C857.797 259.485 865.489 259.093 874.012 258.708C876.928 258.436 879.015 258.157 881.101 257.878C884.117 257.824 887.134 257.769 890.823 257.98C892.698 257.798 893.901 257.35 895.104 256.902C897.922 256.836 900.741 256.718 903.559 256.714C912.454 256.702 915.872 259.276 917.581 268.016C918.34 271.894 918.696 275.989 918.356 279.909C917.864 285.59 914.138 288.992 908.125 290.366C904.324 290.575 901.166 291.044 898.007 291.513C885.336 292.246 872.664 292.979 859.235 293.718C858.002 294.004 857.528 294.283 857.054 294.563C854.681 294.603 852.309 294.643 849.219 294.395C845.002 294.149 841.492 294.053 838.013 294.342C837.267 294.404 836.636 295.857 835.952 296.67C833.981 300.053 835.75 302.169 838.274 304.299C851.323 315.308 864.32 326.38 877.299 337.472C889.638 348.018 902.006 358.533 914.218 369.225C920.81 374.998 926.994 381.237 933.558 387.043C941.361 393.945 949.551 400.416 957.244 407.434C963.676 413.301 963.528 418.687 957.375 424.89C954.8 427.486 952.167 430.051 949.342 432.363C945.164 435.783 939.827 435.493 935.75 431.951C928.5 425.652 921.239 419.367 913.971 413.09C901.306 402.152 888.582 391.282 875.977 380.275C865.796 371.384 855.881 362.185 845.615 353.392C835.298 344.556 824.728 336.012 814.167 327.467C813.044 326.558 810.45 325.691 809.909 326.216C808.825 327.269 808.157 329.326 808.243 330.919C809.09 346.644 810.053 362.363 811.149 378.072C811.574 384.177 812.812 390.241 812.995 396.343C813.347 408.092 808.679 412.675 796.979 412.723C794.081 412.735 791.054 412.993 788.308 412.281C780.576 410.277 780.279 403.25 779.492 397.236C778.425 389.09 778.32 380.817 777.797 372.599C777.545 368.633 777.418 364.653 776.978 360.708C776.596 357.288 775.852 353.908 775.594 350.034C777.642 347.604 778.016 345.871 775.121 344.676C775.103 344.237 775.085 343.798 775.317 342.834C775.123 341.423 774.678 340.535 774.234 339.648C774.176 334.976 774.118 330.305 774.287 325.004C774.105 323.796 773.697 323.217 773.288 322.639C773.214 320.615 773.14 318.591 773.358 315.847C773.564 311.91 775.893 308.311 772.159 305.668C772.393 301.984 772.627 298.3 772.841 293.931C772.269 292.729 771.716 292.21 771.164 291.691C771.128 291.251 771.093 290.811 771.328 289.784C771.118 287.02 770.64 284.843 770.161 282.667C769.884 273.319 772.72 267.972 778.751 266.781C782.633 266.015 786.539 265.225 790.472 264.892C800.68 264.029 810.909 263.413 821.785 262.954C823.328 262.763 824.215 262.317 825.102 261.87Z" fill="#ADFE02"/>
<path d="M836.346 296.523C836.635 295.857 837.266 294.404 838.012 294.342C841.491 294.053 845.002 294.149 848.773 294.384C844.944 295.233 840.842 295.804 836.346 296.523Z" fill="#ADF613"/>
<path d="M772.123 306.116C775.893 308.312 773.565 311.91 773.364 315.413C772.747 312.653 772.416 309.609 772.123 306.116Z" fill="#ADF613"/>
<path d="M898.441 291.567C901.166 291.044 904.324 290.575 907.767 290.393C904.993 290.993 901.934 291.307 898.441 291.567Z" fill="#ADF613"/>
<path d="M770.125 283.087C770.639 284.844 771.117 287.02 771.308 289.453C770.71 287.642 770.4 285.575 770.125 283.087Z" fill="#ADF613"/>
<path d="M775.094 345.098C778.015 345.871 777.641 347.604 775.586 349.652C775.19 348.339 775.129 346.93 775.094 345.098Z" fill="#ADF613"/>
<path d="M880.682 257.825C879.016 258.157 876.929 258.436 874.453 258.707C876.13 258.39 878.196 258.081 880.682 257.825Z" fill="#ADF613"/>
<path d="M894.736 256.843C893.9 257.35 892.698 257.798 891.275 257.989C892.16 257.416 893.264 257.1 894.736 256.843Z" fill="#ADF613"/>
<path d="M774.182 339.988C774.678 340.535 775.123 341.423 775.318 342.505C774.756 341.909 774.443 341.119 774.182 339.988Z" fill="#ADF613"/>
<path d="M824.763 261.825C824.216 262.317 823.329 262.763 822.246 262.96C822.841 262.401 823.632 262.09 824.763 261.825Z" fill="#ADF613"/>
<path d="M773.24 322.938C773.696 323.217 774.104 323.796 774.292 324.538C773.779 324.214 773.486 323.726 773.24 322.938Z" fill="#ADF613"/>
<path d="M849.803 259.845C849.529 260.304 848.955 260.731 848.215 260.935C848.534 260.412 849.018 260.112 849.803 259.845Z" fill="#ADF613"/>
<path d="M771.166 292.011C771.717 292.21 772.27 292.729 772.898 293.532C772.372 293.321 771.77 292.826 771.166 292.011Z" fill="#ADF613"/>
<path d="M857.348 294.578C857.529 294.283 858.003 294.004 858.767 293.718C858.585 294.005 858.112 294.299 857.348 294.578Z" fill="#ADF613"/>
<path d="M836.84 260.941C836.932 261.163 836.738 261.377 836.275 261.615C836.157 261.387 836.339 261.152 836.84 260.941Z" fill="#ADF613"/>
<path d="M739.623 66.0145C739.993 65.784 740.44 65.9678 741.098 66.4643C740.773 66.6609 740.236 66.5449 739.623 66.0145Z" fill="black"/>
<path d="M123.89 741.266C123.256 742.525 122.657 743.313 121.993 744.405C119.681 746.136 117.435 747.562 115.132 749.32C114.893 749.673 114.71 749.694 114.06 749.824C113.35 750.091 113.173 750.304 113.062 750.572C108.392 750.591 103.722 750.609 98.5944 750.606C98.0933 750.423 98.1023 750.178 97.9985 750.113C89.7224 744.912 89.8597 736.885 89.8998 728.343C90.1307 679.181 90.0105 630.018 90.0151 580.856C90.0154 578.02 90.4236 575.023 86.4712 573.784C81.7991 577.342 77.3041 580.723 73.2387 584.559C66.5081 590.911 60.0146 597.516 53.4953 604.088C47.2368 610.397 40.9105 616.653 34.9259 623.216C31.2241 627.275 22.276 628.281 18.2836 624.476C15.8729 622.178 13.4496 619.871 11.2587 617.369C5.44502 610.731 5.68153 605.564 11.9811 599.228C19.9682 591.195 27.9912 583.197 36.0029 575.188C56.1357 555.063 76.2628 534.932 96.4146 514.826C99.2449 512.002 102.129 508.894 106.646 509.732C108.927 510.156 111.548 510.904 113.161 512.416C123.636 522.244 134.002 532.195 144.161 542.35C156.84 555.024 169.223 567.994 181.857 580.714C188.034 586.932 194.417 592.95 200.836 598.918C207.533 605.145 207.333 615.216 199.648 620.123C196.011 622.446 194.384 628.275 188.631 627.001C185.443 626.295 181.389 626.22 179.333 624.214C165.243 610.466 151.606 596.255 137.755 582.261C134.52 578.993 131.021 575.986 126.854 572.128C125.591 574.091 124.561 575.692 123.754 577.498C123.97 578.129 123.963 578.556 123.81 579.418C123.773 580.153 123.884 580.451 123.994 580.749C123.971 634.098 123.948 687.446 123.89 741.266Z" fill="#ADFE02"/>
<path d="M290.074 871.167C289.969 869.407 289.88 868.083 289.475 866.634C289.134 863.548 289.109 860.585 289.307 856.966C289.066 855.393 288.601 854.477 288.137 853.56C288.12 850.253 288.103 846.946 288.072 843.189C288.233 841.21 288.407 839.682 288.331 837.905C290.377 831.592 295.238 828.928 301.804 827.967C303.289 828.03 304.186 827.867 305.083 827.704C305.516 827.702 305.949 827.7 306.879 827.902C307.995 827.663 308.615 827.22 309.235 826.777C309.931 826.761 310.627 826.746 311.883 826.954C313.382 826.715 314.32 826.253 315.259 825.791C316.885 825.781 318.512 825.771 320.76 825.979C322.287 826.036 323.194 825.875 324.101 825.714C326.78 825.712 329.46 825.71 332.76 825.907C333.993 825.657 334.603 825.209 335.214 824.761C335.614 824.761 336.014 824.761 336.714 824.751C341.862 824.745 346.716 824.892 351.558 824.715C357.326 824.504 363.089 824.077 368.843 823.611C370.544 823.473 372.208 822.886 374.025 822.126C376.811 821.746 379.461 821.744 382.769 821.968C384.649 821.712 385.871 821.232 387.094 820.751C387.094 820.751 387.105 820.747 387.117 820.761C389.805 820.748 392.482 820.721 395.809 820.928C398.025 820.689 399.59 820.217 401.154 819.745C404.811 819.73 408.467 819.716 412.751 819.901C413.989 819.658 414.6 819.215 415.211 818.772C418.481 818.769 421.751 818.765 425.545 819.041C426.731 819.436 427.394 819.552 428.056 819.667C432.605 821.625 434.964 825.017 435.158 830.027C435.228 831.823 435.793 833.609 436.207 835.382C438.617 845.699 433.117 852.246 422.567 852.821C404.77 853.79 387.009 855.394 369.227 856.642C365.745 856.886 362.151 856.275 358.769 856.91C356.466 857.342 354.008 858.898 352.52 860.696C351.978 861.352 353.587 864.68 354.988 865.904C363.22 873.098 371.73 879.973 380.052 887.067C389.635 895.236 399.11 903.532 408.652 911.75C420.016 921.537 431.41 931.29 442.775 941.077C453.074 949.945 463.589 958.582 473.56 967.806C481.047 974.733 481.602 980.252 474.101 988.171C472.269 990.105 470.373 991.979 468.478 993.852C463.687 998.588 460.365 999.219 454.881 995.096C448.406 990.229 442.407 984.725 436.241 979.45C422.521 967.712 408.782 955.995 395.133 944.174C383.742 934.308 372.493 924.277 361.133 914.374C351.393 905.882 341.639 897.402 331.726 889.115C330.645 888.211 328.262 888.085 326.876 888.619C326.049 888.937 325.58 891.268 325.653 892.657C326 899.265 326.539 905.865 327.123 912.458C327.276 914.176 327.836 915.858 328.573 917.724C328.957 918.582 328.977 919.273 329.006 920.31C329.096 923.298 329.176 925.938 329.607 928.727C329.979 931.183 329.999 933.491 329.764 936.52C329.991 939.794 330.475 942.346 330.958 944.898C330.968 945.591 330.977 946.284 330.994 947.323C331.12 951.892 331.239 956.114 331.679 960.566C331.993 961.805 331.988 962.814 331.757 964.403C331.376 965.561 331.221 966.138 331.066 966.716C330.726 967.459 330.385 968.201 329.678 969.355C328.876 970.756 328.439 971.747 328.003 972.737C326.921 973.083 325.838 973.428 324.013 973.782C321.821 974.4 320.371 975.01 318.921 975.619C318.516 975.626 318.111 975.632 317.404 975.651C313.591 975.49 310.08 975.317 306.293 975.406C305.619 975.652 305.221 975.635 304.432 975.292C303.048 974.226 302.057 973.487 301.065 972.748C301.065 972.748 301.046 972.707 300.888 972.363C299.188 967.873 297.647 963.727 296.105 959.581C296.096 956.264 296.087 952.947 296.058 949.178C296.028 946.029 296.21 943.315 295.974 940.638C295.281 932.811 294.421 924.999 293.358 916.908C293.091 915.909 293.091 915.185 293.082 914.098C292.99 911.11 292.906 908.485 292.456 905.759C292.089 905.658 292.071 905.69 292.088 905.434C292.1 905.01 292.094 904.842 292.089 904.674C292.088 902.651 292.086 900.627 292.072 898.173C291.974 896.087 291.89 894.433 291.472 892.655C291.136 892.138 291.133 891.743 291.391 890.744C291.139 886.282 290.626 882.424 290.112 878.566C290.105 876.245 290.097 873.923 290.074 871.167Z" fill="#ADFE02"/>
<path d="M427.87 819.42C427.393 819.552 426.73 819.436 425.99 819.043C426.503 818.901 427.094 819.037 427.87 819.42Z" fill="#ACE33C"/>
<path d="M414.92 818.746C414.6 819.215 413.989 819.658 413.208 819.876C413.038 819.651 413.047 819.18 413.054 818.944C413.061 818.709 413.554 818.701 413.801 818.698C414.242 818.703 414.436 818.711 414.92 818.746Z" fill="#ACE33C"/>
<path d="M353.181 296.344C353.105 297.443 353.067 298.188 353.049 299.305C357.173 303.646 361.278 307.616 365.73 311.611C374.146 318.638 382.215 325.639 390.624 332.696C395.482 337.279 399.835 341.987 404.569 346.276C409.092 350.375 414.088 353.944 418.738 357.909C427.002 364.956 435.156 372.131 443.364 379.243C450.25 385.209 457.163 391.145 464.036 397.126C467.413 400.065 470.621 403.207 474.096 406.022C479.747 410.601 480.985 417.395 476.442 422.915C473.426 426.58 469.831 429.799 466.29 432.99C463.176 435.797 459.519 435.585 456.233 433.391C453.217 431.377 450.501 428.902 447.721 426.55C437.776 418.137 427.869 409.68 417.932 401.259C409.77 394.342 401.289 387.768 393.497 380.458C386.087 373.506 378.56 366.807 370.605 360.444C358.118 350.457 346.587 339.281 334.446 328.848C332.661 327.314 329.746 327.094 327.354 326.266C326.856 328.667 325.821 331.099 325.959 333.462C326.459 342.047 327.364 350.608 328.096 359.179C329.066 370.551 329.78 381.952 331.038 393.292C332.409 405.649 326.508 412.626 313.977 412.728C310.981 412.752 307.984 412.717 304.52 412.718C298.174 408.926 295.732 403.429 296.057 396.129C295.974 392.062 295.906 388.424 295.499 384.654C295.156 384.124 295.151 383.728 295.155 383.033C295.441 380.149 296.124 377.531 295.931 374.98C294.424 355.022 292.639 335.086 291.166 315.126C290.252 302.733 289.586 290.317 289.098 277.9C288.848 271.57 293.438 267.162 299.699 266.628C318.158 265.052 336.599 263.273 355.061 261.754C365.791 260.872 376.556 260.43 387.293 259.62C398.342 258.787 409.397 257.935 420.41 256.733C428.064 255.898 431.593 257.66 434.419 265.336C438.534 276.516 438.051 283.011 431.785 287.053C427.805 289.62 422.2 290.196 417.236 290.615C398.762 292.178 380.245 293.229 361.761 294.677C358.926 294.9 355.474 291.909 353.181 296.344Z" fill="#ADFE02"/>
<path d="M109.266 166.931C113.514 162.326 117.512 157.973 121.509 153.619C122.036 153.75 122.563 153.88 123.09 154.01C123.09 158.353 122.862 162.709 123.13 167.034C124.266 185.323 118.208 187.406 103.475 186.704C100.788 186.576 98.1304 185.827 95.459 185.365C96.6989 183.03 97.6378 180.458 99.2434 178.409C102.299 174.509 105.736 170.908 109.266 166.931Z" fill="#ADFE03"/>
<path d="M773.093 882.046C772.991 879.11 772.901 876.478 772.451 873.718C772.082 868.605 772.072 863.621 772.313 857.92C771.751 853.639 770.938 850.075 770.126 846.511C770.122 843.582 770.118 840.653 770.41 837.187C771.11 835.993 771.514 835.337 771.918 834.681C772.135 834.143 772.351 833.605 773.141 832.84C775.547 830.994 777.378 829.375 779.209 827.755C783.531 827.425 787.853 827.094 792.836 826.986C794.742 826.737 795.985 826.267 797.229 825.797C800.863 825.774 804.497 825.752 808.87 825.987C812.139 825.754 814.669 825.264 817.199 824.775C817.606 824.768 818.012 824.762 819.028 825.017C821.553 825.401 823.51 825.829 825.372 825.572C827.663 825.256 829.875 824.37 832.121 823.731C832.852 823.728 833.582 823.726 834.98 823.991C844.812 824.033 853.979 823.846 863.141 823.504C863.822 823.479 864.463 822.351 865.122 821.735C865.549 821.732 865.976 821.729 866.895 821.924C867.99 821.673 868.594 821.223 869.197 820.774C871.188 820.763 873.179 820.752 875.595 820.735C875.008 823.25 874.57 826.272 872.885 828.207C865.405 836.796 857.589 845.093 849.845 853.449C847.742 855.718 845.532 857.014 841.944 856.097C839.235 855.405 835.259 855.147 835.956 860.676C836.647 861.577 836.948 862.033 836.971 862.674C835.734 865.08 835.282 867.784 833.717 869.43C829.438 873.93 824.864 878.196 820.061 882.133C817.233 884.451 813.698 885.891 810.585 887.887C809.598 888.52 808.889 889.63 808.154 890.599C807.393 891.602 806.961 892.946 806.032 893.716C798.017 900.356 790.031 907.041 781.758 913.349C780.162 914.566 777.354 914.193 775.104 914.553C775.1 912.889 775.097 911.224 775.073 909.146C774.975 906.101 774.897 903.47 774.461 900.703C774.089 898.238 774.074 895.907 774.318 892.857C774.084 889.281 773.591 886.424 773.098 883.567C773.1 883.161 773.102 882.755 773.093 882.046Z" fill="#ADFE02"/>
<path d="M837.249 862.489C836.948 862.033 836.647 861.577 836.234 860.868C839.509 860.292 842.896 859.969 846.736 859.686C847.051 860.048 846.912 860.371 846.64 860.933C844.686 862.572 842.865 863.973 840.535 864.948C839.101 863.844 838.175 863.167 837.249 862.489Z" fill="#050109"/>
<path d="M124 580.467C123.883 580.451 123.773 580.153 123.813 579.738C123.978 579.809 123.992 579.996 124 580.467Z" fill="#A8DF3B"/>
<path d="M864.649 821.719C864.463 822.351 863.823 823.479 863.142 823.504C853.98 823.845 844.813 824.033 835.346 823.974C841.634 823.027 848.217 822.269 854.818 821.745C857.919 821.498 861.055 821.703 864.649 821.719Z" fill="#ACE33C"/>
<path d="M831.653 823.717C829.874 824.37 827.662 825.256 825.372 825.572C823.509 825.829 821.552 825.401 819.332 825C823.079 824.383 827.132 824.043 831.653 823.717Z" fill="#ACE33C"/>
<path d="M778.85 827.758C777.378 829.375 775.547 830.994 773.368 832.655C773.347 831.914 773.674 831.133 774.039 830.035C774.379 829.599 774.634 829.414 774.975 828.968C776.235 828.435 777.362 828.098 778.85 827.758Z" fill="#B1E743"/>
<path d="M816.772 824.748C814.669 825.264 812.138 825.754 809.326 825.974C811.478 825.376 813.912 825.048 816.772 824.748Z" fill="#ACE33C"/>
<path d="M796.844 825.763C795.986 826.267 794.742 826.737 793.264 826.962C794.173 826.387 795.316 826.058 796.844 825.763Z" fill="#ACE33C"/>
<path d="M868.882 820.767C868.594 821.223 867.991 821.673 867.215 821.903C867.55 821.376 868.058 821.068 868.882 820.767Z" fill="#ACE33C"/>
<path d="M314.912 825.773C314.32 826.253 313.381 826.715 312.23 826.939C312.868 826.386 313.717 826.071 314.912 825.773Z" fill="#ACE33C"/>
<path d="M308.915 826.761C308.615 827.22 307.995 827.663 307.203 827.882C307.552 827.353 308.073 827.049 308.915 826.761Z" fill="#ACE33C"/>
<path d="M334.896 824.753C334.603 825.209 333.993 825.657 333.207 825.884C333.547 825.357 334.063 825.051 334.896 824.753Z" fill="#ACE33C"/>
<path d="M304.696 827.697C304.186 827.867 303.289 828.03 302.189 827.955C302.761 827.708 303.535 827.699 304.696 827.697Z" fill="#ACE33C"/>
<path d="M323.707 825.703C323.194 825.875 322.287 826.036 321.166 825.966C321.739 825.721 322.527 825.707 323.707 825.703Z" fill="#ACE33C"/>
<path d="M836.971 862.674C838.175 863.167 839.101 863.844 840.179 864.842C837.739 868.292 835.375 871.65 832.506 874.499C827.152 879.819 821.504 884.843 816.01 890.339C813.064 890.746 810.633 891.585 810.007 895.318C809.731 895.841 809.42 895.99 809.076 896.414C807.487 897.467 805.782 898.044 804.399 899.058C795.512 905.574 786.695 912.186 777.512 918.826C776.469 917.689 775.77 916.492 775.088 914.924C777.354 914.193 780.163 914.566 781.759 913.349C790.031 907.041 798.018 900.356 806.032 893.716C806.961 892.946 807.394 891.602 808.154 890.599C808.889 889.63 809.598 888.52 810.585 887.887C813.699 885.891 817.233 884.451 820.061 882.133C824.864 878.196 829.438 873.93 833.718 869.43C835.282 867.784 835.734 865.08 836.971 862.674Z" fill="#B1E743"/>
<path d="M770.098 846.963C770.939 850.075 771.752 853.639 772.292 857.454C771.37 854.275 770.719 850.845 770.098 846.963Z" fill="#B1E743"/>
<path d="M771.603 834.738C771.514 835.337 771.11 835.993 770.404 836.747C770.497 836.162 770.892 835.478 771.603 834.738Z" fill="#B1E743"/>
<path d="M319.324 975.649C320.372 975.01 321.822 974.4 323.66 973.834C322.608 974.479 321.168 975.079 319.324 975.649Z" fill="#A6DD3A"/>
<path d="M328.305 972.586C328.44 971.747 328.876 970.756 329.642 969.66C329.517 970.515 329.061 971.474 328.305 972.586Z" fill="#A6DD3A"/>
<path d="M331.314 966.532C331.22 966.138 331.375 965.561 331.761 964.783C331.849 965.171 331.706 965.76 331.314 966.532Z" fill="#A6DD3A"/>
<path d="M588.553 187.174C588.575 187.165 588.531 187.183 588.553 187.174Z" fill="#ADFE03"/>
<path d="M296.086 960.021C297.646 963.727 299.188 967.873 300.866 972.356C300.308 972.675 299.614 972.658 298.581 972.575C297.516 968.495 296.792 964.478 296.086 960.021Z" fill="#A6DD3A"/>
<path d="M773.078 884.019C773.59 886.424 774.084 889.281 774.294 892.416C773.693 889.953 773.376 887.212 773.078 884.019Z" fill="#B1E743"/>
<path d="M288.115 853.914C288.602 854.477 289.067 855.393 289.29 856.516C288.73 855.904 288.411 855.086 288.115 853.914Z" fill="#A6DD3A"/>
<path d="M113.264 750.504C113.172 750.304 113.349 750.091 113.785 749.852C113.892 750.058 113.721 750.28 113.264 750.504Z" fill="#9EDA26"/>
<path d="M301.104 973.071C302.057 973.487 303.048 974.226 304.134 975.287C303.199 974.87 302.17 974.132 301.104 973.071Z" fill="#A6DD3A"/>
<path d="M290.092 879.037C290.625 882.424 291.138 886.282 291.382 890.447C290.766 887.005 290.419 883.256 290.092 879.037Z" fill="#A6DD3A"/>
<path d="M330.991 944.449C330.476 942.346 329.992 939.794 329.779 936.958C330.374 939.116 330.698 941.558 330.991 944.449Z" fill="#A6DD3A"/>
<path d="M386.721 820.736C385.871 821.232 384.649 821.712 383.213 821.955C384.116 821.385 385.232 821.053 386.721 820.736Z" fill="#ACE33C"/>
<path d="M291.918 904.766C292.095 904.842 292.101 905.01 292.101 905.43C291.979 905.408 291.863 905.133 291.918 904.766Z" fill="#A6DD3A"/>
<path d="M400.88 819.729C399.59 820.217 398.025 820.689 396.257 820.904C396.16 820.342 396.346 820.096 396.818 819.804C397.783 819.699 398.541 819.702 399.677 819.702C400.239 819.704 400.422 819.709 400.88 819.729Z" fill="#ACE33C"/>
<path d="M521.364 43.1166C523.549 45.5896 522.786 47.424 520.354 48.2581C519.599 48.5171 517.494 47.1995 517.311 46.3296C516.731 43.5708 518.328 42.4422 521.364 43.1166Z" fill="#ADFE03"/>
</svg>
