<svg width="964" height="1008" viewBox="0 0 964 1008" fill="none" xmlns="http://www.w3.org/2000/svg">
<path d="M602.365 1000.2C597.758 1002.54 602.655 1001.37 598.051 1003.72C592.656 1006.46 586.9 1006.69 580.957 1006.82C572.712 1007.01 594.605 1006.02 586.365 1006.6C603.504 1004.75 574.036 1007.93 571.381 1007.36C578.745 1006.23 563.077 1005.88 571.381 1004.61C569.336 1002.48 567.812 1000.85 566.236 999.263C540.862 973.754 515.481 948.251 490.103 922.747C481.448 914.049 481.411 907.594 490.039 898.966C518.189 870.813 546.341 842.662 574.522 814.54C582.45 806.628 589.397 806.683 597.342 814.562C598.999 816.204 600.665 817.837 602.295 819.505C608.862 826.226 609.012 834.02 602.4 840.655C588.288 854.816 574.082 868.884 559.834 882.909C557.27 885.434 554.323 887.57 551.553 889.886C551.92 890.49 552.287 891.095 552.655 891.7C554.384 891.7 556.114 891.699 557.844 891.7C609.334 891.702 660.824 891.701 712.314 891.708C724.321 891.71 728.79 896.621 729.262 908.696C729.9 925.056 726.702 930.26 708.039 930.057C657.887 929.511 607.725 929.873 557.567 929.887C555.985 929.887 554.404 930.018 552.822 930.088C552.42 930.643 552.018 931.199 551.616 931.754C560.04 939.71 568.561 947.567 576.862 955.649C585.096 963.667 592.971 972.056 601.272 980.003C606.155 984.678 608.074 989.929 606.206 996.933C607.955 996.674 600.508 999.393 602.365 999.263C593.512 1003.13 602.365 1000.2 602.365 1000.2Z" fill="#FDFDFD"/>
<path d="M579.699 449.214C571.625 441.484 563.726 434.129 556.08 426.519C534.005 404.548 512.051 382.456 490.009 360.453C481.672 352.131 481.473 345.249 489.753 336.968C518.372 308.345 547.027 279.758 575.7 251.19C582.197 244.716 589.177 244.646 595.921 250.879C598.243 253.026 600.49 255.262 602.672 257.552C608.841 264.028 608.942 271.474 602.595 277.895C589.009 291.639 575.289 305.249 561.558 318.849C558.378 321.999 554.937 324.887 551.616 327.896C551.87 328.364 552.125 328.832 552.38 329.299C553.743 329.383 555.106 329.54 556.47 329.54C608.46 329.539 660.451 329.531 712.442 329.506C724.624 329.5 729.16 334.057 729.166 346.426C729.166 347.925 729.168 349.425 729.167 350.925C729.158 363.348 724.71 367.831 712.403 367.831C661.078 367.831 609.754 367.833 558.43 367.833C556.779 367.833 555.129 367.833 552.283 367.833C553.971 369.714 555.032 371.005 556.205 372.185C570.65 386.72 585.105 401.244 599.57 415.758C609.672 425.895 609.74 432.297 599.806 442.346C598.52 443.648 597.213 444.931 595.901 446.208C591.297 450.694 586.047 452.056 579.699 449.214Z" fill="#FEFEFE"/>
<path d="M9.9386 334.911C26.8564 317.923 43.7563 300.916 60.6983 283.952C71.7605 272.876 82.8339 261.809 93.9996 250.837C100.101 244.842 107.065 244.813 113.441 250.582C115.91 252.815 118.273 255.174 120.575 257.581C126.801 264.092 126.86 271.421 120.485 277.844C104.644 293.803 88.6891 309.649 72.7908 325.551C71.7796 326.562 70.8597 327.665 69.1652 329.532C73.2028 329.532 76.2788 329.532 79.3548 329.532C130.175 329.532 180.995 329.528 231.815 329.536C241.77 329.537 246.923 334.629 246.961 344.452C246.973 347.451 246.974 350.45 246.961 353.449C246.921 362.359 241.74 367.671 232.712 367.808C224.716 367.928 216.717 367.829 208.719 367.828C162.913 367.828 117.106 367.828 70.4247 367.828C71.52 369.249 72.1412 370.262 72.9562 371.082C87.9819 386.205 103.031 401.306 118.075 416.41C127.515 425.888 127.535 432.445 118.156 441.749C116.619 443.275 115.132 444.852 113.568 446.35C107.336 452.321 99.8581 452.42 93.7423 446.319C65.7961 418.437 37.9192 390.486 9.875 361.888C8.98865 360.744 8.24469 360.272 7.50072 359.8C5.66157 357.002 3.82244 354.204 2.21004 350.816C2.76346 347.576 3.09016 344.927 3.45404 341.976C1.94894 342.72 0.974473 343.202 0 343.684C0.36718 342.434 0.73436 341.185 1.66718 339.802C2.915 339.711 3.59718 339.753 4.27937 339.796C5.09178 339.167 5.90418 338.539 7.40987 337.732C8.71497 336.673 9.32679 335.792 9.9386 334.911Z" fill="#FEFEFE"/>
<path d="M616.693 744.793C616.693 744.793 616.643 745.23 616.33 745.38C616.018 745.531 615.753 745.625 615.402 745.612C613.298 746.941 611.546 748.282 609.484 749.649C608.414 749.987 607.652 750.3 606.423 750.616C601.277 750.617 596.598 750.613 591.833 750.277C589.153 748.518 586.559 747.091 583.933 745.41C583.875 744.986 583.849 744.817 583.823 744.312C582.886 741.832 581.949 739.687 581.005 737.15C580.99 735.453 580.982 734.147 581.343 732.689C582.074 731.337 582.751 730.139 582.753 728.94C582.806 682.847 582.813 636.755 582.721 590.662C582.718 589.297 581.576 587.934 580.97 586.146C580.975 583.761 580.975 581.801 581.264 579.748C581.162 577.962 580.773 576.268 580.383 574.574C578.918 574.94 577.099 574.878 576.048 575.746C571.493 579.506 566.962 583.34 562.79 587.514C554.595 595.713 546.669 604.18 538.584 612.489C534.783 616.396 531.022 620.365 526.937 623.957C525.323 625.376 522.954 626.228 520.791 626.682C512.889 628.339 508.684 622.718 504.285 617.766C498.093 610.795 498.219 605.713 504.804 599.231C512.83 591.331 521.104 583.681 529.056 575.708C539.569 565.167 549.826 554.372 560.281 543.773C569.932 533.989 579.739 524.36 589.398 514.585C595.702 508.203 601.979 507.972 608.407 514.187C615.299 520.851 622.231 527.478 628.963 534.3C639.085 544.556 648.928 555.089 659.11 565.283C671.031 577.218 683.266 588.841 695.152 600.81C696.719 602.388 697.36 605.141 697.862 607.472C699.354 614.413 694.142 617.978 690.084 622.059C683.306 628.878 676.499 628.894 669.756 622.153C654.162 606.564 638.588 590.955 622.925 575.435C621.735 574.255 619.911 573.714 618.381 572.877C617.885 574.472 617.388 576.067 616.86 577.923C616.822 578.358 616.815 578.533 616.656 578.801C616.449 578.998 616.322 579.15 616.353 579.199C616.475 579.39 616.647 579.547 616.799 580.185C616.787 634.367 616.778 688.082 616.746 741.965C616.724 742.134 616.729 742.474 616.524 742.652C616.409 743.394 616.499 743.957 616.582 744.601C616.575 744.682 616.693 744.793 616.693 744.793Z" fill="#ADFE02"/>
<path d="M579.982 14.5312C579.982 14.5312 579.833 14.1371 580.098 13.7196C577.994 11.3252 577.92 11.2502 575.287 13.8462C568.498 20.5401 561.839 27.3666 555.02 34.0296C546.276 42.5743 537.446 51.0329 528.592 59.4642C527.568 60.4389 526.154 61.0026 524.901 61.3662C524.029 58.7426 523.177 56.5097 521.93 53.2421C524.393 53.4851 526.464 53.6894 528.957 53.9355C528.64 52.4883 527.893 51.098 528.222 50.0433C528.599 48.833 529.738 47.4025 530.884 46.9766C534.132 45.7692 537.552 45.0256 541.42 43.957C539.804 41.3514 538.889 39.8758 537.418 37.5042C540.276 37.3648 542.332 37.2644 544.146 37.1759C544.516 35.055 544.854 33.1173 545.192 31.1797C546.843 31.8712 548.494 32.5627 550.572 33.433C551.593 31.1914 553.088 28.9764 553.611 26.5518C554.945 20.3605 554.771 20.3231 560.288 22.073C560.288 18.8871 560.288 15.6827 560.288 12.185C558.338 11.8394 556.192 11.4589 553.784 11.032C554.447 9.06771 554.927 7.64535 555.462 6.06109C553.104 6.06109 551.207 6.06109 549.31 6.06109C549.657 6.42254 550.003 6.78396 550.35 7.14541C549.045 9.19765 547.697 13.0146 546.443 12.9839C542.004 12.875 544.329 9.44152 544.435 7.05071C544.466 6.35647 543.389 4.99758 542.882 5.02685C541.905 5.08321 540.782 5.72155 540.055 6.45257C536.627 9.90108 533.839 14.3448 529.817 16.7483C525.343 19.421 522.351 21.4419 525.864 26.7049C519.746 28.6067 519.746 28.6067 517.959 34.4571C517.358 34.4889 516.687 34.6442 516.06 34.5388C510.869 33.667 510.643 34.0518 511.87 39.0213C512.195 40.3399 511.33 43.0962 510.527 43.3014C509.045 43.6805 507.206 42.6614 505.515 42.2248C505.173 42.5271 504.831 42.8293 504.488 43.1316C505.661 44.3231 506.749 45.6154 508.024 46.6856C510.866 49.0721 515.823 51.0103 516.278 53.7387C517.229 59.4351 520.793 60.4719 524.867 62.1465C521.636 65.5726 515.595 65.792 512.446 62.8107C509.063 59.6068 505.749 56.3196 502.56 52.9229C498.773 48.8885 498.58 43.5711 502.18 39.4253C504.223 37.0722 506.787 35.1801 508.971 32.9394C517.756 23.9282 526.28 14.6471 535.385 5.97387C537.544 3.91711 541.673 2.76827 544.735 3.03725C553.934 3.84527 563.048 5.59518 572.212 6.86141C573.054 6.97775 574.01 6.2644 575.31 6.0393C576.786 6.25561 577.867 6.36895 578.955 6.85C579.945 7.15353 580.927 7.08935 582.292 7.06805C583.434 7.2423 584.193 7.37368 584.942 7.82006C585.318 8.50671 585.703 8.87832 586.089 9.24996C586.353 8.74529 586.618 8.24062 587.203 7.72655C587.941 7.81115 588.357 7.90517 588.825 8.27343C589.548 8.58413 590.218 8.6206 591.208 8.66741C591.939 8.79385 592.349 8.90996 592.839 9.37136C596.991 12.2365 601.192 14.1236 606.42 12.4372C607.088 12.5269 607.465 12.6145 607.983 12.9582C608.656 13.4143 609.188 13.6142 609.822 14.1494C612.209 16.59 614.495 18.6951 616.778 21.2625C616.785 32.3849 616.812 43.0449 616.804 53.705C616.77 95.3452 616.725 136.985 616.367 178.709C613.632 181.701 611.213 184.609 608.374 187.556C606.258 187.624 604.563 187.653 602.591 187.413C599.83 187.323 597.346 187.502 594.436 187.672C592.309 187.609 590.608 187.556 588.85 187.167C587.521 186.077 586.249 185.321 584.943 184.347C584.91 184.128 584.833 183.691 584.828 183.339C583.935 182.183 583.046 181.378 582.091 180.216C581.972 179.137 581.918 178.413 581.873 177.256C582.189 167.048 582.734 157.274 582.76 147.499C582.863 109.415 582.816 71.3312 582.784 33.2473C582.78 28.8274 582.741 24.3851 582.285 19.9984C582.089 18.1165 580.783 16.3501 579.982 14.5312Z" fill="#ADFE03"/>
<path d="M795.865 628.29C824.689 628.277 853.014 628.286 881.339 628.189C882.997 628.183 884.652 627.32 886.308 626.857C885.483 625.343 884.948 623.547 883.79 622.357C869.758 607.928 855.881 593.332 841.416 579.347C835.329 573.461 834.848 563.055 841.291 556.635C843.533 554.4 845.714 552.097 848.05 549.964C854.23 544.321 862.64 543.998 868.665 549.771C878.852 559.532 888.649 569.699 898.681 579.623C911.171 591.979 923.805 604.189 936.236 616.604C943.653 624.012 950.843 631.65 958.052 639.263C962.725 644.197 962.943 652.922 958.29 657.864C952.125 664.412 945.696 670.712 939.336 677.074C926.293 690.12 913.217 703.132 900.162 716.166C889.923 726.39 879.719 736.65 869.454 746.849C863.165 753.098 853.945 753.141 847.648 747.03C845.376 744.825 843.15 742.573 840.903 740.344C834.496 733.987 834.318 725.521 840.639 719.158C855.434 704.267 870.308 689.454 885.122 674.581C886.334 673.365 887.329 671.933 889.229 669.625C885.937 669.334 883.905 668.998 881.872 668.997C832.219 668.966 782.567 668.978 732.914 668.961C727.315 668.959 721.751 668.438 718.018 663.572C716.469 661.553 714.836 658.998 714.707 656.608C714.372 650.379 714.116 643.976 715.207 637.89C716.28 631.905 722.495 628.323 729.383 628.31C751.377 628.268 773.371 628.292 795.865 628.29ZM920.886 607.145C917.501 603.766 914.162 600.338 910.719 597.017C903.961 590.497 897.026 584.156 890.383 577.522C881.618 568.768 873.085 559.783 864.376 550.972C863.651 550.238 862.225 549.532 861.341 549.739C857.921 550.539 854.084 551.001 851.352 552.931C847.907 555.366 845.198 558.961 842.52 562.332C838.985 566.781 840.043 572.44 845.778 578.141C861.079 593.353 876.552 608.392 891.975 623.482C894.481 625.933 894.763 628.666 892.03 630.727C890.378 631.973 887.833 632.545 885.687 632.549C834.531 632.642 783.374 632.616 732.218 632.614C730.885 632.614 729.504 632.41 728.227 632.682C724.066 633.568 719.534 634.899 718.986 639.681C718.299 645.685 718.359 651.889 719.108 657.88C719.376 660.02 722.275 662.453 724.553 663.55C726.95 664.705 730.04 664.718 732.828 664.721C784.485 664.776 836.141 664.73 887.797 664.846C889.764 664.851 893.071 665.921 893.389 667.121C893.917 669.117 893.248 672.318 891.822 673.793C884.924 680.93 877.471 687.527 870.47 694.569C861.235 703.859 852.271 713.418 843.122 722.795C839.645 726.359 839.711 730.586 842 734.168C844.529 738.126 848.045 741.536 851.49 744.807C856.148 749.231 860.925 749.06 865.582 744.538C871.405 738.884 877.025 733.022 882.838 727.358C891.262 719.151 899.9 711.161 908.222 702.853C915.837 695.252 923.03 687.229 930.635 679.619C937.77 672.479 945.295 665.731 952.475 658.635C959.357 651.832 959.313 645.715 952.542 638.833C950.925 637.188 948.836 636.006 947.224 634.357C938.567 625.5 929.993 616.563 920.886 607.145Z" fill="#7010C2"/>
<path d="M380.012 687.846C387.911 679.931 395.613 672.318 403.151 664.546C404.298 663.363 404.686 661.446 405.426 659.869C403.822 659.322 402.22 658.309 400.613 658.3C383.486 658.206 366.357 658.286 349.229 658.29C315.738 658.298 282.247 658.305 248.756 658.274C237.478 658.264 233.286 654.051 233.26 642.893C233.252 639.56 233.223 636.227 233.284 632.896C233.449 623.746 239.16 618.16 248.43 618.159C298.75 618.157 349.069 618.187 399.389 618.176C401.595 618.176 403.802 617.889 407.288 617.647C405.45 615.432 404.536 614.148 403.443 613.042C394.187 603.684 384.866 594.391 375.632 585.012C370.495 579.794 365.907 573.943 360.313 569.291C353.372 563.519 353.45 551.327 360.564 545.496C364.844 541.989 369.15 538.155 374.1 535.927C378.834 533.796 383.662 535.512 387.651 539.532C414.289 566.379 441.053 593.101 467.778 619.86C469.191 621.275 470.557 622.748 472.065 624.054C482.591 633.172 483.138 641.736 473.487 651.492C458.105 667.042 442.634 682.505 427.125 697.927C413.968 711.011 400.876 724.168 387.415 736.933C380.551 743.441 373.121 743.031 366.11 736.633C363.038 733.829 360.168 730.792 357.344 727.732C353.828 723.923 354.519 713.487 358.595 709.337C365.598 702.205 372.701 695.171 380.012 687.846ZM410.388 708.784C416.777 702.398 423.167 696.012 429.556 689.624C434.178 685.003 438.797 680.378 443.419 675.757C449.961 669.215 456.56 662.73 463.021 656.109C465.765 653.296 467.893 649.811 470.873 647.313C477.139 642.059 477.845 635.537 472.121 629.412C468.852 625.915 465.382 622.605 461.996 619.217C445.934 603.153 429.875 587.087 413.805 571.031C404.433 561.666 395.04 552.322 385.661 542.964C380.615 537.93 372.664 538.415 368.173 544.022C367.248 545.176 366.392 546.456 365.251 547.356C357.092 553.788 356.651 560.026 363.94 567.339C370.691 574.112 377.449 580.878 384.197 587.653C387.103 590.57 389.978 593.517 392.891 596.426C398.751 602.278 404.75 607.999 410.39 614.056C411.49 615.237 411.781 617.834 411.366 619.51C411.125 620.482 408.788 621.136 407.288 621.533C406.042 621.864 404.641 621.616 403.308 621.616C352 621.621 300.691 621.696 249.383 621.517C244.239 621.499 240.329 623.296 238.045 627.289C236.427 630.116 235.876 633.938 235.969 637.285C236.249 647.384 238.589 655.201 252.074 654.893C274.385 654.384 296.716 654.755 319.039 654.755C341.362 654.754 363.684 654.753 386.007 654.755C393.449 654.756 400.901 654.572 408.328 654.909C410.132 654.991 412.305 656.471 413.416 657.97C413.907 658.633 412.513 661.266 411.39 662.451C406.613 667.496 401.615 672.331 396.7 677.246C385.001 688.945 373.291 700.631 361.615 712.352C357.683 716.3 357.55 721.505 361.279 725.668C363.721 728.393 366.244 731.053 368.847 733.625C372.497 737.231 379.724 738.1 382.918 735.195C388.647 729.985 394.262 724.648 399.854 719.292C403.263 716.027 406.541 712.627 410.388 708.784Z" fill="#6F10BE"/>
<path d="M245.244 56.4425C295.361 56.4698 345.479 56.4974 395.596 56.5244C399.626 56.5266 403.657 56.5247 407.687 56.5247C407.86 55.9859 408.034 55.4471 408.207 54.9084C407.113 53.5962 406.11 52.1942 404.912 50.9858C393.657 39.6364 382.343 28.3456 371.119 16.9659C369.511 15.3355 368.291 13.323 367.148 10.886C382.474 7.45621 397.542 4.62778 412.611 1.79932C424.908 14.121 437.245 26.4024 449.487 38.7781C458.117 47.503 466.688 56.2893 475.156 65.1724C482.321 72.6897 482.06 80.2755 474.472 87.8827C457.063 105.337 439.599 122.738 422.16 140.163C411.202 151.113 400.27 162.089 389.288 173.014C380.724 181.533 371.12 181.028 363.567 171.774C362.203 170.103 360.712 168.533 359.239 166.955C353.542 160.851 353.456 152.351 359.325 146.435C373.723 131.918 388.233 117.512 402.676 103.04C404.032 101.682 405.236 100.174 407.587 97.5204C403.647 96.9648 401.029 96.2774 398.409 96.2733C349.769 96.197 301.129 96.2181 252.49 96.1524C249.361 96.1482 246.127 96.0103 243.126 95.2283C237.297 93.7092 233.597 88.8819 233.421 82.8164C233.242 76.6616 233.412 70.4967 233.146 63.9789C232.861 63.6216 232.77 63.6579 233.182 63.7207C233.711 63.2754 233.828 62.7673 234.137 61.9892C237.175 60.0158 240.022 58.3125 242.87 56.6093C242.87 56.6093 242.858 56.6823 243.121 56.7898C244.004 56.7456 244.624 56.5941 245.244 56.4425ZM311.366 92.7392C337.694 92.7411 364.023 92.7624 390.352 92.7277C395.425 92.721 400.52 92.7276 405.564 92.2732C408.122 92.0428 410.464 91.0817 411.993 94.1094C413.508 97.1088 412.757 99.3984 410.378 101.649C406.054 105.738 401.978 110.088 397.705 114.231C389.383 122.301 380.964 130.272 372.65 138.351C368.858 142.035 364.989 145.682 361.59 149.713C358.939 152.858 357.031 157.08 359.971 160.7C363.995 165.653 368.446 170.561 373.658 174.098C375.77 175.531 381.015 174.284 383.689 172.52C388.18 169.556 391.842 165.29 395.699 161.42C405.489 151.599 415.157 141.658 424.941 131.831C437.646 119.07 450.407 106.365 463.164 93.6555C466.201 90.6295 469.516 87.859 472.348 84.6566C476.925 79.481 477.25 72.7302 472.429 67.7059C469.118 64.2544 465.722 60.8801 462.286 57.5525C453.838 49.373 445.223 41.3631 436.907 33.053C429.146 25.2968 421.523 17.3863 414.166 9.24744C411.201 5.96671 407.889 5.04196 403.941 5.71964C394.495 7.34106 385.073 9.1102 375.663 10.9294C374.683 11.119 373.844 12.044 371.233 13.7291C376.021 17.7754 380.402 21.0681 384.302 24.8555C393.294 33.5874 402.137 42.4788 410.809 51.5271C412.012 52.7823 412.908 56.3099 412.197 57.0119C410.686 58.5031 408.024 59.5211 405.83 59.5267C353.673 59.659 301.515 59.6176 249.358 59.6823C247.292 59.6848 244.964 59.9398 243.206 60.8984C236.011 64.8223 232.941 78.9955 237.616 85.8499C238.07 86.5157 238.851 86.9496 239.426 87.5434C243.976 92.2415 249.834 92.7488 255.875 92.7442C274.039 92.7303 292.202 92.7393 311.366 92.7392Z" fill="#7010C2"/>
<path d="M773.379 367.511C772.22 350.959 771.07 334.872 769.95 318.782C769.199 307.999 768.502 297.211 767.757 286.427C767.597 284.108 767.422 281.784 767.106 279.483C765.975 271.25 772.064 264.186 780.438 263.562C804.132 261.796 827.809 259.792 851.5 257.991C869.078 256.655 886.661 255.366 904.256 254.305C912.978 253.779 918.655 259.309 919.189 268.071C919.372 271.059 919.917 274.028 920.027 277.016C920.372 286.376 915.186 292.115 905.85 292.782C882.657 294.439 859.461 296.064 835.035 297.789C836.686 299.568 837.6 300.763 838.715 301.725C878.54 336.091 918.386 370.432 958.221 404.785C964.03 409.794 965.082 417.412 960.536 423.59C957.979 427.066 955.037 430.285 952.061 433.423C946.782 438.991 939.477 439.549 933.688 434.598C915.349 418.914 897.12 403.101 878.857 387.328C857.324 368.731 835.807 350.118 814.256 331.543C813.081 330.531 811.655 329.81 809.539 328.425C810.163 338.612 810.666 347.698 811.287 356.775C812.139 369.205 813.14 381.625 813.944 394.057C814.176 397.638 814.597 401.401 813.792 404.811C812.218 411.477 806.637 414.601 798.457 415.027C789.725 415.482 780.436 417.237 776.855 406.154C775.457 401.827 775.577 396.984 775.193 392.36C774.52 384.238 773.991 376.104 773.379 367.511ZM773.879 343.359C773.897 343.798 773.915 344.237 773.881 345.521C773.942 346.93 774.004 348.339 774.08 350.511C774.665 353.908 775.409 357.288 775.791 360.708C776.231 364.653 776.358 368.633 776.61 372.599C777.133 380.817 777.238 389.09 778.305 397.236C779.092 403.25 779.389 410.277 787.12 412.281C789.866 412.993 792.894 412.735 795.792 412.723C807.492 412.675 812.159 408.092 811.808 396.343C811.625 390.241 810.387 384.177 809.961 378.072C808.866 362.363 807.903 346.644 807.056 330.919C806.97 329.326 807.638 327.269 808.722 326.216C809.263 325.691 811.857 326.558 812.979 327.467C823.541 336.012 834.111 344.556 844.428 353.393C854.693 362.185 864.609 371.384 874.79 380.275C887.394 391.282 900.118 402.152 912.783 413.09C920.052 419.367 927.313 425.652 934.563 431.951C938.64 435.493 943.977 435.783 948.155 432.363C950.98 430.051 953.613 427.486 956.187 424.89C962.341 418.687 962.489 413.301 956.057 407.434C948.364 400.416 940.174 393.945 932.371 387.043C925.806 381.237 919.623 374.998 913.03 369.225C900.819 358.533 888.451 348.018 876.112 337.472C863.133 326.38 850.136 315.308 837.086 304.299C834.563 302.169 832.793 300.053 835.554 296.376C839.655 295.804 843.757 295.233 848.749 294.683C851.122 294.643 853.494 294.603 856.452 294.593C856.925 294.299 857.397 294.005 858.805 293.712C871.477 292.979 884.148 292.246 897.688 291.622C900.747 291.308 903.806 290.993 907.581 290.626C912.951 288.992 916.677 285.59 917.169 279.909C917.509 275.989 917.152 271.894 916.394 268.016C914.685 259.276 911.267 256.702 902.372 256.714C899.554 256.718 896.735 256.836 893.182 256.784C892.078 257.1 890.974 257.416 888.963 257.715C885.947 257.769 882.93 257.824 879.075 257.771C877.008 258.08 874.942 258.39 871.995 258.701C864.302 259.093 856.61 259.485 848.315 259.813C847.831 260.113 847.347 260.412 845.947 260.701C842.589 260.764 839.231 260.827 835.431 260.993C835.152 261.152 834.969 261.387 833.966 261.713C830.616 261.765 827.266 261.818 823.235 261.78C822.444 262.09 821.653 262.4 819.942 262.698C809.722 263.413 799.493 264.029 789.285 264.892C785.352 265.225 781.445 266.015 777.564 266.781C771.533 267.972 768.697 273.319 768.903 283.506C769.213 285.574 769.523 287.642 769.871 290.371C769.906 290.811 769.941 291.251 769.98 292.33C770.582 292.825 771.184 293.321 771.673 294.616C771.439 298.3 771.206 301.984 770.898 306.564C771.228 309.608 771.559 312.652 771.879 316.567C771.953 318.591 772.027 320.615 772.006 323.239C772.299 323.726 772.592 324.214 772.873 325.633C772.931 330.305 772.989 334.976 772.943 340.328C773.256 341.119 773.569 341.909 773.879 343.359Z" fill="#A7DD3D"/>
<path d="M759.601 76.9656C770.894 85.0278 782.207 93.0619 793.449 101.194C794.604 102.029 795.333 103.451 796.516 104.909C796.771 105.218 796.664 105.205 796.664 105.205C791.882 105.498 787.102 106.016 782.318 106.041C765.546 106.13 748.773 106.076 732.001 106.023C720.187 105.985 714.645 100.386 714.6 88.5685C714.592 86.5757 714.586 84.5828 714.6 82.5901C714.674 71.7557 720.885 66.0581 731.597 66.8252C733.702 66.9759 735.846 66.5753 738.139 66.059C738.304 65.6891 738.359 65.6005 738.436 66.0149C739.049 66.5453 739.586 66.6613 740.467 66.7517C745.43 69.4574 750.018 72.2416 754.683 74.8899C756.22 75.7624 757.956 76.2837 759.601 76.9656Z" fill="#8807EC"/>
<path d="M225.343 890.699C235.145 892.028 240.646 896.516 240.865 903.529C240.994 907.661 241.043 911.8 240.851 915.929C240.527 922.896 233.38 927.949 223.745 928.025C213.716 928.104 203.316 926.818 193.75 928.344C182.482 930.141 177.952 924.758 172.567 920.435C164.909 914.289 155.412 909.766 154.865 900.699C152.367 900.699 147.378 896.699 151.865 896.699C148.56 895.249 150.27 893.461 146.979 891.467C157.492 891.131 167.52 891.185 177.546 891.122C193.479 891.022 209.411 890.844 225.343 890.699Z" fill="#FEFEFE"/>
<path d="M84.8708 575.456C68.6904 591.729 52.5046 607.997 36.3319 624.277C28.2651 632.398 20.9348 632.04 12.5857 624.263C-2.00555 610.671 1.43001 603.983 12.9798 592.746C40.0774 566.383 66.6299 539.46 93.4151 512.775C101.736 504.485 108.856 504.587 117.082 512.832C145.199 541.01 173.351 569.153 201.518 597.281C209.676 605.427 209.755 612.127 201.631 620.498C201.283 620.856 200.9 621.185 200.581 621.566C191.142 632.842 182.512 633.681 171.163 621.537C156.954 606.331 141.929 591.888 127.245 577.127C126.702 576.581 126.033 576.158 124.187 574.705C124.187 630.593 124.187 685.269 124.006 739.847C123.822 687.622 123.828 635.493 123.771 583.365C123.769 581.477 123.13 579.59 122.566 577.498C123.373 575.692 124.403 574.091 125.666 572.128C129.833 575.986 133.331 578.993 136.566 582.261C150.418 596.255 164.054 610.466 178.145 624.214C180.201 626.22 184.255 626.295 187.442 627.001C193.196 628.275 194.823 622.446 198.46 620.123C206.145 615.216 206.344 605.145 199.648 598.918C193.228 592.95 186.845 586.932 180.669 580.714C168.035 567.994 155.652 555.024 142.972 542.35C132.814 532.195 122.447 522.244 111.972 512.416C110.36 510.904 107.739 510.156 105.458 509.732C100.941 508.894 98.0564 512.002 95.2261 514.826C75.0744 534.932 54.9473 555.063 34.8144 575.189C26.8027 583.197 18.7798 591.195 10.7926 599.228C4.4931 605.564 4.25659 610.731 10.0703 617.369C12.2612 619.871 14.6844 622.178 17.0952 624.476C21.0876 628.281 30.0357 627.275 33.7375 623.216C39.7221 616.653 46.0483 610.397 52.3069 604.088C58.8262 597.516 65.3197 590.911 72.0503 584.559C76.1156 580.723 80.6107 577.342 84.9005 574.039C84.8825 574.701 84.8766 575.078 84.8708 575.456Z" fill="#A8DF3B"/>
<path d="M432.753 820.754C437.912 826.182 439.791 842.18 435.9 848.305C433.345 852.326 429.812 854.537 424.829 854.874C402.282 856.399 379.75 858.132 357.214 859.825C356.107 859.908 355.025 860.314 352.82 860.828C360.313 867.335 367.138 873.29 373.994 879.21C407.745 908.352 441.54 937.445 475.236 966.65C482.829 973.231 483.174 980.267 476.756 987.963C474.623 990.519 472.425 993.023 470.192 995.493C464.837 1001.42 457.848 1002.18 451.657 996.956C436.028 983.758 420.58 970.344 405.078 956.995C385.675 940.287 366.296 923.552 346.896 906.84C341.48 902.174 336.038 897.538 330.587 892.913C329.891 892.323 329.071 891.881 327.46 890.802C327.981 899.113 328.442 906.476 328.583 914.526C328.091 916.106 327.921 916.999 327.386 917.724C326.649 915.858 326.089 914.176 325.936 912.458C325.352 905.865 324.813 899.265 324.466 892.657C324.393 891.268 324.862 888.937 325.689 888.619C327.075 888.085 329.458 888.211 330.539 889.115C340.452 897.402 350.206 905.882 359.946 914.374C371.306 924.277 382.555 934.308 393.946 944.174C407.595 955.995 421.334 967.712 435.054 979.45C441.22 984.725 447.219 990.229 453.694 995.096C459.178 999.219 462.5 998.588 467.292 993.852C469.186 991.979 471.082 990.105 472.914 988.171C480.415 980.252 479.861 974.733 472.373 967.806C462.402 958.582 451.887 949.945 441.588 941.077C430.223 931.29 418.829 921.537 407.465 911.75C397.923 903.532 388.448 895.236 378.865 887.067C370.543 879.973 362.033 873.098 353.801 865.904C352.4 864.68 350.791 861.352 351.333 860.696C352.821 858.898 355.279 857.342 357.582 856.91C360.964 856.275 364.558 856.886 368.04 856.642C385.822 855.394 403.583 853.79 421.38 852.821C431.93 852.246 437.431 845.699 435.02 835.382C434.606 833.609 434.041 831.823 433.971 830.027C433.777 825.018 431.418 821.625 426.684 819.42C425.908 819.037 425.317 818.901 424.28 818.763C420.564 818.765 417.294 818.769 413.734 818.746C413.249 818.711 413.055 818.703 413.147 818.407C415.097 817.956 416.761 817.792 418.425 817.629C418.5 817.314 418.695 817.197 419.389 817.433C420.103 817.602 420.41 817.519 420.692 817.339C422.56 817.259 424.428 817.178 426.84 817.357C427.635 817.684 427.884 817.758 428.131 817.838C428.501 817.926 428.871 818.014 429.723 818.341C430.206 818.579 430.074 818.601 430.074 818.601C430.074 818.601 430.497 818.842 430.7 819.27C431.52 820.05 432.136 820.402 432.753 820.754Z" fill="#A6DD3A"/>
<path d="M616.891 577.662C617.388 576.067 617.884 574.471 618.381 572.876C619.91 573.714 621.734 574.255 622.925 575.435C638.587 590.955 654.161 606.564 669.756 622.153C676.499 628.894 683.306 628.878 690.084 622.059C694.141 617.977 699.354 614.412 697.861 607.472C697.36 605.141 696.719 602.387 695.152 600.81C683.266 588.84 671.031 577.218 659.11 565.283C648.928 555.089 639.085 544.556 628.963 534.3C622.23 527.477 615.298 520.851 608.407 514.187C601.979 507.971 595.702 508.203 589.397 514.584C579.739 524.36 569.931 533.989 560.281 543.773C549.826 554.372 539.569 565.167 529.056 575.708C521.104 583.68 512.83 591.331 504.804 599.231C498.219 605.713 498.092 610.795 504.285 617.766C508.684 622.717 512.889 628.339 520.791 626.682C522.954 626.228 525.322 625.376 526.937 623.957C531.022 620.365 534.783 616.395 538.584 612.489C546.669 604.18 554.595 595.713 562.79 587.514C566.962 583.34 571.492 579.506 576.048 575.746C577.099 574.878 578.918 574.94 580.383 574.574C580.772 576.268 581.162 577.962 581.215 579.444C580.583 578.733 580.288 578.234 579.992 577.735C578.828 578.012 577.293 577.908 576.558 578.625C567.499 587.457 558.563 596.414 549.585 605.328C542.733 612.131 535.939 618.993 528.989 625.693C522.326 632.115 514.43 631.936 507.766 625.396C505.39 623.065 502.96 620.772 500.772 618.272C495.333 612.06 495.356 604.883 501.123 599.081C517.903 582.198 534.827 565.457 551.676 548.643C563.931 536.414 576.17 524.169 588.391 511.907C595.246 505.03 603.095 504.721 609.905 511.515C638.904 540.441 667.85 569.42 696.733 598.462C703.241 605.006 703.016 612.919 696.527 619.662C694.565 621.701 692.557 623.698 690.522 625.665C683.784 632.179 676.052 632.159 669.391 625.516C653.478 609.644 637.625 593.711 621.636 577.916C621.137 577.423 620.251 573.536 617.972 577.48C617.29 577.701 617.09 577.681 616.891 577.662Z" fill="#A2D936"/>
<path d="M699.904 51.2787C697.023 59.3378 683.817 71.2865 676.781 67.4547C674.493 66.2089 671.922 65.1702 670.125 63.3873C656.232 49.6038 642.498 35.661 628.697 21.0557C630.039 20.0245 631.636 19.0727 632.724 19.4795C653.627 27.2926 674.475 35.2507 695.319 43.2183C698.987 44.6203 701.006 47.0966 699.904 51.2787Z" fill="#ADF613"/>
<path d="M394.035 334.34C417.259 354.297 440.482 374.255 463.706 394.212C467.746 397.684 471.818 401.119 475.825 404.629C482.046 410.078 482.954 417.675 477.969 424.211C475.451 427.51 472.674 430.649 469.743 433.589C464.254 439.093 456.839 439.277 450.915 434.167C425.084 411.888 399.283 389.576 373.469 367.277C359.496 355.207 345.528 343.131 331.528 331.092C330.591 330.287 329.402 329.777 327.467 328.609C328.103 338.537 328.612 347.562 329.274 356.575C330.346 371.161 331.766 385.726 332.527 400.327C332.833 406.198 329.78 410.847 323.604 413.546C322.376 413.775 321.745 413.899 321.114 414.023C320.88 414.178 320.646 414.334 319.581 414.574C315.144 414.914 311.538 415.169 307.931 415.424C307.752 415.481 307.574 415.538 307.078 415.229C305.537 414.78 304.313 414.695 303.09 414.611C303.09 414.611 302.972 414.679 302.93 414.312C302.881 413.539 302.874 413.132 303.334 412.717C306.797 412.717 309.794 412.752 312.791 412.727C325.321 412.626 331.223 405.648 329.852 393.291C328.594 381.951 327.879 370.551 326.909 359.179C326.178 350.607 325.273 342.047 324.772 333.462C324.634 331.099 325.67 328.667 326.167 326.266C328.559 327.094 331.474 327.313 333.26 328.847C345.401 339.281 356.932 350.456 369.418 360.444C377.373 366.807 384.901 373.505 392.311 380.457C400.102 387.768 408.584 394.341 416.746 401.258C426.683 409.68 436.59 418.136 446.534 426.549C449.315 428.901 452.031 431.376 455.046 433.39C458.333 435.585 461.99 435.797 465.103 432.99C468.644 429.799 472.239 426.579 475.255 422.915C479.799 417.394 478.56 410.601 472.909 406.022C469.435 403.207 466.227 400.064 462.849 397.126C455.976 391.145 449.064 385.209 442.178 379.243C433.969 372.131 425.815 364.955 417.551 357.908C412.902 353.944 407.905 350.374 403.382 346.276C398.649 341.987 394.296 337.278 389.877 332.542C390.161 332.069 390.398 331.874 390.692 331.746C391.266 332.096 391.84 332.447 392.631 333.315C393.042 334.227 393.237 334.622 393.432 335.016C393.633 334.791 393.834 334.565 394.035 334.34Z" fill="#A8DF3B"/>
<path d="M302.2 263.582C305.509 263.265 308.818 262.948 312.944 262.68C314.259 262.683 314.757 262.637 315.254 262.59C318.529 262.598 321.804 262.606 325.837 262.651C327.338 262.363 328.08 262.038 328.822 261.713C336.201 261.352 343.579 260.99 351.647 260.689C352.837 260.511 353.336 260.271 353.836 260.031C354.911 259.664 355.986 259.296 357.656 259.154C358.77 259.245 359.289 259.112 359.808 258.978C361.339 258.902 362.87 258.826 365.271 258.784C369.34 258.577 372.539 258.334 375.739 258.092C376.233 258.009 376.727 257.926 377.769 258.102C379.132 258.158 379.947 257.954 380.762 257.75C393.512 256.683 406.279 255.777 419.008 254.5C430.191 253.377 436.117 257.974 437.026 268.984C437.258 271.796 437.824 274.593 437.884 277.404C438.07 286.083 433.367 291.925 424.783 292.619C401.443 294.504 378.073 296.014 354.102 297.382C352.978 296.96 352.467 296.829 351.995 296.343C354.288 291.908 357.739 294.899 360.575 294.677C379.059 293.228 397.575 292.177 416.049 290.615C421.014 290.195 426.618 289.619 430.599 287.052C436.865 283.01 437.348 276.515 433.233 265.336C430.407 257.659 426.877 255.898 419.224 256.733C408.21 257.935 397.156 258.786 386.106 259.62C375.37 260.429 364.604 260.871 353.875 261.754C335.412 263.272 316.971 265.052 298.513 266.627C292.252 267.162 287.662 271.569 287.911 277.9C288.4 290.317 289.065 302.733 289.98 315.125C291.452 335.085 293.238 355.022 294.745 374.98C294.937 377.531 294.254 380.148 293.761 382.723C293.258 382.691 292.97 382.672 292.682 382.655C292.453 379.609 292.223 376.563 292.261 372.883C292.269 371.396 292.009 370.543 291.749 369.69C291.559 368.919 291.369 368.148 291.4 366.828C291.513 365.783 291.404 365.289 291.296 364.794C291.207 363.343 291.119 361.891 291.306 359.793C291.279 357.995 290.975 356.842 290.671 355.69C290.477 352.621 290.283 349.552 290.347 345.806C290.311 343.983 290.018 342.838 289.726 341.692C289.523 338.956 289.32 336.22 289.386 332.726C289.027 325.771 288.398 319.574 287.77 313.377C287.676 311.592 287.582 309.808 287.639 307.187C287.084 297.908 286.377 289.465 285.67 281.022C285.496 280.484 285.322 279.946 285.4 278.686C285.639 276.984 285.627 276.004 285.614 275.025C285.396 274.803 285.353 274.551 285.739 273.822C286.339 272.417 286.684 271.459 287.029 270.5C287.099 270.306 287.168 270.113 287.476 269.683C287.714 269.448 287.784 269.314 287.784 269.314C290.349 263.949 295.815 265.168 300.879 263.771C301.794 263.65 301.997 263.616 302.2 263.582Z" fill="#ACE33C"/>
<path d="M872.662 178.879C868.08 189.275 856.435 192.033 848.239 184.478C844.974 181.468 841.744 178.251 839.24 174.617C834.017 167.036 836.756 159.677 847.779 151.744C850.25 152.946 852.095 154.298 853.941 155.65C853.941 155.65 853.874 155.689 853.772 156.012C854.097 156.447 854.523 156.559 854.949 156.672C854.949 156.672 854.878 156.685 854.81 157.006C855.144 157.441 855.547 157.556 855.951 157.67C855.951 157.67 855.88 157.686 855.767 158.042C856.085 158.484 856.515 158.568 856.945 158.653C856.945 158.653 856.867 158.696 856.618 158.953C859.228 162.025 862.086 164.841 864.944 167.657C864.944 167.657 864.876 167.686 864.789 168.013C865.118 168.449 865.533 168.556 865.949 168.664C865.949 168.664 865.878 168.685 865.8 169.02C866.131 169.457 866.54 169.558 866.948 169.659C866.948 169.659 866.87 169.696 866.634 169.964C867.915 171.708 869.431 173.185 870.947 174.663C870.947 174.663 870.877 174.685 870.796 175.023C871.126 175.461 871.537 175.56 871.948 175.659C871.948 175.659 871.865 175.697 871.618 175.847C871.802 176.958 872.232 177.919 872.662 178.879Z" fill="#8709E7"/>
<path d="M574.914 5.93658C574.01 6.26465 573.054 6.978 572.212 6.86166C563.049 5.59543 553.934 3.84552 544.735 3.03751C541.674 2.76852 537.544 3.91736 535.385 5.97412C526.281 14.6473 517.757 23.9284 508.972 32.9396C506.787 35.1804 504.223 37.0725 502.18 39.4256C498.58 43.5714 498.773 48.8887 502.561 52.9232C505.749 56.3199 509.063 59.607 512.447 62.8109C515.595 65.7923 521.636 65.5729 524.839 62.1173C524.865 61.6994 524.921 61.7571 524.921 61.7571C526.154 61.0029 527.569 60.4391 528.592 59.4644C537.447 51.0331 546.276 42.5745 555.021 34.0298C561.84 27.3668 568.498 20.5404 575.288 13.8465C577.92 11.2504 577.994 11.3254 580.134 13.5122C578.471 14.7194 576.855 15.5319 575.633 16.7422C560.261 31.9699 544.938 47.2466 529.621 62.5291C522.4 69.7331 514.638 69.6992 507.451 62.3752C505.47 60.3555 503.482 58.3417 501.518 56.305C495.152 49.7039 495.214 42.3559 501.829 35.7003C513.561 23.8961 525.358 12.1568 537.551 0C543.061 0.278046 548.179 0.769409 553.227 1.65677C560.483 2.93216 567.687 4.49594 574.914 5.93658Z" fill="#ACE33C"/>
<path d="M85.2052 575.757C84.8769 575.078 84.8828 574.7 85.271 574.067C89.2355 575.023 88.8272 578.019 88.827 580.855C88.8224 630.018 88.9425 679.181 88.7117 728.342C88.6716 736.884 88.5342 744.912 96.8103 750.113C96.9141 750.178 96.9052 750.423 96.7725 750.657C96.3696 751.027 96.143 751.323 95.9164 751.619C88.9067 749.767 85.9697 745.901 85.9674 738.273C85.9523 687.846 85.97 637.419 85.9441 586.991C85.9423 583.347 85.6804 579.702 85.2052 575.757Z" fill="#9EDA26"/>
<path d="M579.913 15.0127C580.784 16.3499 582.089 18.1164 582.285 19.9982C582.741 24.385 582.781 28.8272 582.784 33.2472C582.816 71.331 582.864 109.415 582.76 147.499C582.734 157.274 582.189 167.048 581.622 177.449C581.26 178.888 581.158 179.701 581.025 180.542C580.995 180.571 580.934 180.629 580.934 180.629C580.56 178.353 579.861 176.078 579.858 173.802C579.808 121.033 579.832 68.2636 579.913 15.0127Z" fill="#ACE33C"/>
<path d="M115.783 855.788C109.311 851.866 108.984 847.618 114.706 843.311C116.552 841.922 118.143 840.193 120.439 838.077C114.074 831.273 107.98 824.758 101.885 818.245C101.658 818.003 100.58 816.951 100.365 816.699C99.0054 815.102 98.4737 814.334 97.1192 812.732C95.0518 814.626 92.7487 816.325 90.9845 818.468C89.2793 820.54 88.09 822.953 85.0938 819.946C85.1521 819.469 85.487 819.188 85.487 819.188C86.571 818.81 87.8697 818.69 88.6957 818.002C90.6033 816.414 92.2248 814.488 94.0636 812.81C100.197 807.213 107.589 807.317 113.634 813.08C116.038 815.371 118.38 817.729 120.7 820.106C126.383 825.929 126.738 833.536 121.21 839.574C118.206 842.856 114.588 845.574 111.005 848.762C113.312 851.311 114.851 853.01 116.322 855.116C116.098 855.612 115.94 855.7 115.783 855.788Z" fill="#F6F6F6"/>
<path d="M124.83 174.457C124.5 176.236 124.568 178.228 123.753 179.748C122.309 182.44 120.799 185.45 118.48 187.248C113.045 191.463 95.8603 190.633 90.2539 185.807C92.1695 182.656 93.7682 179.926 95.8236 177.6C103.528 168.882 111.333 160.249 119.243 151.717C120.207 150.677 122.035 150.437 123.463 149.827C124.048 151.218 125.124 152.605 125.135 154C125.189 160.818 124.96 167.638 124.83 174.457ZM107.826 167.182C104.547 170.908 101.111 174.509 98.0547 178.409C96.4492 180.458 95.5103 183.03 94.2704 185.365C96.9417 185.827 99.5995 186.576 102.287 186.704C117.019 187.406 123.077 185.323 121.942 167.034C121.673 162.709 121.902 158.353 121.902 154.01C121.375 153.88 120.847 153.75 120.32 153.619C116.323 157.973 112.325 162.326 107.826 167.182Z" fill="#B1E743"/>
<path d="M874.887 819.213C876.321 819.068 877.755 818.924 879.65 819.266C879.437 821.214 879.053 822.924 878.044 824.097C870.824 832.498 863.416 840.737 856.201 849.143C853.582 852.194 851.327 855.558 848.906 858.779C848.906 858.779 848.878 858.706 848.598 858.627C847.547 858.941 846.776 859.333 845.55 859.686C841.71 859.969 838.323 860.292 834.658 860.423C834.073 855.147 838.049 855.405 840.758 856.097C844.345 857.014 846.555 855.718 848.658 853.449C856.403 845.093 864.219 836.796 871.698 828.207C873.384 826.272 873.822 823.25 874.843 820.476C874.863 819.886 874.875 819.549 874.887 819.213Z" fill="#ACE33C"/>
<path d="M122.789 577.703C123.13 579.59 123.768 581.477 123.771 583.365C123.828 635.493 123.821 687.622 123.844 740.217C123.885 740.858 123.907 741.032 123.577 741.467C123.039 741.731 122.853 741.734 122.701 741.266C122.759 687.446 122.782 634.098 122.812 580.467C122.804 579.997 122.79 579.809 122.771 579.301C122.775 578.556 122.782 578.129 122.789 577.703Z" fill="#B1E743"/>
<path d="M616.859 577.923C617.09 577.682 617.289 577.702 617.788 577.754C618.152 589.755 618.271 601.723 618.273 613.692C618.28 653.932 618.246 694.173 618.056 735.287C617.512 738.04 617.14 739.918 616.768 741.797C616.777 688.082 616.786 634.367 616.81 579.933C616.819 579.045 616.814 578.877 616.808 578.709C616.815 578.534 616.821 578.359 616.859 577.923Z" fill="#AEE540"/>
<path d="M235.296 892.043C223.98 892.443 212.353 892.621 200.725 892.722C193.407 892.785 186.088 892.731 178.299 892.72C170.774 892.701 163.719 892.741 156.666 892.639C155.386 892.621 154.115 892.021 152.982 891.031C153.237 890.218 153.349 890.061 153.461 889.904C155.812 890.479 158.16 891.537 160.516 891.553C185.338 891.728 210.161 891.736 235.296 892.043Z" fill="#E7E7E7"/>
<path d="M874.457 819.085C874.875 819.55 874.863 819.886 874.417 820.482C871.992 820.752 870.001 820.763 867.695 820.767C866.872 821.068 866.364 821.376 865.536 821.705C864.79 821.729 864.363 821.732 863.461 821.719C859.867 821.703 856.731 821.499 853.631 821.745C847.029 822.269 840.447 823.028 833.491 823.707C832.396 823.726 831.665 823.729 830.467 823.717C825.946 824.043 821.894 824.383 817.536 824.739C816.826 824.762 816.419 824.769 815.587 824.748C812.727 825.049 810.293 825.377 807.401 825.717C803.31 825.752 799.676 825.775 795.657 825.763C794.129 826.058 792.986 826.387 791.415 826.74C786.666 827.094 782.345 827.425 777.663 827.759C776.176 828.098 775.048 828.435 773.835 828.677C773.748 828.582 773.574 828.395 773.574 828.395C775.992 827.474 778.361 825.918 780.834 825.73C804.455 823.927 828.096 822.372 851.728 820.708C859.165 820.184 866.594 819.544 874.457 819.085Z" fill="#A7DD3D"/>
<path d="M616.686 178.626C616.726 136.986 616.771 95.3453 616.805 53.705C616.814 43.045 616.787 32.385 616.806 20.878C616.935 18.9504 617.033 17.8697 617.132 16.7891C617.326 16.8067 617.519 16.8244 617.713 16.842C617.797 18.2514 617.881 19.6608 617.965 21.0702C618.069 22.0566 618.265 23.0429 618.265 24.0293C618.263 73.5002 618.244 122.971 618.059 173.346C617.919 175.199 617.947 176.147 617.975 177.094C618.056 177.454 618.137 177.814 617.769 178.422C617.109 178.655 616.897 178.641 616.686 178.626Z" fill="#B1E743"/>
<path d="M579.913 578.195C580.286 578.234 580.582 578.734 580.926 579.537C580.974 581.801 580.974 583.762 580.937 586.627C580.924 635.969 580.948 684.405 580.972 732.841C580.98 734.147 580.988 735.453 580.884 737.383C580.518 738.231 580.263 738.455 580.009 738.68C579.943 730.375 579.821 722.07 579.819 713.766C579.808 668.729 579.827 623.693 579.913 578.195Z" fill="#AEE540"/>
<path d="M285.131 840.586C284.721 831.741 290.688 826.145 300.333 825.539C320.334 824.282 340.316 822.709 360.291 821.781C358.467 822.431 356.653 822.521 354.849 822.708C348.506 823.368 342.166 824.061 335.526 824.751C334.827 824.761 334.426 824.761 333.708 824.754C332.875 825.052 332.36 825.358 331.398 825.686C328.272 825.71 325.593 825.712 322.52 825.703C321.34 825.707 320.552 825.722 319.358 825.749C317.325 825.771 315.698 825.781 313.725 825.773C312.53 826.071 311.68 826.386 310.483 826.716C309.44 826.746 308.744 826.761 307.727 826.761C306.886 827.049 306.365 827.354 305.519 827.678C304.762 827.7 304.328 827.702 303.509 827.697C302.348 827.699 301.574 827.708 300.414 827.729C294.051 828.928 289.189 831.593 286.65 837.826C285.982 838.859 285.556 839.722 285.131 840.586Z" fill="#A2D936"/>
<path d="M849.27 858.743C851.326 855.558 853.581 852.194 856.2 849.143C863.415 840.737 870.822 832.498 878.043 824.097C879.051 822.924 879.436 821.214 880.066 819.388C880.791 818.843 881.561 818.662 882.598 818.783C882.89 819.32 882.915 819.555 882.939 819.79C882.528 824.089 880.349 827.121 877.274 830.257C869.43 838.261 862.286 846.946 854.72 855.229C853.372 856.705 851.347 857.563 849.27 858.743Z" fill="#EEFBC3"/>
<path d="M845.936 861.772C839.15 868.784 832.474 875.907 825.528 882.755C822.541 885.7 818.995 888.078 815.299 890.723C814.896 890.732 814.854 890.688 814.822 890.34C820.316 884.844 825.964 879.819 831.318 874.5C834.187 871.65 836.551 868.292 839.499 865.268C841.677 863.973 843.498 862.572 845.474 861.321C845.628 861.471 845.936 861.772 845.936 861.772Z" fill="#EEFBC3"/>
<path d="M390.514 331.483C390.398 331.874 390.16 332.069 389.537 332.486C381.028 325.639 372.959 318.638 365.082 311.383C365.646 310.935 366.019 310.74 366.391 310.545C374.373 317.437 382.355 324.328 390.514 331.483Z" fill="#A2D936"/>
<path d="M770.075 879.66C769.014 866.443 767.569 853.239 767.157 840.002C767.05 836.559 770.172 833.016 772.222 829.481C772.632 829.443 772.891 829.719 772.853 830.035C772.487 831.133 772.161 831.914 771.607 832.881C771.164 833.605 770.948 834.143 770.416 834.738C769.705 835.478 769.31 836.162 768.921 837.285C768.931 840.654 768.935 843.583 768.91 846.964C769.532 850.845 770.183 854.275 770.855 858.171C770.886 863.621 770.895 868.605 770.89 873.991C770.608 876.149 770.341 877.905 770.075 879.66Z" fill="#A7DD3D"/>
<path d="M292.663 944.918C292.416 941.802 292.169 938.686 292.19 934.929C292.189 933.424 291.921 932.559 291.653 931.693C291.5 931.224 291.346 930.755 291.45 929.573C291.772 924.784 291.838 920.709 292.172 916.908C293.235 924.999 294.094 932.811 294.787 940.638C295.024 943.315 294.842 946.029 294.618 948.557C293.812 947.231 293.237 946.075 292.663 944.918Z" fill="#A6DD3A"/>
<path d="M335.826 824.741C342.167 824.061 348.507 823.368 354.85 822.708C356.654 822.52 358.468 822.431 360.57 822.008C363.197 821.692 365.532 821.665 368.725 821.662C370.715 821.706 371.845 821.726 372.838 822.126C371.021 822.886 369.357 823.473 367.657 823.611C361.902 824.077 356.139 824.504 350.371 824.715C345.529 824.892 340.675 824.745 335.826 824.741Z" fill="#ACE33C"/>
<path d="M331.596 956.811C335.664 967.283 327.838 978.405 316.277 976.85C315.885 976.255 315.9 975.959 316.216 975.651C316.923 975.632 317.328 975.626 318.135 975.649C319.979 975.079 321.42 974.479 323.214 973.826C324.65 973.428 325.733 973.083 327.116 972.586C327.872 971.474 328.328 970.515 328.82 969.25C329.197 968.201 329.538 967.459 330.126 966.532C330.519 965.76 330.662 965.171 330.801 964.202C330.8 962.813 330.805 961.805 330.826 960.443C331.093 958.997 331.345 957.904 331.596 956.811Z" fill="#A2D936"/>
<path d="M584.978 184.566C586.25 185.321 587.523 186.077 589.055 187.488C591.164 187.99 593.013 187.836 594.863 187.682C597.347 187.502 599.831 187.323 602.847 187.698C605.172 188.365 606.966 188.478 608.836 188.673C608.912 188.754 609.061 188.92 609.061 188.92C600.642 189.475 591.994 192.193 584.338 185.851C584.605 185.125 584.791 184.845 584.978 184.566Z" fill="#ACE33C"/>
<path d="M292.583 945.31C293.237 946.075 293.811 947.232 294.639 949.009C294.9 952.947 294.909 956.264 294.899 960.021C295.605 964.479 296.33 968.495 297.028 972.536C297.002 972.562 296.949 972.611 296.949 972.611C291.942 967.45 294.29 960.63 292.986 954.637C292.36 951.76 292.635 948.686 292.583 945.31Z" fill="#A2D936"/>
<path d="M772.153 906.587C771.544 898.585 770.935 890.583 770.637 882.133C771.262 881.715 771.578 881.734 771.905 882.046C771.914 882.755 771.912 883.161 771.891 884.018C772.188 887.212 772.506 889.953 772.847 893.135C772.886 895.907 772.9 898.238 772.896 900.967C772.635 903.105 772.394 904.846 772.153 906.587Z" fill="#A7DD3D"/>
<path d="M287.526 869.278C286.84 860.719 286.154 852.16 285.752 843.152C286.314 842.718 286.592 842.729 286.884 843.189C286.915 846.946 286.932 850.253 286.926 853.914C287.222 855.086 287.54 855.905 287.877 857.173C287.92 860.586 287.946 863.548 287.92 866.975C287.755 868.053 287.641 868.665 287.526 869.278Z" fill="#A2D936"/>
<path d="M366.19 310.234C366.02 310.74 365.647 310.935 364.735 311.357C360.091 307.615 355.986 303.646 352.197 299.687C352.934 299.707 353.354 299.716 353.775 299.726C354.761 300.508 355.747 301.29 356.959 302.341C357.185 302.611 357.136 302.689 357.136 302.689C357.136 302.689 357.582 302.839 357.808 303.142C358.18 303.577 358.343 303.68 358.524 303.755C359.534 304.522 360.544 305.289 361.825 306.283C362.096 306.509 361.961 306.475 361.961 306.475C362.159 306.663 362.357 306.852 362.831 307.302C363.106 307.563 362.967 307.551 362.967 307.551C363.183 307.703 363.399 307.855 363.874 308.308C364.131 308.611 364.177 308.692 364.177 308.692C364.781 309.102 365.385 309.513 366.19 310.234Z" fill="#ACE33C"/>
<path d="M302.866 412.725C302.873 413.132 302.88 413.539 302.902 414.25C296.78 412.58 294.191 408.057 293.843 401.923C293.74 400.113 293.636 398.303 293.811 396.09C294.345 395.693 294.6 395.697 294.87 396.129C294.545 403.429 296.986 408.926 302.866 412.725Z" fill="#A6DD3A"/>
<path d="M96.3119 751.877C96.1426 751.323 96.3692 751.027 97.2295 750.68C102.533 750.609 107.203 750.591 112.076 750.504C112.533 750.28 112.704 750.059 113.065 749.744C113.522 749.694 113.704 749.672 114.267 749.646C116.586 749.035 118.526 748.427 120.465 747.82C118.62 749.059 116.775 750.299 114.562 751.576C114.194 751.615 114.225 751.573 114.225 751.573C108.386 751.761 102.547 751.948 96.3119 751.877Z" fill="#B1E743"/>
<path d="M305.39 979.134C303.781 979.106 302.262 978.597 300.552 977.912C299.333 976.267 298.304 974.798 297.112 972.97C296.948 972.611 297.001 972.561 297.367 972.601C298.427 972.658 299.121 972.675 299.836 972.7C299.858 972.707 299.877 972.748 299.915 973.071C300.982 974.132 302.011 974.871 303.338 975.614C304.034 975.635 304.431 975.652 305.188 975.833C308.292 976.498 311.035 976.998 313.779 977.498C311.012 977.883 308.246 978.268 305.39 979.134Z" fill="#A2D936"/>
<path d="M616.369 178.709C616.897 178.64 617.109 178.655 617.639 178.673C617.421 183.836 614.354 186.956 609.412 188.885C609.06 188.92 608.911 188.754 608.863 188.405C608.809 187.876 608.802 187.697 608.795 187.517C611.214 184.609 613.633 181.701 616.369 178.709Z" fill="#ACE33C"/>
<path d="M289.17 894.569C288.564 886.835 287.958 879.102 287.793 871.021C288.447 870.693 288.659 870.713 288.888 871.167C288.911 873.923 288.918 876.244 288.906 879.036C289.233 883.256 289.579 887.005 289.934 891.051C289.946 891.743 289.949 892.137 289.924 892.815C289.655 893.588 289.413 894.079 289.17 894.569Z" fill="#A2D936"/>
<path d="M329.585 922.767C330.171 930.806 330.757 938.846 331.026 947.292C330.409 947.689 330.111 947.679 329.806 947.323C329.789 946.284 329.78 945.591 329.802 944.449C329.51 941.558 329.185 939.116 328.846 936.236C328.811 933.491 328.791 931.183 328.798 928.473C329.079 926.302 329.332 924.534 329.585 922.767Z" fill="#A2D936"/>
<path d="M583.964 745.665C586.558 747.091 589.152 748.517 591.637 750.373C591.316 751.161 591.103 751.52 590.89 751.879C587.973 750.003 585.057 748.127 582.107 745.907C582.073 745.563 582.097 745.547 582.286 745.682C582.971 745.766 583.468 745.715 583.964 745.665Z" fill="#A2D936"/>
<path d="M329.812 947.669C330.111 947.679 330.41 947.689 330.932 947.697C331.359 950.431 331.561 953.167 331.68 956.357C331.345 957.904 331.093 958.997 330.507 960.213C330.052 956.114 329.932 951.891 329.812 947.669Z" fill="#A6DD3A"/>
<path d="M285.578 281.449C286.377 289.465 287.084 297.908 287.747 306.818C286.965 298.816 286.226 290.346 285.578 281.449Z" fill="#A6DD3A"/>
<path d="M372.973 821.747C371.843 821.727 370.713 821.706 369.16 821.664C374.742 820.858 380.746 820.075 386.931 819.492C386.721 820.054 386.331 820.414 385.929 820.761C385.917 820.747 385.906 820.752 385.534 820.736C384.045 821.053 382.928 821.385 381.367 821.73C378.273 821.744 375.623 821.746 372.973 821.747Z" fill="#A2D936"/>
<path d="M591.307 752.103C591.103 751.52 591.316 751.161 591.724 750.706C596.598 750.613 601.276 750.617 606.409 750.837C606.833 751.346 606.813 751.638 606.801 751.931C601.775 752.063 596.749 752.195 591.307 752.103Z" fill="#AEE540"/>
<path d="M618.096 20.701C617.881 19.661 617.797 18.2516 617.713 16.8422C617.519 16.8245 617.325 16.8069 617.131 16.7892C617.033 17.8699 616.934 18.9506 616.809 20.4158C614.496 18.6953 612.21 16.5902 610.205 14.0797C610.74 13.6276 610.994 13.5809 611.248 13.5342C613.5 13.945 615.752 14.3559 618.361 14.8741C618.554 16.7649 618.391 18.5482 618.096 20.701Z" fill="#ACE33C"/>
<path d="M287.641 313.757C288.398 319.575 289.026 325.772 289.44 332.265C288.654 326.42 288.083 320.279 287.641 313.757Z" fill="#A6DD3A"/>
<path d="M291.903 916.634C291.837 920.709 291.772 924.784 291.516 929.203C290.933 924.55 290.539 919.553 290.512 914.128C291.214 913.712 291.55 913.724 291.896 914.098C291.904 915.185 291.904 915.909 291.903 916.634Z" fill="#A2D936"/>
<path d="M864.922 167.302C862.087 164.841 859.229 162.025 856.652 158.922C859.589 161.406 862.244 164.176 864.922 167.302Z" fill="#E7E7E7"/>
<path d="M314.147 977.522C311.035 976.997 308.291 976.497 305.465 975.571C308.892 975.317 312.403 975.49 315.913 975.663C315.899 975.959 315.885 976.255 315.867 976.774C315.415 977.18 314.965 977.363 314.147 977.522Z" fill="#A6DD3A"/>
<path d="M290.239 908.541C289.891 905.215 289.542 901.889 289.563 898.133C290.245 897.716 290.558 897.729 290.884 898.173C290.899 900.628 290.9 902.651 290.73 904.766C290.675 905.133 290.791 905.408 290.895 905.687C290.883 905.69 290.901 905.658 290.893 905.966C290.67 907.03 290.455 907.786 290.239 908.541Z" fill="#A2D936"/>
<path d="M290.154 908.967C290.456 907.786 290.671 907.03 291.261 906.067C291.72 908.485 291.803 911.11 291.886 913.736C291.55 913.724 291.215 913.712 290.627 913.699C290.272 912.264 290.17 910.828 290.154 908.967Z" fill="#A6DD3A"/>
<path d="M294.854 395.699C294.6 395.697 294.345 395.693 293.899 395.694C293.532 395.242 293.354 394.783 293.403 393.747C293.464 392.37 293.299 391.569 293.134 390.768C293.061 389.667 292.989 388.566 293.216 386.853C293.668 385.667 293.82 385.094 294.311 384.653C294.718 388.424 294.786 392.061 294.854 395.699Z" fill="#ACE33C"/>
<path d="M400.072 818.599C402.479 818.415 404.886 818.232 407.977 818.311C409.732 818.619 410.803 818.664 411.867 818.944C411.86 819.18 411.852 819.65 411.394 819.676C407.28 819.716 403.624 819.73 399.693 819.729C399.235 819.709 399.052 819.704 399.008 819.458C399.455 819.01 399.763 818.805 400.072 818.599Z" fill="#A6DD3A"/>
<path d="M329.637 922.414C329.333 924.534 329.08 926.302 328.448 928.325C327.989 925.938 327.909 923.298 328.065 920.667C328.614 920.699 328.929 920.716 329.243 920.73C329.391 921.173 329.539 921.617 329.637 922.414Z" fill="#A6DD3A"/>
<path d="M579.938 739.055C580.265 738.455 580.519 738.231 580.893 737.774C581.949 739.687 582.886 741.832 583.589 744.232C582.935 744.84 582.517 745.193 582.098 745.547C582.098 745.547 582.074 745.563 582.062 745.572C581.322 743.53 580.593 741.48 579.938 739.055Z" fill="#A2D936"/>
<path d="M773.866 908.732C773.569 908.725 773.272 908.708 772.753 908.678C772.371 908.222 772.212 907.768 772.104 906.951C772.395 904.846 772.636 903.106 773.255 901.102C773.71 903.47 773.788 906.101 773.866 908.732Z" fill="#B1E743"/>
<path d="M771.894 881.742C771.579 881.734 771.263 881.715 770.712 881.683C770.309 881.242 770.143 880.805 770.025 880.014C770.341 877.904 770.607 876.149 771.249 874.12C771.713 876.478 771.804 879.11 771.894 881.742Z" fill="#B1E743"/>
<path d="M385.941 820.774C386.331 820.414 386.721 820.053 387.304 819.605C389.994 819.319 392.491 819.121 395.422 819.157C395.856 819.391 395.838 819.696 395.63 819.804C395.158 820.096 394.972 820.342 394.418 820.671C391.294 820.721 388.618 820.748 385.941 820.774Z" fill="#A6DD3A"/>
<path d="M120.616 747.801C118.526 748.427 116.587 749.035 114.324 749.315C116.247 747.562 118.494 746.136 120.776 745.134C120.871 746.122 120.93 746.687 120.99 747.251C121.04 747.48 120.966 747.657 120.616 747.801Z" fill="#9EDA26"/>
<path d="M814.916 890.755C813.165 892.425 811.394 894.072 809.257 895.724C808.892 895.728 808.855 895.692 808.818 895.318C809.444 891.585 811.876 890.747 814.854 890.688C814.854 890.688 814.895 890.732 814.916 890.755Z" fill="#EEFBC3"/>
<path d="M411.873 818.709C410.802 818.664 409.73 818.619 408.381 818.42C411.29 817.906 414.478 817.545 418.045 817.406C416.76 817.792 415.096 817.956 412.899 818.41C412.366 818.701 411.873 818.709 411.873 818.709Z" fill="#A2D936"/>
<path d="M609.793 749.622C611.545 748.281 613.298 746.941 615.415 745.823C615.779 746.046 615.794 746.464 615.794 746.464C614.079 747.923 612.364 749.382 610.262 750.568C609.847 750.072 609.82 749.847 609.793 749.622Z" fill="#AEE540"/>
<path d="M308.375 415.485C311.536 415.169 315.143 414.914 319.162 414.637C315.991 414.924 312.405 415.235 308.375 415.485Z" fill="#A6DD3A"/>
<path d="M290.871 897.741C290.558 897.729 290.246 897.716 289.699 897.703C289.325 896.922 289.185 896.141 289.107 894.964C289.412 894.079 289.654 893.589 290.258 892.938C290.703 894.433 290.787 896.087 290.871 897.741Z" fill="#A6DD3A"/>
<path d="M286.872 842.738C286.594 842.729 286.316 842.718 285.83 842.7C285.431 842.242 285.241 841.787 285.092 840.958C285.557 839.722 285.982 838.859 286.901 838.075C287.22 839.682 287.046 841.21 286.872 842.738Z" fill="#A6DD3A"/>
<path d="M616.745 741.965C617.14 739.918 617.512 738.04 617.938 735.716C617.731 738.265 617.469 741.258 616.949 744.522C616.692 744.793 616.574 744.682 616.657 744.268C616.736 743.394 616.732 742.934 616.729 742.474C616.729 742.474 616.723 742.134 616.745 741.965Z" fill="#A2D936"/>
<path d="M121.294 747.058C120.929 746.686 120.87 746.122 120.84 744.829C121.468 743.313 122.067 742.525 122.666 741.737C122.853 741.734 123.039 741.731 123.504 741.719C123.055 743.428 122.327 745.147 121.294 747.058Z" fill="#A8DF3B"/>
<path d="M870.927 174.317C869.432 173.185 867.916 171.708 866.666 169.933C868.257 171.08 869.581 172.525 870.927 174.317Z" fill="#E7E7E7"/>
<path d="M582.158 180.572C583.046 181.377 583.935 182.183 584.562 183.352C583.851 183.962 583.403 184.207 582.954 184.452C582.268 183.394 581.583 182.336 580.916 180.953C580.934 180.629 580.995 180.571 581.299 180.59C581.787 180.596 581.973 180.584 582.158 180.572Z" fill="#ACE33C"/>
<path d="M375.316 257.979C372.539 258.335 369.34 258.577 365.729 258.838C368.508 258.526 371.701 258.195 375.316 257.979Z" fill="#9EDA26"/>
<path d="M329.313 920.359C328.928 920.716 328.614 920.699 328.055 920.321C327.789 919.273 327.77 918.582 327.75 917.892C327.921 916.999 328.091 916.106 328.51 914.979C328.967 916.493 329.175 918.24 329.313 920.359Z" fill="#A2D936"/>
<path d="M609.483 749.649C609.819 749.847 609.846 750.072 609.915 750.634C609.092 751.358 608.227 751.745 607.081 752.032C606.812 751.639 606.832 751.346 606.876 750.833C607.651 750.3 608.413 749.988 609.483 749.649Z" fill="#A2D936"/>
<path d="M288.871 870.732C288.659 870.713 288.446 870.693 287.915 870.637C287.392 870.337 287.31 870.04 287.438 869.494C287.642 868.665 287.756 868.052 288.237 867.099C288.693 868.083 288.782 869.407 288.871 870.732Z" fill="#A6DD3A"/>
<path d="M289.605 342.013C290.017 342.838 290.31 343.983 290.412 345.343C289.977 344.483 289.732 343.408 289.605 342.013Z" fill="#A6DD3A"/>
<path d="M290.562 356.013C290.973 356.842 291.277 357.995 291.382 359.362C290.941 358.497 290.698 357.416 290.562 356.013Z" fill="#A6DD3A"/>
<path d="M150.156 887.333C151.206 887.941 152.142 888.692 153.269 889.673C153.348 890.061 153.236 890.217 152.937 890.594C151.774 890.031 150.798 889.247 149.815 888.109C149.808 887.755 150.041 887.475 150.156 887.333Z" fill="#E7E7E7"/>
<path d="M846.004 859.725C846.775 859.333 847.547 858.941 848.632 858.648C848.18 859.744 847.415 860.741 846.294 861.755C845.937 861.772 845.629 861.471 845.607 861.082C845.725 860.371 845.864 860.048 846.004 859.725Z" fill="#EEFBC3"/>
<path d="M293.973 384.52C293.821 385.094 293.668 385.668 293.298 386.446C292.883 385.535 292.686 384.421 292.586 382.981C292.97 382.673 293.257 382.691 293.753 383.022C293.965 383.728 293.969 384.124 293.973 384.52Z" fill="#A6DD3A"/>
<path d="M395.838 819.696C395.838 819.696 395.856 819.391 395.879 819.24C397.089 818.87 398.277 818.651 399.768 818.516C399.763 818.804 399.455 819.01 398.629 819.46C397.353 819.701 396.595 819.699 395.838 819.696Z" fill="#A2D936"/>
<path d="M291.547 931.982C291.921 932.559 292.189 933.424 292.248 934.464C291.839 933.849 291.64 933.06 291.547 931.982Z" fill="#A2D936"/>
<path d="M291.654 369.982C292.007 370.544 292.267 371.396 292.333 372.424C291.946 371.824 291.754 371.049 291.654 369.982Z" fill="#A6DD3A"/>
<path d="M285.385 275.209C285.626 276.005 285.638 276.984 285.439 278.261C285.204 277.503 285.181 276.448 285.385 275.209Z" fill="#A6DD3A"/>
<path d="M353.691 299.345C353.353 299.716 352.932 299.707 352.176 299.315C351.879 298.187 351.917 297.442 351.955 296.697C352.466 296.829 352.977 296.96 353.648 297.307C353.741 298.003 353.675 298.484 353.691 299.345Z" fill="#A2D936"/>
<path d="M380.583 257.561C379.946 257.954 379.131 258.158 378.141 258.169C378.779 257.774 379.592 257.572 380.583 257.561Z" fill="#9EDA26"/>
<path d="M303.369 414.777C304.313 414.695 305.536 414.779 306.814 415.131C305.794 415.246 304.722 415.094 303.369 414.777Z" fill="#A6DD3A"/>
<path d="M432.742 820.532C432.136 820.402 431.52 820.049 430.822 819.48C431.405 819.613 432.068 819.962 432.742 820.532Z" fill="#A2D936"/>
<path d="M286.796 270.569C286.683 271.459 286.338 272.418 285.863 273.664C286.01 272.847 286.287 271.742 286.796 270.569Z" fill="#A6DD3A"/>
<path d="M328.645 261.541C328.079 262.038 327.337 262.363 326.291 262.707C326.814 262.274 327.641 261.821 328.645 261.541Z" fill="#A6DD3A"/>
<path d="M583.037 184.719C583.403 184.207 583.851 183.962 584.567 183.704C584.833 183.691 584.91 184.129 584.943 184.347C584.79 184.845 584.603 185.125 584.2 185.533C583.695 185.436 583.408 185.211 583.037 184.719Z" fill="#B1E743"/>
<path d="M353.657 259.864C353.335 260.271 352.836 260.511 352.111 260.734C352.417 260.377 352.949 260.036 353.657 259.864Z" fill="#9EDA26"/>
<path d="M393.978 334.129C393.833 334.566 393.632 334.791 393.431 335.017C393.236 334.622 393.041 334.227 392.832 333.585C393.186 333.53 393.554 333.724 393.978 334.129Z" fill="#A2D936"/>
<path d="M618.111 176.797C617.945 176.147 617.918 175.199 617.93 173.775C618.064 174.366 618.156 175.432 618.111 176.797Z" fill="#ACE33C"/>
<path d="M321.355 414.104C321.745 413.899 322.376 413.775 323.253 413.629C322.865 413.8 322.231 413.993 321.355 414.104Z" fill="#A6DD3A"/>
<path d="M293.049 391.119C293.3 391.569 293.466 392.37 293.461 393.376C293.181 392.878 293.072 392.174 293.049 391.119Z" fill="#A6DD3A"/>
<path d="M291.189 365.089C291.402 365.289 291.511 365.784 291.476 366.431C291.249 366.184 291.167 365.784 291.189 365.089Z" fill="#A6DD3A"/>
<path d="M428.091 817.676C427.883 817.758 427.634 817.683 427.264 817.564C427.447 817.513 427.749 817.514 428.091 817.676Z" fill="#A2D936"/>
<path d="M315.031 262.499C314.755 262.637 314.258 262.684 313.389 262.739C313.614 262.634 314.211 262.52 315.031 262.499Z" fill="#A6DD3A"/>
<path d="M86.7243 188.06C86.2386 188.552 85.7529 189.043 85.2673 189.535C85.2186 188.978 85.17 188.421 85.6698 187.868C86.387 187.934 86.5556 187.997 86.7243 188.06Z" fill="#EEFBC3"/>
<path d="M359.5 258.886C359.289 259.112 358.77 259.245 358.1 259.208C358.363 258.957 358.778 258.875 359.5 258.886Z" fill="#9EDA26"/>
<path d="M309.901 981.811C309.873 981.786 309.986 981.836 309.986 981.836C309.986 981.836 309.847 981.727 309.915 981.807C309.984 981.886 309.928 981.837 309.901 981.811Z" fill="#E7E7E7"/>
<path d="M855.884 157.403C855.549 157.555 855.145 157.441 854.816 156.97C855.199 156.788 855.507 156.962 855.884 157.403Z" fill="#E7E7E7"/>
<path d="M871.885 175.391C871.538 175.56 871.127 175.46 870.805 174.987C871.202 174.783 871.512 174.953 871.885 175.391Z" fill="#E7E7E7"/>
<path d="M854.89 156.401C854.523 156.559 854.097 156.447 853.785 155.975C854.21 155.787 854.52 155.958 854.89 156.401Z" fill="#E7E7E7"/>
<path d="M866.877 169.397C866.539 169.558 866.131 169.456 865.809 168.984C866.199 168.788 866.502 168.962 866.877 169.397Z" fill="#E7E7E7"/>
<path d="M865.886 168.396C865.534 168.557 865.118 168.449 864.799 167.978C865.204 167.785 865.514 167.956 865.886 168.396Z" fill="#E7E7E7"/>
<path d="M856.891 158.382C856.516 158.568 856.086 158.484 855.777 158.007C856.211 157.781 856.523 157.946 856.891 158.382Z" fill="#E7E7E7"/>
<path d="M420.451 817.227C420.409 817.519 420.102 817.602 419.523 817.567C419.589 817.401 419.9 817.257 420.451 817.227Z" fill="#A2D936"/>
<path d="M116.933 856.561C116.499 856.61 116.21 856.448 115.852 856.037C115.941 855.7 116.098 855.612 116.515 855.444C116.94 855.421 117.076 855.52 117.241 855.774C117.227 856.04 117.152 856.195 116.933 856.561Z" fill="#F6F6F6"/>
<path d="M362.002 306.521C361.961 306.474 362.096 306.509 362.111 306.542C362.126 306.576 362.043 306.568 362.002 306.521Z" fill="#A2D936"/>
<path d="M363.02 307.589C362.966 307.552 363.105 307.563 363.115 307.598C363.124 307.632 363.075 307.627 363.02 307.589Z" fill="#A2D936"/>
<path d="M364.211 308.611C364.176 308.692 364.131 308.61 364.113 308.624C364.095 308.637 364.246 308.531 364.211 308.611Z" fill="#A2D936"/>
<path d="M772.508 829.299C772.529 828.837 772.763 828.613 773.329 828.438C773.573 828.395 773.747 828.582 773.701 828.874C773.446 829.414 773.191 829.599 772.89 829.719C772.89 829.719 772.63 829.443 772.508 829.299Z" fill="#A7DD3D"/>
<path d="M430.129 818.626C430.074 818.601 430.205 818.579 430.23 818.603C430.254 818.628 430.183 818.652 430.129 818.626Z" fill="#A2D936"/>
<path d="M615.975 746.371C615.794 746.465 615.779 746.046 615.766 745.836C615.753 745.625 616.018 745.531 616.159 745.518C616.41 745.792 616.362 746.049 615.975 746.371Z" fill="#A2D936"/>
<path d="M114.233 751.686C114.226 751.573 114.195 751.614 114.175 751.596C114.156 751.578 114.313 751.883 114.313 751.883C114.313 751.883 114.241 751.8 114.233 751.686Z" fill="#9EDA26"/>
<path d="M808.911 895.748C808.762 896.056 808.596 896.346 808.179 896.696C807.927 896.756 807.89 896.723 807.905 896.431C808.232 895.99 808.544 895.841 808.855 895.691C808.855 895.691 808.893 895.728 808.911 895.748Z" fill="#EEFBC3"/>
<path d="M302.048 263.497C301.997 263.617 301.794 263.651 301.283 263.708C301.282 263.625 301.589 263.518 302.048 263.497Z" fill="#A6DD3A"/>
<path d="M287.689 269.293C287.783 269.314 287.713 269.448 287.712 269.486C287.712 269.524 287.595 269.272 287.689 269.293Z" fill="#A6DD3A"/>
<path d="M357.2 302.616C357.136 302.689 357.185 302.61 357.197 302.638C357.21 302.667 357.265 302.543 357.2 302.616Z" fill="#A2D936"/>
<path d="M358.489 303.582C358.341 303.68 358.178 303.577 357.932 303.341C358.085 303.129 358.293 303.187 358.489 303.582Z" fill="#A2D936"/>
<path d="M581.343 732.689C580.949 684.405 580.925 635.969 580.933 587.051C581.575 587.933 582.718 589.297 582.72 590.662C582.813 636.755 582.806 682.847 582.753 728.94C582.751 730.139 582.074 731.337 581.343 732.689Z" fill="#A2D936"/>
<path d="M582.287 745.682C582.517 745.194 582.935 744.84 583.589 744.567C583.849 744.817 583.875 744.986 583.933 745.411C583.469 745.716 582.973 745.766 582.287 745.682Z" fill="#AEE540"/>
<path d="M616.523 742.652C616.731 742.934 616.735 743.394 616.662 744.187C616.497 743.957 616.407 743.394 616.523 742.652Z" fill="#AEE540"/>
<path d="M616.656 578.801C616.814 578.877 616.819 579.045 616.812 579.465C616.646 579.547 616.474 579.39 616.352 579.199C616.321 579.15 616.448 578.998 616.656 578.801Z" fill="#A2D936"/>
<path d="M524.893 61.7286C520.793 60.4718 517.229 59.4351 516.278 53.7387C515.823 51.0103 510.866 49.0721 508.024 46.6856C506.749 45.6154 505.661 44.3231 504.488 43.1316C504.831 42.8293 505.173 42.527 505.515 42.2248C507.206 42.6614 509.045 43.6805 510.528 43.3014C511.33 43.0962 512.195 40.3399 511.87 39.0213C510.643 34.0518 510.869 33.667 516.06 34.5388C516.687 34.6442 517.359 34.4889 517.959 34.4571C519.746 28.6067 519.746 28.6067 525.864 26.7049C522.351 21.4418 525.343 19.4209 529.817 16.7482C533.839 14.3448 536.627 9.90107 540.055 6.45255C540.782 5.72153 541.905 5.0832 542.882 5.02683C543.389 4.99757 544.466 6.35645 544.435 7.0507C544.329 9.44151 542.004 12.875 546.443 12.9839C547.697 13.0146 549.045 9.19764 550.35 7.14539C550.003 6.78394 549.657 6.42252 549.31 6.06107C551.207 6.06107 553.105 6.06107 555.462 6.06107C554.928 7.64533 554.447 9.0677 553.784 11.032C556.192 11.4589 558.339 11.8394 560.288 12.1849C560.288 15.6827 560.288 18.8871 560.288 22.073C554.771 20.3231 554.945 20.3605 553.611 26.5517C553.088 28.9764 551.593 31.1914 550.572 33.433C548.495 32.5627 546.843 31.8712 545.192 31.1797C544.854 33.1173 544.516 35.0549 544.146 37.1759C542.332 37.2644 540.276 37.3648 537.418 37.5042C538.889 39.8758 539.804 41.3514 541.42 43.957C537.552 45.0256 534.132 45.7692 530.884 46.9765C529.738 47.4025 528.599 48.833 528.222 50.0433C527.893 51.098 528.64 52.4883 528.957 53.9355C526.464 53.6894 524.393 53.4851 521.93 53.242C523.177 56.5097 524.029 58.7426 524.901 61.3662C524.92 61.7569 524.865 61.6992 524.893 61.7286ZM519.87 42.9108C517.139 42.4422 515.542 43.5707 516.122 46.3295C516.305 47.1995 518.41 48.517 519.165 48.2581C521.597 47.424 522.361 45.5895 519.87 42.9108Z" fill="#ADFE02"/>
<path d="M592.84 9.37158C597.031 9.99533 601.302 10.9644 605.851 12.1843C601.193 14.1238 596.991 12.2367 592.84 9.37158Z" fill="#ACE33C"/>
<path d="M578.955 6.85003C579.771 6.54129 580.594 6.60025 581.664 6.84219C580.927 7.08938 579.945 7.15356 578.955 6.85003Z" fill="#ACE33C"/>
<path d="M594.437 187.672C593.013 187.836 591.164 187.99 589.111 187.823C590.609 187.556 592.31 187.609 594.437 187.672Z" fill="#B1E743"/>
<path d="M608.375 187.556C608.802 187.697 608.809 187.876 608.788 188.323C606.966 188.478 605.172 188.365 603.123 187.967C604.564 187.653 606.26 187.624 608.375 187.556Z" fill="#B1E743"/>
<path d="M588.826 8.27357C589.367 8.0435 589.961 8.08763 590.722 8.39448C590.219 8.62074 589.549 8.58427 588.826 8.27357Z" fill="#ACE33C"/>
<path d="M584.943 7.81993C585.391 7.50078 585.829 7.49662 586.575 7.61415C586.619 8.24049 586.355 8.74516 586.09 9.24983C585.705 8.87819 585.319 8.50657 584.943 7.81993Z" fill="#ACE33C"/>
<path d="M610.97 13.2918C610.994 13.5809 610.741 13.6276 610.105 13.7442C609.19 13.6144 608.657 13.4145 607.984 12.9585C608.793 12.818 609.742 12.9337 610.97 13.2918Z" fill="#B1E743"/>
<path d="M582.092 180.216C581.973 180.584 581.788 180.596 581.329 180.56C581.158 179.701 581.26 178.888 581.613 177.883C581.919 178.413 581.972 179.137 582.092 180.216Z" fill="#B1E743"/>
<path d="M921.14 607.399C929.995 616.563 938.569 625.5 947.226 634.357C948.837 636.006 950.926 637.188 952.544 638.833C959.315 645.715 959.358 651.832 952.476 658.635C945.296 665.731 937.771 672.479 930.637 679.619C923.031 687.229 915.838 695.252 908.224 702.853C899.902 711.161 891.263 719.151 882.84 727.358C877.027 733.022 871.406 738.884 865.584 744.538C860.927 749.06 856.149 749.231 851.491 744.807C848.047 741.536 844.531 738.126 842.001 734.168C839.712 730.586 839.646 726.359 843.124 722.795C852.273 713.418 861.237 703.859 870.472 694.569C877.473 687.527 884.926 680.93 891.824 673.793C893.249 672.318 893.919 669.117 893.39 667.121C893.073 665.921 889.765 664.851 887.799 664.846C836.143 664.73 784.486 664.776 732.83 664.721C730.042 664.718 726.952 664.705 724.554 663.55C722.277 662.453 719.377 660.02 719.11 657.88C718.36 651.889 718.3 645.685 718.988 639.681C719.535 634.899 724.068 633.568 728.229 632.682C729.506 632.41 730.886 632.614 732.219 632.614C783.376 632.616 834.532 632.642 885.689 632.549C887.834 632.545 890.38 631.973 892.031 630.727C894.765 628.666 894.482 625.933 891.976 623.482C876.553 608.392 861.081 593.353 845.779 578.141C840.044 572.44 838.987 566.781 842.521 562.332C845.2 558.961 847.908 555.366 851.354 552.931C854.086 551.001 857.923 550.539 861.342 549.739C862.226 549.532 863.653 550.238 864.378 550.972C873.086 559.783 881.619 568.768 890.384 577.522C897.028 584.156 903.963 590.497 910.721 597.017C914.163 600.338 917.502 603.766 921.14 607.399Z" fill="#8F01FD"/>
<path d="M410.132 709.036C406.541 712.627 403.263 716.028 399.854 719.292C394.262 724.648 388.647 729.986 382.918 735.195C379.724 738.1 372.497 737.231 368.847 733.625C366.244 731.054 363.721 728.394 361.279 725.668C357.55 721.506 357.683 716.3 361.615 712.352C373.291 700.631 385.002 688.945 396.7 677.246C401.615 672.332 406.613 667.496 411.39 662.452C412.513 661.266 413.907 658.633 413.416 657.97C412.305 656.471 410.133 654.991 408.328 654.909C400.901 654.572 393.449 654.756 386.007 654.755C363.684 654.753 341.362 654.755 319.039 654.755C296.716 654.755 274.385 654.385 252.075 654.893C238.589 655.201 236.25 647.385 235.969 637.285C235.876 633.938 236.427 630.116 238.045 627.289C240.329 623.296 244.239 621.499 249.383 621.517C300.691 621.696 352 621.621 403.308 621.617C404.641 621.616 406.042 621.864 407.288 621.534C408.788 621.136 411.125 620.483 411.366 619.51C411.781 617.834 411.49 615.237 410.39 614.056C404.75 607.999 398.751 602.279 392.891 596.426C389.978 593.517 387.103 590.57 384.198 587.653C377.449 580.878 370.691 574.112 363.94 567.339C356.651 560.027 357.092 553.788 365.251 547.356C366.392 546.456 367.248 545.176 368.173 544.022C372.664 538.416 380.615 537.93 385.661 542.964C395.04 552.322 404.433 561.666 413.805 571.031C429.875 587.087 445.934 603.153 461.996 619.218C465.382 622.605 468.852 625.915 472.121 629.413C477.845 635.537 477.139 642.059 470.873 647.313C467.893 649.811 465.765 653.297 463.021 656.109C456.56 662.73 449.961 669.215 443.419 675.757C438.797 680.378 434.178 685.003 429.556 689.624C423.167 696.012 416.777 702.398 410.132 709.036Z" fill="#8F01FD"/>
<path d="M310.865 92.7397C292.201 92.7397 274.038 92.7307 255.874 92.7446C249.833 92.7492 243.975 92.2418 239.425 87.5438C238.85 86.9499 238.069 86.5161 237.615 85.8503C232.94 78.9959 236.01 64.8227 243.205 60.8988C244.963 59.9401 247.291 59.6852 249.357 59.6827C301.515 59.6179 353.672 59.6594 405.83 59.5271C408.023 59.5215 410.685 58.5035 412.196 57.0123C412.908 56.3103 412.011 52.7827 410.808 51.5275C402.136 42.4792 393.293 33.5878 384.301 24.8559C380.401 21.0685 376.021 17.7758 371.232 13.7295C373.843 12.0444 374.682 11.1194 375.662 10.9298C385.073 9.11059 394.494 7.34145 403.94 5.72002C407.888 5.04235 411.2 5.96709 414.166 9.24782C421.522 17.3867 429.145 25.2972 436.906 33.0534C445.222 41.3635 453.838 49.3733 462.285 57.5529C465.721 60.8805 469.117 64.2548 472.428 67.7063C477.249 72.7306 476.925 79.4813 472.348 84.657C469.516 87.8594 466.2 90.6299 463.163 93.6559C450.406 106.365 437.645 119.07 424.94 131.831C415.156 141.658 405.488 151.6 395.699 161.421C391.841 165.291 388.179 169.557 383.688 172.52C381.014 174.284 375.769 175.532 373.657 174.098C368.446 170.561 363.994 165.653 359.97 160.7C357.03 157.081 358.938 152.858 361.589 149.714C364.988 145.682 368.858 142.035 372.649 138.351C380.963 130.272 389.382 122.302 397.705 114.232C401.978 110.088 406.054 105.739 410.377 101.65C412.757 99.3988 413.507 97.1092 411.992 94.1098C410.463 91.0821 408.121 92.0431 405.563 92.2736C400.519 92.728 395.425 92.7214 390.351 92.7281C364.022 92.7627 337.693 92.7414 310.865 92.7397Z" fill="#8F00FD"/>
<path d="M233.182 63.7206C233.005 63.3378 233.239 63.0178 233.71 62.4785C233.829 62.7673 233.711 63.2754 233.182 63.7206Z" fill="black"/>
<path d="M823.915 261.87C827.265 261.818 830.616 261.765 834.629 261.623C835.55 261.377 835.744 261.163 835.873 260.89C839.231 260.827 842.589 260.764 846.57 260.929C847.768 260.731 848.342 260.304 848.917 259.877C856.61 259.485 864.302 259.093 872.825 258.708C875.741 258.436 877.827 258.157 879.913 257.878C882.93 257.824 885.946 257.769 889.635 257.98C891.511 257.798 892.713 257.35 893.916 256.902C896.735 256.836 899.553 256.718 902.372 256.714C911.267 256.702 914.685 259.276 916.394 268.016C917.152 271.894 917.509 275.989 917.169 279.909C916.677 285.59 912.95 288.992 906.938 290.366C903.136 290.575 899.978 291.044 896.82 291.513C884.148 292.246 871.477 292.979 858.047 293.718C856.815 294.004 856.341 294.283 855.867 294.563C853.494 294.603 851.121 294.643 848.031 294.395C843.815 294.149 840.304 294.053 836.825 294.342C836.079 294.404 835.448 295.857 834.764 296.67C832.793 300.053 834.563 302.169 837.086 304.299C850.136 315.308 863.133 326.38 876.112 337.472C888.451 348.018 900.819 358.533 913.03 369.225C919.623 374.998 925.806 381.237 932.371 387.043C940.174 393.945 948.364 400.416 956.057 407.434C962.489 413.301 962.34 418.687 956.187 424.89C953.613 427.486 950.979 430.051 948.155 432.363C943.977 435.783 938.64 435.493 934.563 431.951C927.313 425.652 920.051 419.367 912.783 413.09C900.118 402.152 887.394 391.282 874.79 380.275C864.608 371.384 854.693 362.185 844.428 353.392C834.11 344.556 823.541 336.012 812.979 327.467C811.856 326.558 809.263 325.691 808.722 326.216C807.637 327.269 806.97 329.326 807.056 330.919C807.903 346.644 808.865 362.363 809.961 378.072C810.387 384.177 811.625 390.241 811.808 396.343C812.159 408.092 807.492 412.675 795.792 412.723C792.893 412.735 789.866 412.993 787.12 412.281C779.389 410.277 779.092 403.25 778.305 397.236C777.238 389.09 777.133 380.817 776.61 372.599C776.357 368.633 776.231 364.653 775.79 360.708C775.408 357.288 774.664 353.908 774.407 350.034C776.454 347.604 776.828 345.871 773.933 344.676C773.915 344.237 773.897 343.798 774.13 342.834C773.936 341.423 773.491 340.535 773.046 339.648C772.988 334.976 772.93 330.305 773.099 325.004C772.917 323.796 772.509 323.217 772.101 322.639C772.027 320.615 771.953 318.591 772.17 315.847C772.377 311.91 774.705 308.311 770.972 305.668C771.205 301.984 771.439 298.3 771.654 293.931C771.082 292.729 770.529 292.21 769.976 291.691C769.941 291.251 769.906 290.811 770.14 289.784C769.931 287.02 769.452 284.843 768.974 282.667C768.697 273.319 771.533 267.972 777.563 266.781C781.445 266.015 785.352 265.225 789.285 264.892C799.492 264.029 809.721 263.413 820.598 262.954C822.141 262.763 823.028 262.317 823.915 261.87Z" fill="#ADFE02"/>
<path d="M835.158 296.523C835.448 295.857 836.078 294.404 836.825 294.342C840.304 294.053 843.814 294.149 847.586 294.384C843.756 295.233 839.655 295.804 835.158 296.523Z" fill="#ADF613"/>
<path d="M770.936 306.116C774.706 308.312 772.377 311.91 772.176 315.413C771.559 312.653 771.229 309.609 770.936 306.116Z" fill="#ADF613"/>
<path d="M897.254 291.567C899.978 291.044 903.137 290.575 906.58 290.393C903.806 290.993 900.747 291.307 897.254 291.567Z" fill="#ADF613"/>
<path d="M768.938 283.087C769.451 284.844 769.93 287.02 770.121 289.453C769.522 287.642 769.212 285.575 768.938 283.087Z" fill="#ADF613"/>
<path d="M773.906 345.098C776.828 345.871 776.454 347.604 774.399 349.652C774.003 348.339 773.941 346.93 773.906 345.098Z" fill="#ADF613"/>
<path d="M879.495 257.825C877.828 258.157 875.742 258.436 873.266 258.707C874.942 258.39 877.009 258.081 879.495 257.825Z" fill="#ADF613"/>
<path d="M893.548 256.843C892.713 257.35 891.51 257.798 890.088 257.989C890.973 257.416 892.077 257.1 893.548 256.843Z" fill="#ADF613"/>
<path d="M772.994 339.988C773.491 340.535 773.935 341.423 774.131 342.505C773.569 341.909 773.256 341.119 772.994 339.988Z" fill="#ADF613"/>
<path d="M823.576 261.825C823.029 262.317 822.141 262.763 821.059 262.96C821.654 262.401 822.445 262.09 823.576 261.825Z" fill="#ADF613"/>
<path d="M772.053 322.938C772.508 323.217 772.917 323.796 773.105 324.538C772.591 324.214 772.298 323.726 772.053 322.938Z" fill="#ADF613"/>
<path d="M848.615 259.845C848.342 260.304 847.767 260.731 847.027 260.935C847.346 260.412 847.83 260.112 848.615 259.845Z" fill="#ADF613"/>
<path d="M769.979 292.011C770.529 292.21 771.082 292.729 771.711 293.532C771.184 293.321 770.582 292.826 769.979 292.011Z" fill="#ADF613"/>
<path d="M856.16 294.578C856.342 294.283 856.816 294.004 857.579 293.718C857.397 294.005 856.925 294.299 856.16 294.578Z" fill="#ADF613"/>
<path d="M835.652 260.941C835.745 261.163 835.551 261.377 835.088 261.615C834.969 261.387 835.152 261.152 835.652 260.941Z" fill="#ADF613"/>
<path d="M738.436 66.0145C738.806 65.784 739.253 65.9678 739.911 66.4643C739.585 66.6609 739.049 66.5449 738.436 66.0145Z" fill="black"/>
<path d="M122.702 741.266C122.068 742.525 121.469 743.313 120.806 744.405C118.494 746.136 116.247 747.562 113.944 749.32C113.705 749.673 113.523 749.694 112.872 749.824C112.162 750.091 111.985 750.304 111.874 750.572C107.204 750.591 102.534 750.609 97.4069 750.606C96.9058 750.423 96.9148 750.178 96.811 750.113C88.5349 744.912 88.6722 736.885 88.7123 728.343C88.9432 679.181 88.823 630.018 88.8276 580.856C88.8279 578.02 89.2361 575.023 85.2837 573.784C80.6116 577.342 76.1166 580.723 72.0512 584.559C65.3206 590.911 58.8271 597.516 52.3078 604.088C46.0493 610.397 39.723 616.653 33.7384 623.216C30.0366 627.275 21.0885 628.281 17.0961 624.476C14.6854 622.178 12.2621 619.871 10.0712 617.369C4.25752 610.731 4.49403 605.564 10.7936 599.228C18.7807 591.195 26.8037 583.197 34.8154 575.188C54.9482 555.063 75.0753 534.932 95.2271 514.826C98.0574 512.002 100.942 508.894 105.459 509.732C107.74 510.156 110.361 510.904 111.973 512.416C122.448 522.244 132.815 532.195 142.973 542.35C155.653 555.024 168.036 567.994 180.67 580.714C186.846 586.932 193.229 592.95 199.649 598.918C206.345 605.145 206.146 615.216 198.461 620.123C194.823 622.446 193.197 628.275 187.443 627.001C184.256 626.295 180.202 626.22 178.146 624.214C164.055 610.466 150.418 596.255 136.567 582.261C133.332 578.993 129.834 575.986 125.667 572.128C124.404 574.091 123.374 575.692 122.567 577.498C122.783 578.129 122.776 578.556 122.622 579.418C122.586 580.153 122.696 580.451 122.806 580.749C122.783 634.098 122.76 687.446 122.702 741.266Z" fill="#ADFE02"/>
<path d="M288.887 871.167C288.782 869.407 288.693 868.083 288.287 866.634C287.946 863.548 287.921 860.585 288.119 856.966C287.878 855.393 287.414 854.477 286.95 853.56C286.933 850.253 286.916 846.946 286.885 843.189C287.045 841.21 287.22 839.682 287.144 837.905C289.189 831.592 294.051 828.928 300.616 827.967C302.101 828.03 302.998 827.867 303.895 827.704C304.329 827.702 304.762 827.7 305.691 827.902C306.807 827.663 307.428 827.22 308.048 826.777C308.744 826.761 309.44 826.746 310.696 826.954C312.194 826.715 313.133 826.253 314.071 825.791C315.698 825.781 317.325 825.771 319.572 825.979C321.1 826.036 322.007 825.875 322.913 825.714C325.593 825.712 328.272 825.71 331.573 825.907C332.805 825.657 333.416 825.209 334.026 824.761C334.426 824.761 334.827 824.761 335.526 824.751C340.674 824.745 345.528 824.892 350.37 824.715C356.139 824.504 361.902 824.077 367.656 823.611C369.356 823.473 371.02 822.886 372.837 822.126C375.623 821.746 378.273 821.744 381.581 821.968C383.462 821.712 384.684 821.232 385.906 820.751C385.906 820.751 385.917 820.747 385.929 820.761C388.618 820.748 391.294 820.721 394.622 820.928C396.837 820.689 398.402 820.217 399.967 819.745C403.623 819.73 407.28 819.716 411.564 819.901C412.802 819.658 413.413 819.215 414.023 818.772C417.293 818.769 420.564 818.765 424.358 819.041C425.544 819.436 426.206 819.552 426.868 819.667C431.417 821.625 433.776 825.017 433.971 830.027C434.041 831.823 434.605 833.609 435.019 835.382C437.43 845.699 431.93 852.246 421.379 852.821C403.583 853.79 385.821 855.394 368.039 856.642C364.558 856.886 360.964 856.275 357.581 856.91C355.278 857.342 352.82 858.898 351.332 860.696C350.79 861.352 352.4 864.68 353.801 865.904C362.033 873.098 370.542 879.973 378.864 887.067C388.448 895.236 397.922 903.532 407.464 911.75C418.828 921.537 430.223 931.29 441.588 941.077C451.886 949.945 462.402 958.582 472.372 967.806C479.86 974.733 480.414 980.252 472.914 988.171C471.082 990.105 469.186 991.979 467.291 993.852C462.5 998.588 459.177 999.219 453.694 995.096C447.219 990.229 441.219 984.725 435.054 979.45C421.333 967.712 407.594 955.995 393.946 944.174C382.554 934.308 371.306 924.277 359.946 914.374C350.205 905.882 340.452 897.402 330.538 889.115C329.457 888.211 327.074 888.085 325.688 888.619C324.861 888.937 324.393 891.268 324.466 892.657C324.813 899.265 325.352 905.865 325.936 912.458C326.088 914.176 326.649 915.858 327.386 917.724C327.769 918.582 327.789 919.273 327.818 920.31C327.908 923.298 327.988 925.938 328.42 928.727C328.791 931.183 328.812 933.491 328.576 936.52C328.804 939.794 329.287 942.346 329.77 944.898C329.78 945.591 329.79 946.284 329.806 947.323C329.932 951.892 330.052 956.114 330.491 960.566C330.806 961.805 330.801 962.814 330.569 964.403C330.188 965.561 330.033 966.138 329.878 966.716C329.538 967.459 329.198 968.201 328.491 969.355C327.688 970.756 327.252 971.747 326.816 972.737C325.733 973.083 324.651 973.428 322.826 973.782C320.633 974.4 319.183 975.01 317.733 975.619C317.328 975.626 316.924 975.632 316.216 975.651C312.403 975.49 308.893 975.317 305.105 975.406C304.431 975.652 304.034 975.635 303.244 975.292C301.861 974.226 300.869 973.487 299.878 972.748C299.878 972.748 299.858 972.707 299.7 972.363C298.001 967.873 296.459 963.727 294.917 959.581C294.909 956.264 294.9 952.947 294.87 949.178C294.841 946.029 295.023 943.315 294.786 940.638C294.093 932.811 293.234 924.999 292.171 916.908C291.903 915.909 291.904 915.185 291.895 914.098C291.802 911.11 291.719 908.485 291.268 905.759C290.901 905.658 290.884 905.69 290.901 905.434C290.912 905.01 290.907 904.842 290.901 904.674C290.9 902.651 290.899 900.627 290.884 898.173C290.787 896.087 290.703 894.433 290.285 892.655C289.948 892.138 289.945 891.743 290.203 890.744C289.951 886.282 289.438 882.424 288.925 878.566C288.917 876.245 288.91 873.923 288.887 871.167Z" fill="#ADFE02"/>
<path d="M426.682 819.42C426.205 819.552 425.543 819.436 424.803 819.043C425.316 818.901 425.906 819.037 426.682 819.42Z" fill="#ACE33C"/>
<path d="M413.733 818.745C413.412 819.215 412.802 819.658 412.021 819.875C411.851 819.65 411.859 819.179 411.866 818.944C411.873 818.709 412.367 818.7 412.613 818.697C413.054 818.702 413.248 818.711 413.733 818.745Z" fill="#ACE33C"/>
<path d="M351.994 296.344C351.917 297.443 351.879 298.188 351.861 299.305C355.985 303.646 360.09 307.616 364.542 311.611C372.959 318.638 381.028 325.639 389.436 332.696C394.295 337.279 398.648 341.987 403.381 346.276C407.904 350.375 412.901 353.944 417.55 357.909C425.814 364.956 433.968 372.131 442.177 379.243C449.063 385.209 455.975 391.145 462.848 397.126C466.226 400.065 469.434 403.207 472.908 406.022C478.559 410.601 479.798 417.395 475.254 422.915C472.238 426.58 468.643 429.799 465.102 432.99C461.989 435.797 458.332 435.585 455.045 433.391C452.03 431.377 449.313 428.902 446.533 426.55C436.589 418.137 426.682 409.68 416.745 401.259C408.583 394.342 400.101 387.768 392.31 380.458C384.9 373.506 377.372 366.807 369.417 360.444C356.931 350.457 345.4 339.281 333.259 328.848C331.473 327.314 328.558 327.094 326.166 326.266C325.669 328.667 324.633 331.099 324.771 333.462C325.272 342.047 326.177 350.608 326.908 359.179C327.878 370.551 328.593 381.952 329.851 393.292C331.222 405.649 325.32 412.626 312.79 412.728C309.793 412.752 306.796 412.717 303.333 412.718C296.986 408.926 294.545 403.429 294.87 396.129C294.786 392.062 294.718 388.424 294.311 384.654C293.968 384.124 293.964 383.728 293.968 383.033C294.253 380.149 294.936 377.531 294.744 374.98C293.237 355.022 291.451 335.086 289.979 315.126C289.064 302.733 288.399 290.317 287.91 277.9C287.661 271.57 292.251 267.162 298.512 266.628C316.97 265.052 335.411 263.273 353.874 261.754C364.603 260.872 375.369 260.43 386.105 259.62C397.155 258.787 408.209 257.935 419.223 256.733C426.876 255.898 430.406 257.66 433.232 265.336C437.347 276.516 436.864 283.011 430.598 287.053C426.617 289.62 421.013 290.196 416.048 290.615C397.574 292.178 379.058 293.229 360.574 294.677C357.738 294.9 354.287 291.909 351.994 296.344Z" fill="#ADFE02"/>
<path d="M108.078 166.931C112.327 162.326 116.324 157.973 120.321 153.619C120.849 153.75 121.376 153.88 121.903 154.01C121.903 158.353 121.674 162.709 121.943 167.034C123.079 185.323 117.02 187.406 102.288 186.704C99.6006 186.576 96.9429 185.827 94.2715 185.365C95.5114 183.03 96.4503 180.458 98.0559 178.409C101.112 174.509 104.549 170.908 108.078 166.931Z" fill="#ADFE03"/>
<path d="M771.905 882.045C771.804 879.11 771.713 876.478 771.263 873.717C770.895 868.604 770.885 863.62 771.126 857.92C770.564 853.639 769.751 850.075 768.938 846.511C768.934 843.582 768.931 840.653 769.223 837.187C769.923 835.993 770.327 835.337 770.731 834.68C770.947 834.142 771.163 833.604 771.954 832.84C774.359 830.994 776.191 829.374 778.022 827.755C782.343 827.424 786.665 827.094 791.648 826.985C793.554 826.737 794.798 826.267 796.042 825.796C799.675 825.774 803.309 825.752 807.682 825.987C810.952 825.754 813.482 825.264 816.012 824.774C816.418 824.768 816.825 824.762 817.841 825.016C820.365 825.401 822.322 825.828 824.185 825.572C826.475 825.256 828.687 824.37 830.933 823.73C831.664 823.728 832.395 823.726 833.792 823.991C843.625 824.033 852.792 823.845 861.953 823.504C862.635 823.479 863.275 822.351 863.934 821.735C864.361 821.732 864.789 821.729 865.708 821.924C866.803 821.673 867.406 821.223 868.01 820.773C870 820.763 871.991 820.752 874.407 820.734C873.821 823.25 873.383 826.272 871.697 828.207C864.217 836.795 856.402 845.092 848.657 853.449C846.554 855.718 844.344 857.014 840.757 856.097C838.047 855.405 834.071 855.147 834.768 860.676C835.459 861.577 835.76 862.033 835.783 862.674C834.546 865.079 834.095 867.784 832.53 869.43C828.25 873.929 823.676 878.196 818.873 882.133C816.045 884.451 812.511 885.891 809.398 887.887C808.411 888.519 807.702 889.63 806.967 890.599C806.206 891.602 805.773 892.946 804.845 893.715C796.83 900.355 788.843 907.041 780.571 913.349C778.975 914.566 776.166 914.192 773.917 914.552C773.913 912.888 773.909 911.224 773.886 909.146C773.788 906.1 773.71 903.469 773.274 900.703C772.901 898.238 772.887 895.907 773.131 892.857C772.897 889.28 772.404 886.423 771.91 883.566C771.913 883.161 771.915 882.755 771.905 882.045Z" fill="#ADFE02"/>
<path d="M836.061 862.489C835.76 862.033 835.459 861.577 835.047 860.868C838.322 860.292 841.708 859.969 845.549 859.686C845.863 860.048 845.724 860.371 845.452 860.933C843.499 862.572 841.677 863.973 839.348 864.948C837.913 863.844 836.987 863.167 836.061 862.489Z" fill="#050109"/>
<path d="M122.812 580.467C122.696 580.451 122.585 580.153 122.626 579.738C122.79 579.809 122.805 579.996 122.812 580.467Z" fill="#A8DF3B"/>
<path d="M863.461 821.719C863.276 822.351 862.636 823.479 861.954 823.504C852.793 823.845 843.626 824.033 834.158 823.974C840.447 823.027 847.029 822.269 853.631 821.745C856.731 821.498 859.867 821.703 863.461 821.719Z" fill="#ACE33C"/>
<path d="M830.465 823.717C828.687 824.37 826.475 825.256 824.184 825.572C822.322 825.828 820.365 825.401 818.145 824.999C821.892 824.382 825.945 824.043 830.465 823.717Z" fill="#ACE33C"/>
<path d="M777.662 827.758C776.191 829.375 774.36 830.994 772.181 832.655C772.16 831.914 772.486 831.133 772.852 830.035C773.192 829.599 773.446 829.414 773.787 828.968C775.047 828.435 776.175 828.098 777.662 827.758Z" fill="#B1E743"/>
<path d="M815.585 824.748C813.481 825.264 810.951 825.754 808.139 825.974C810.291 825.376 812.725 825.048 815.585 824.748Z" fill="#ACE33C"/>
<path d="M795.657 825.763C794.798 826.267 793.554 826.737 792.076 826.962C792.985 826.387 794.128 826.058 795.657 825.763Z" fill="#ACE33C"/>
<path d="M867.694 820.767C867.406 821.223 866.803 821.673 866.027 821.903C866.363 821.376 866.871 821.068 867.694 820.767Z" fill="#ACE33C"/>
<path d="M313.725 825.773C313.132 826.254 312.194 826.715 311.043 826.94C311.68 826.386 312.53 826.071 313.725 825.773Z" fill="#ACE33C"/>
<path d="M307.727 826.761C307.428 827.22 306.807 827.663 306.016 827.882C306.365 827.353 306.886 827.049 307.727 826.761Z" fill="#ACE33C"/>
<path d="M333.708 824.753C333.416 825.209 332.805 825.657 332.02 825.884C332.36 825.357 332.875 825.051 333.708 824.753Z" fill="#ACE33C"/>
<path d="M303.509 827.697C302.998 827.867 302.101 828.031 301.002 827.956C301.574 827.708 302.348 827.699 303.509 827.697Z" fill="#ACE33C"/>
<path d="M322.52 825.703C322.006 825.875 321.1 826.036 319.979 825.966C320.552 825.721 321.339 825.707 322.52 825.703Z" fill="#ACE33C"/>
<path d="M835.784 862.674C836.987 863.167 837.914 863.844 838.991 864.842C836.551 868.292 834.187 871.65 831.319 874.499C825.964 879.819 820.316 884.843 814.823 890.339C811.876 890.746 809.445 891.585 808.819 895.318C808.544 895.841 808.232 895.99 807.888 896.414C806.3 897.467 804.595 898.044 803.211 899.058C794.324 905.574 785.508 912.186 776.324 918.826C775.282 917.689 774.583 916.492 773.9 914.924C776.166 914.193 778.975 914.566 780.571 913.349C788.844 907.041 796.83 900.356 804.845 893.716C805.773 892.946 806.206 891.602 806.967 890.599C807.702 889.63 808.411 888.52 809.398 887.887C812.511 885.891 816.045 884.451 818.873 882.133C823.676 878.196 828.251 873.93 832.53 869.43C834.095 867.784 834.546 865.08 835.784 862.674Z" fill="#B1E743"/>
<path d="M768.91 846.963C769.752 850.075 770.564 853.639 771.105 857.454C770.182 854.275 769.532 850.845 768.91 846.963Z" fill="#B1E743"/>
<path d="M770.415 834.737C770.327 835.337 769.923 835.993 769.217 836.747C769.31 836.161 769.705 835.478 770.415 834.737Z" fill="#B1E743"/>
<path d="M318.137 975.649C319.184 975.01 320.634 974.4 322.473 973.834C321.421 974.479 319.98 975.079 318.137 975.649Z" fill="#A6DD3A"/>
<path d="M327.117 972.586C327.253 971.747 327.689 970.756 328.455 969.66C328.329 970.515 327.874 971.474 327.117 972.586Z" fill="#A6DD3A"/>
<path d="M330.126 966.532C330.032 966.138 330.187 965.561 330.574 964.783C330.662 965.171 330.518 965.76 330.126 966.532Z" fill="#A6DD3A"/>
<path d="M587.366 187.174C587.344 187.183 587.388 187.165 587.366 187.174V187.174Z" fill="#ADFE03"/>
<path d="M294.898 960.021C296.459 963.727 298 967.873 299.678 972.356C299.121 972.676 298.427 972.658 297.393 972.576C296.329 968.495 295.604 964.479 294.898 960.021Z" fill="#A6DD3A"/>
<path d="M771.891 884.019C772.403 886.424 772.896 889.281 773.106 892.416C772.506 889.953 772.189 887.212 771.891 884.019Z" fill="#B1E743"/>
<path d="M286.928 853.914C287.415 854.477 287.879 855.393 288.102 856.516C287.542 855.905 287.224 855.086 286.928 853.914Z" fill="#A6DD3A"/>
<path d="M112.076 750.504C111.985 750.304 112.161 750.091 112.597 749.852C112.704 750.058 112.534 750.28 112.076 750.504Z" fill="#9EDA26"/>
<path d="M299.916 973.071C300.869 973.487 301.861 974.226 302.946 975.287C302.011 974.87 300.983 974.132 299.916 973.071Z" fill="#A6DD3A"/>
<path d="M288.904 879.037C289.437 882.424 289.951 886.282 290.194 890.447C289.578 887.005 289.231 883.256 288.904 879.037Z" fill="#A6DD3A"/>
<path d="M329.803 944.449C329.288 942.346 328.805 939.794 328.592 936.958C329.186 939.116 329.511 941.558 329.803 944.449Z" fill="#A6DD3A"/>
<path d="M385.534 820.736C384.684 821.232 383.461 821.712 382.025 821.955C382.928 821.385 384.045 821.053 385.534 820.736Z" fill="#ACE33C"/>
<path d="M290.731 904.767C290.907 904.843 290.913 905.011 290.913 905.431C290.792 905.408 290.676 905.133 290.731 904.767Z" fill="#A6DD3A"/>
<path d="M399.693 819.729C398.402 820.217 396.838 820.689 395.07 820.904C394.973 820.342 395.158 820.096 395.631 819.804C396.596 819.699 397.353 819.702 398.489 819.702C399.051 819.704 399.235 819.709 399.693 819.729Z" fill="#ACE33C"/>
<path d="M520.177 43.1166C522.362 45.5896 521.598 47.424 519.166 48.2581C518.411 48.5171 516.306 47.1995 516.124 46.3296C515.544 43.5708 517.14 42.4422 520.177 43.1166Z" fill="#ADFE03"/>
</svg>
